<svg width="327" height="192" viewBox="0 0 327 192" fill="none" xmlns="http://www.w3.org/2000/svg">
<rect x="1.5" y="1.5" width="324" height="189" fill="black" stroke="#D8ECFF" stroke-width="3"/>
<rect width="327" height="34" fill="#D8ECFF"/>
<path d="M13.96 9.06154V23H11.5231V9.32L13.96 9.06154ZM20.3846 13.2246L16.7569 17.5815L20.7354 23H17.8646L14.0985 17.6462L17.6985 13.2246H20.3846ZM24.6373 18.8554C24.7111 19.7723 24.9819 20.4338 25.4496 20.84C25.9173 21.2462 26.4865 21.4492 27.1573 21.4492C27.625 21.4492 28.065 21.3754 28.4773 21.2277C28.8896 21.08 29.2958 20.8738 29.6958 20.6092L30.7111 22.0031C30.2558 22.3846 29.7111 22.6923 29.0773 22.9262C28.4496 23.16 27.7573 23.2769 27.0004 23.2769C25.9419 23.2769 25.0496 23.0585 24.3234 22.6215C23.6034 22.1846 23.0588 21.5785 22.6896 20.8031C22.3204 20.0277 22.1358 19.1354 22.1358 18.1262C22.1358 17.1538 22.3142 16.2769 22.6711 15.4954C23.0342 14.7138 23.5573 14.0954 24.2404 13.64C24.9296 13.1785 25.7573 12.9477 26.7234 12.9477C28.065 12.9477 29.1296 13.3846 29.9173 14.2585C30.705 15.1323 31.0988 16.3415 31.0988 17.8862C31.0988 18.2431 31.0834 18.5662 31.0527 18.8554H24.6373ZM26.7327 14.6646C26.1419 14.6646 25.6558 14.8769 25.2742 15.3015C24.8988 15.7262 24.6773 16.3908 24.6096 17.2954H28.7265C28.7142 16.4708 28.545 15.8277 28.2188 15.3662C27.8927 14.8985 27.3973 14.6646 26.7327 14.6646ZM42.4869 13.2246L39.1731 23.0185C38.7731 24.2123 38.1792 25.1538 37.3915 25.8431C36.6038 26.5385 35.5023 26.9354 34.0869 27.0338L33.7823 25.2708C34.4346 25.1785 34.9577 25.04 35.3515 24.8554C35.7515 24.6708 36.0684 24.4277 36.3023 24.1262C36.5423 23.8246 36.7484 23.4492 36.9207 23H36.09L32.8869 13.2246H35.4623L37.6777 21.3754L39.9854 13.2246H42.4869ZM59.503 21.4769C60.0753 21.4769 60.5338 21.3785 60.8784 21.1815C61.2292 20.9846 61.4046 20.7015 61.4046 20.3323C61.4046 20.0985 61.3461 19.8985 61.2292 19.7323C61.1184 19.56 60.8969 19.4031 60.5646 19.2615C60.2323 19.1138 59.7338 18.9508 59.0692 18.7723C58.4415 18.6123 57.8907 18.4154 57.4169 18.1815C56.9492 17.9415 56.583 17.6338 56.3184 17.2585C56.06 16.8831 55.9307 16.4092 55.9307 15.8369C55.9307 14.9877 56.2876 14.2954 57.0015 13.76C57.7153 13.2185 58.7123 12.9477 59.9923 12.9477C60.8292 12.9477 61.5615 13.0585 62.1892 13.28C62.8169 13.4954 63.3553 13.7662 63.8046 14.0923L62.8076 15.5785C62.4138 15.3262 61.9861 15.1231 61.5246 14.9692C61.0692 14.8092 60.5769 14.7292 60.0476 14.7292C59.4753 14.7292 59.0569 14.8123 58.7923 14.9785C58.5338 15.1446 58.4046 15.3754 58.4046 15.6708C58.4046 15.88 58.4692 16.0585 58.5984 16.2062C58.7338 16.3477 58.9738 16.4862 59.3184 16.6215C59.6692 16.7508 60.1676 16.9077 60.8138 17.0923C61.4476 17.2708 61.9984 17.4769 62.4661 17.7108C62.94 17.9446 63.3061 18.2554 63.5646 18.6431C63.823 19.0246 63.9523 19.5292 63.9523 20.1569C63.9523 20.8646 63.7461 21.4492 63.3338 21.9108C62.9215 22.3723 62.3769 22.7169 61.7 22.9446C61.023 23.1662 60.2938 23.2769 59.5123 23.2769C58.5892 23.2769 57.783 23.1446 57.0938 22.88C56.4046 22.6154 55.82 22.2738 55.34 21.8554L56.6046 20.4338C56.9861 20.7354 57.42 20.9846 57.9061 21.1815C58.3984 21.3785 58.9307 21.4769 59.503 21.4769ZM69.3311 9.06154V23H66.8942V9.32L69.3311 9.06154ZM75.7557 13.2246L72.128 17.5815L76.1065 23H73.2357L69.4696 17.6462L73.0696 13.2246H75.7557ZM81.9745 8.29539C82.4176 8.29539 82.7807 8.43385 83.0638 8.71077C83.3469 8.98769 83.4884 9.33231 83.4884 9.74462C83.4884 10.1569 83.3469 10.5046 83.0638 10.7877C82.7807 11.0646 82.4176 11.2031 81.9745 11.2031C81.5253 11.2031 81.1592 11.0646 80.8761 10.7877C80.593 10.5046 80.4515 10.1569 80.4515 9.74462C80.4515 9.33231 80.593 8.98769 80.8761 8.71077C81.1592 8.43385 81.5253 8.29539 81.9745 8.29539ZM83.553 13.2246V21.2738H86.1284V23H78.2545V21.2738H81.1161V14.9508H78.3469V13.2246H83.553ZM93.658 9.32V20.1569C93.658 20.5815 93.7841 20.8831 94.0365 21.0615C94.2888 21.24 94.6241 21.3292 95.0426 21.3292C95.3072 21.3292 95.5626 21.3015 95.8088 21.2462C96.0549 21.1846 96.2888 21.1108 96.5103 21.0246L97.1103 22.6862C96.8026 22.8462 96.4272 22.9846 95.9841 23.1015C95.5472 23.2185 95.0395 23.2769 94.4611 23.2769C93.3965 23.2769 92.5903 22.9723 92.0426 22.3631C91.4949 21.7538 91.2211 20.9323 91.2211 19.8985V11.0462H88.2949V9.32H93.658ZM104.732 9.32V20.1569C104.732 20.5815 104.858 20.8831 105.111 21.0615C105.363 21.24 105.698 21.3292 106.117 21.3292C106.381 21.3292 106.637 21.3015 106.883 21.2462C107.129 21.1846 107.363 21.1108 107.585 21.0246L108.185 22.6862C107.877 22.8462 107.501 22.9846 107.058 23.1015C106.621 23.2185 106.114 23.2769 105.535 23.2769C104.471 23.2769 103.665 22.9723 103.117 22.3631C102.569 21.7538 102.295 20.9323 102.295 19.8985V11.0462H99.3691V9.32H104.732ZM114.874 21.4769C115.446 21.4769 115.905 21.3785 116.25 21.1815C116.6 20.9846 116.776 20.7015 116.776 20.3323C116.776 20.0985 116.717 19.8985 116.6 19.7323C116.49 19.56 116.268 19.4031 115.936 19.2615C115.603 19.1138 115.105 18.9508 114.44 18.7723C113.813 18.6123 113.262 18.4154 112.788 18.1815C112.32 17.9415 111.954 17.6338 111.69 17.2585C111.431 16.8831 111.302 16.4092 111.302 15.8369C111.302 14.9877 111.659 14.2954 112.373 13.76C113.086 13.2185 114.083 12.9477 115.363 12.9477C116.2 12.9477 116.933 13.0585 117.56 13.28C118.188 13.4954 118.726 13.7662 119.176 14.0923L118.179 15.5785C117.785 15.3262 117.357 15.1231 116.896 14.9692C116.44 14.8092 115.948 14.7292 115.419 14.7292C114.846 14.7292 114.428 14.8123 114.163 14.9785C113.905 15.1446 113.776 15.3754 113.776 15.6708C113.776 15.88 113.84 16.0585 113.97 16.2062C114.105 16.3477 114.345 16.4862 114.69 16.6215C115.04 16.7508 115.539 16.9077 116.185 17.0923C116.819 17.2708 117.37 17.4769 117.837 17.7108C118.311 17.9446 118.677 18.2554 118.936 18.6431C119.194 19.0246 119.323 19.5292 119.323 20.1569C119.323 20.8646 119.117 21.4492 118.705 21.9108C118.293 22.3723 117.748 22.7169 117.071 22.9446C116.394 23.1662 115.665 23.2769 114.883 23.2769C113.96 23.2769 113.154 23.1446 112.465 22.88C111.776 22.6154 111.191 22.2738 110.711 21.8554L111.976 20.4338C112.357 20.7354 112.791 20.9846 113.277 21.1815C113.77 21.3785 114.302 21.4769 114.874 21.4769Z" fill="black"/>
<path d="M18.6944 45.0349V47.4882C19.3562 47.5538 19.947 47.7097 20.4667 47.9559C20.9863 48.1966 21.4267 48.4756 21.7877 48.7928L20.7867 49.8349C20.1685 49.2879 19.4711 48.9706 18.6944 48.8831V52.2882C19.3125 52.4961 19.8677 52.745 20.36 53.0349C20.8523 53.3248 21.2407 53.694 21.5251 54.1426C21.8096 54.5856 21.9518 55.1381 21.9518 55.8C21.9518 56.3579 21.8287 56.8749 21.5826 57.3508C21.3364 57.8212 20.9699 58.2178 20.4831 58.5405C20.0017 58.8578 19.4055 59.0629 18.6944 59.1559V61.5682H17.5046V59.2051C16.7115 59.1559 16.0168 58.9781 15.4205 58.6718C14.8297 58.3655 14.3429 58.0263 13.96 57.6544L14.9446 56.5467C15.3002 56.8858 15.6858 57.1648 16.1015 57.3836C16.5173 57.5969 16.985 57.7227 17.5046 57.761V53.6503C16.4598 53.3002 15.6776 52.8708 15.1579 52.3621C14.6438 51.8479 14.3867 51.2079 14.3867 50.4421C14.3867 49.6981 14.652 49.0444 15.1826 48.481C15.7186 47.9176 16.4926 47.5867 17.5046 47.4882V45.0349H18.6944ZM17.5046 48.9077C17.0998 48.9788 16.7771 49.1347 16.5364 49.3754C16.2957 49.6161 16.1754 49.9279 16.1754 50.3108C16.1754 50.6554 16.2602 50.9453 16.4297 51.1805C16.6048 51.4157 16.9631 51.6482 17.5046 51.8779V48.9077ZM18.6944 54.0851V57.6954C19.6407 57.4985 20.1138 56.9104 20.1138 55.9313C20.1138 55.5265 20.0126 55.1764 19.8103 54.881C19.6079 54.5856 19.2359 54.3203 18.6944 54.0851ZM65.55 57.6297C65.55 57.1921 65.7005 56.8202 66.0013 56.5138C66.3076 56.2021 66.6851 56.0462 67.1336 56.0462C67.5822 56.0462 67.9596 56.2021 68.2659 56.5138C68.5723 56.8202 68.7254 57.1921 68.7254 57.6297C68.7254 58.0674 68.5723 58.4421 68.2659 58.7538C67.9596 59.0656 67.5822 59.2215 67.1336 59.2215C66.6851 59.2215 66.3076 59.0656 66.0013 58.7538C65.7005 58.4421 65.55 58.0674 65.55 57.6297ZM74.2369 60.7477L72.7763 60.0913L79.7507 45.6749L81.1948 46.3559L74.2369 60.7477ZM83.4488 59V57.6872H84.7206V51.64H83.4488V50.3354H86.1237L86.4601 52.3456C86.7828 51.6181 87.1821 51.0656 87.658 50.6882C88.1394 50.3053 88.7575 50.1138 89.5124 50.1138C89.7695 50.1138 89.9992 50.1357 90.2016 50.1795C90.4095 50.2178 90.6146 50.2697 90.817 50.3354L90.5052 53.5272H89.1924V51.7631C88.5798 51.785 88.0519 52.0311 87.6088 52.5015C87.1657 52.9665 86.8157 53.6229 86.5586 54.4708V57.6872H88.3062V59H83.4488ZM94.7367 55.2585C94.7914 56.1501 95.0403 56.7956 95.4833 57.1949C95.9319 57.5942 96.4707 57.7938 97.0997 57.7938C97.5209 57.7938 97.9121 57.7282 98.2731 57.5969C98.6396 57.4656 99.0061 57.2797 99.3726 57.039L100.168 58.1385C99.7637 58.4667 99.2905 58.7292 98.749 58.9262C98.2074 59.1231 97.6276 59.2215 97.0095 59.2215C96.1069 59.2215 95.3438 59.0301 94.7203 58.6472C94.1021 58.2643 93.6317 57.7309 93.309 57.0472C92.9917 56.3634 92.8331 55.573 92.8331 54.6759C92.8331 53.8062 92.9917 53.0294 93.309 52.3456C93.6262 51.6564 94.0803 51.1121 94.671 50.7128C95.2618 50.308 95.9674 50.1056 96.7879 50.1056C97.9367 50.1056 98.8447 50.4913 99.5121 51.2626C100.185 52.0338 100.521 53.0923 100.521 54.4379C100.521 54.5856 100.516 54.7333 100.505 54.881C100.499 55.0232 100.491 55.1491 100.48 55.2585H94.7367ZM96.8044 51.4677C96.23 51.4677 95.7541 51.6728 95.3767 52.0831C94.9992 52.4933 94.7832 53.1333 94.7285 54.0031H98.7408C98.7244 53.188 98.5493 52.5617 98.2156 52.1241C97.8874 51.6865 97.417 51.4677 96.8044 51.4677ZM110.644 50.3354L107.592 59H105.442L102.39 50.3354H104.359L106.558 57.4738L108.765 50.3354H110.644ZM113.612 60.7477L112.151 60.0913L119.126 45.6749L120.57 46.3559L113.612 60.7477ZM125.893 57.8103C126.467 57.8103 126.924 57.7091 127.263 57.5067C127.602 57.2988 127.772 57.0144 127.772 56.6533C127.772 56.4181 127.722 56.2185 127.624 56.0544C127.525 55.8903 127.328 55.7371 127.033 55.5949C126.738 55.4526 126.289 55.305 125.687 55.1518C125.119 55.0041 124.618 54.8291 124.186 54.6267C123.759 54.4243 123.428 54.1617 123.193 53.839C122.958 53.5162 122.84 53.1005 122.84 52.5918C122.84 51.8479 123.149 51.2489 123.767 50.7949C124.391 50.3354 125.236 50.1056 126.303 50.1056C127.03 50.1056 127.665 50.2014 128.206 50.3928C128.748 50.5843 129.21 50.8222 129.593 51.1067L128.822 52.2636C128.483 52.0393 128.111 51.8561 127.706 51.7138C127.307 51.5716 126.855 51.5005 126.352 51.5005C125.767 51.5005 125.346 51.588 125.088 51.7631C124.837 51.9381 124.711 52.1706 124.711 52.4605C124.711 52.6793 124.774 52.8598 124.9 53.0021C125.031 53.1443 125.255 53.2783 125.573 53.4041C125.89 53.5299 126.338 53.6721 126.918 53.8308C127.482 53.9839 127.971 54.1644 128.387 54.3723C128.808 54.5802 129.134 54.8564 129.363 55.201C129.599 55.5402 129.716 55.9832 129.716 56.5303C129.716 57.1538 129.536 57.6653 129.175 58.0646C128.814 58.4585 128.343 58.7511 127.763 58.9426C127.183 59.1285 126.56 59.2215 125.893 59.2215C125.088 59.2215 124.394 59.1067 123.808 58.8769C123.223 58.6417 122.731 58.3491 122.332 57.999L123.308 56.8831C123.647 57.1566 124.035 57.3809 124.473 57.5559C124.911 57.7255 125.384 57.8103 125.893 57.8103ZM134.481 46.6513V59H132.643V46.8564L134.481 46.6513ZM140.216 50.3354L136.713 54.2082L140.586 59H138.337L134.612 54.2574L138.075 50.3354H140.216ZM145.884 46.0933C146.245 46.0933 146.535 46.2027 146.753 46.4215C146.978 46.6403 147.09 46.9138 147.09 47.2421C147.09 47.5703 146.978 47.8465 146.753 48.0708C146.535 48.295 146.245 48.4072 145.884 48.4072C145.534 48.4072 145.246 48.295 145.022 48.0708C144.798 47.8465 144.686 47.5703 144.686 47.2421C144.686 46.9138 144.798 46.6403 145.022 46.4215C145.246 46.2027 145.534 46.0933 145.884 46.0933ZM147.164 50.3354V57.6544H149.518V59H142.733V57.6544H145.326V51.681H142.815V50.3354H147.164ZM156.08 46.8564V56.6369C156.08 57.0362 156.201 57.3207 156.441 57.4903C156.687 57.6544 157.005 57.7364 157.393 57.7364C157.639 57.7364 157.874 57.7118 158.099 57.6626C158.328 57.6079 158.55 57.5368 158.763 57.4492L159.231 58.7292C158.974 58.8605 158.657 58.9754 158.279 59.0738C157.907 59.1723 157.481 59.2215 156.999 59.2215C156.129 59.2215 155.451 58.9754 154.964 58.4831C154.483 57.9908 154.242 57.3207 154.242 56.4728V48.2103H151.625V46.8564H156.08ZM165.924 46.8564V56.6369C165.924 57.0362 166.044 57.3207 166.285 57.4903C166.531 57.6544 166.848 57.7364 167.237 57.7364C167.483 57.7364 167.718 57.7118 167.942 57.6626C168.172 57.6079 168.394 57.5368 168.607 57.4492L169.075 58.7292C168.818 58.8605 168.5 58.9754 168.123 59.0738C167.751 59.1723 167.324 59.2215 166.843 59.2215C165.973 59.2215 165.295 58.9754 164.808 58.4831C164.327 57.9908 164.086 57.3207 164.086 56.4728V48.2103H161.469V46.8564H165.924ZM175.111 57.8103C175.686 57.8103 176.142 57.7091 176.482 57.5067C176.821 57.2988 176.99 57.0144 176.99 56.6533C176.99 56.4181 176.941 56.2185 176.843 56.0544C176.744 55.8903 176.547 55.7371 176.252 55.5949C175.956 55.4526 175.508 55.305 174.906 55.1518C174.337 55.0041 173.837 54.8291 173.405 54.6267C172.978 54.4243 172.647 54.1617 172.412 53.839C172.177 53.5162 172.059 53.1005 172.059 52.5918C172.059 51.8479 172.368 51.2489 172.986 50.7949C173.61 50.3354 174.455 50.1056 175.522 50.1056C176.249 50.1056 176.884 50.2014 177.425 50.3928C177.967 50.5843 178.429 50.8222 178.812 51.1067L178.041 52.2636C177.701 52.0393 177.329 51.8561 176.925 51.7138C176.525 51.5716 176.074 51.5005 175.571 51.5005C174.985 51.5005 174.564 51.588 174.307 51.7631C174.056 51.9381 173.93 52.1706 173.93 52.4605C173.93 52.6793 173.993 52.8598 174.118 53.0021C174.25 53.1443 174.474 53.2783 174.791 53.4041C175.109 53.5299 175.557 53.6721 176.137 53.8308C176.7 53.9839 177.19 54.1644 177.606 54.3723C178.027 54.5802 178.352 54.8564 178.582 55.201C178.817 55.5402 178.935 55.9832 178.935 56.5303C178.935 57.1538 178.754 57.6653 178.393 58.0646C178.032 58.4585 177.562 58.7511 176.982 58.9426C176.402 59.1285 175.779 59.2215 175.111 59.2215C174.307 59.2215 173.612 59.1067 173.027 58.8769C172.442 58.6417 171.95 58.3491 171.55 57.999L172.527 56.8831C172.866 57.1566 173.254 57.3809 173.692 57.5559C174.129 57.7255 174.603 57.8103 175.111 57.8103ZM182.518 60.7477L181.058 60.0913L188.032 45.6749L189.476 46.3559L182.518 60.7477Z" fill="white"/>
<path d="M37.9552 46.8564V56.6369C37.9552 57.0362 38.0755 57.3207 38.3162 57.4903C38.5624 57.6544 38.8796 57.7364 39.268 57.7364C39.5142 57.7364 39.7494 57.7118 39.9737 57.6626C40.2034 57.6079 40.4249 57.5368 40.6383 57.4492L41.106 58.7292C40.8489 58.8605 40.5316 58.9754 40.1542 59.0738C39.7822 59.1723 39.3555 59.2215 38.8742 59.2215C38.0044 59.2215 37.3261 58.9754 36.8393 58.4831C36.3579 57.9908 36.1172 57.3207 36.1172 56.4728V48.2103H33.4998V46.8564H37.9552ZM47.1425 57.8103C47.7169 57.8103 48.1736 57.7091 48.5128 57.5067C48.8519 57.2988 49.0215 57.0144 49.0215 56.6533C49.0215 56.4181 48.9723 56.2185 48.8738 56.0544C48.7754 55.8903 48.5784 55.7371 48.283 55.5949C47.9877 55.4526 47.5391 55.305 46.9374 55.1518C46.3685 55.0041 45.868 54.8291 45.4359 54.6267C45.0092 54.4243 44.6783 54.1617 44.443 53.839C44.2078 53.5162 44.0902 53.1005 44.0902 52.5918C44.0902 51.8479 44.3993 51.2489 45.0174 50.7949C45.641 50.3354 46.4861 50.1056 47.5528 50.1056C48.2803 50.1056 48.9148 50.2014 49.4564 50.3928C49.9979 50.5843 50.4601 50.8222 50.843 51.1067L50.0718 52.2636C49.7326 52.0393 49.3607 51.8561 48.9559 51.7138C48.5565 51.5716 48.1053 51.5005 47.602 51.5005C47.0167 51.5005 46.5955 51.588 46.3384 51.7631C46.0868 51.9381 45.961 52.1706 45.961 52.4605C45.961 52.6793 46.0239 52.8598 46.1497 53.0021C46.281 53.1443 46.5053 53.2783 46.8225 53.4041C47.1398 53.5299 47.5883 53.6721 48.1682 53.8308C48.7316 53.9839 49.2212 54.1644 49.6369 54.3723C50.0581 54.5802 50.3836 54.8564 50.6133 55.201C50.8485 55.5402 50.9661 55.9832 50.9661 56.5303C50.9661 57.1538 50.7856 57.6653 50.4246 58.0646C50.0636 58.4585 49.5931 58.7511 49.0133 58.9426C48.4335 59.1285 47.8099 59.2215 47.1425 59.2215C46.3384 59.2215 45.6437 59.1067 45.0584 58.8769C44.4731 58.6417 43.9808 58.3491 43.5815 57.999L44.5579 56.8831C44.8971 57.1566 45.2854 57.3809 45.723 57.5559C46.1607 57.7255 46.6338 57.8103 47.1425 57.8103Z" fill="#FFAD2A"/>
<path d="M14.5426 85V83.6872H15.8144V77.64H14.5426V76.3354H17.2174L17.5538 78.3456C17.8766 77.6181 18.2759 77.0656 18.7518 76.6882C19.2332 76.3053 19.8513 76.1138 20.6062 76.1138C20.8632 76.1138 21.093 76.1357 21.2954 76.1795C21.5032 76.2178 21.7084 76.2697 21.9108 76.3354L21.599 79.5272H20.2862V77.7631C19.6735 77.785 19.1456 78.0311 18.7026 78.5015C18.2595 78.9665 17.9094 79.6229 17.6523 80.4708V83.6872H19.4V85H14.5426ZM25.8304 81.2585C25.8851 82.1501 26.134 82.7956 26.5771 83.1949C27.0256 83.5942 27.5644 83.7938 28.1935 83.7938C28.6147 83.7938 29.0058 83.7282 29.3668 83.5969C29.7333 83.4656 30.0998 83.2797 30.4663 83.039L31.2622 84.1385C30.8574 84.4667 30.3843 84.7292 29.8427 84.9262C29.3012 85.1231 28.7214 85.2215 28.1032 85.2215C27.2007 85.2215 26.4376 85.0301 25.814 84.6472C25.1959 84.2643 24.7255 83.7309 24.4027 83.0472C24.0855 82.3634 23.9268 81.573 23.9268 80.6759C23.9268 79.8062 24.0855 79.0294 24.4027 78.3456C24.72 77.6564 25.174 77.1121 25.7648 76.7128C26.3555 76.308 27.0612 76.1056 27.8817 76.1056C29.0304 76.1056 29.9385 76.4913 30.6058 77.2626C31.2786 78.0338 31.615 79.0923 31.615 80.4379C31.615 80.5856 31.6096 80.7333 31.5986 80.881C31.5932 81.0232 31.5849 81.1491 31.574 81.2585H25.8304ZM27.8981 77.4677C27.3238 77.4677 26.8479 77.6728 26.4704 78.0831C26.093 78.4933 25.8769 79.1333 25.8222 80.0031H29.8345C29.8181 79.188 29.6431 78.5617 29.3094 78.1241C28.9812 77.6865 28.5108 77.4677 27.8981 77.4677ZM40.7696 82.8749C40.7696 83.2195 40.8215 83.4684 40.9254 83.6215C41.0294 83.7747 41.1962 83.8896 41.426 83.9662L41.0157 85.2133C40.589 85.1641 40.2198 85.0465 39.908 84.8605C39.6017 84.6745 39.3719 84.3928 39.2188 84.0154C38.9015 84.4202 38.4995 84.7238 38.0126 84.9262C37.5258 85.1231 37.0061 85.2215 36.4537 85.2215C35.573 85.2215 34.8783 84.9754 34.3696 84.4831C33.8608 83.9853 33.6065 83.3344 33.6065 82.5303C33.6065 81.6168 33.962 80.9138 34.6731 80.4215C35.3843 79.9292 36.4017 79.6831 37.7254 79.6831H38.9644V79.1169C38.9644 78.5535 38.7949 78.1515 38.4557 77.9108C38.1166 77.6646 37.6434 77.5415 37.0362 77.5415C36.7518 77.5415 36.4072 77.5798 36.0024 77.6564C35.5976 77.7275 35.1737 77.8397 34.7306 77.9928L34.2793 76.6964C34.8208 76.494 35.3514 76.3463 35.8711 76.2533C36.3907 76.1549 36.8721 76.1056 37.3152 76.1056C38.4749 76.1056 39.3391 76.3627 39.908 76.8769C40.4824 77.3911 40.7696 78.1022 40.7696 79.0103V82.8749ZM37.0116 83.8677C37.3836 83.8677 37.7473 83.7692 38.1029 83.5723C38.4584 83.3754 38.7456 83.0991 38.9644 82.7436V80.8318H37.947C37.0827 80.8318 36.4646 80.9768 36.0926 81.2667C35.7207 81.5511 35.5347 81.945 35.5347 82.4482C35.5347 83.3945 36.027 83.8677 37.0116 83.8677ZM48.1682 83.7118C48.573 83.7118 48.9504 83.6407 49.3005 83.4985C49.6506 83.3562 49.9842 83.1757 50.3015 82.9569L51.1548 84.1385C50.7774 84.4612 50.3179 84.7238 49.7764 84.9262C49.2403 85.1231 48.6851 85.2215 48.1107 85.2215C47.2246 85.2215 46.4642 85.0356 45.8297 84.6636C45.2007 84.2862 44.7193 83.761 44.3856 83.0882C44.0574 82.4099 43.8933 81.6168 43.8933 80.7087C43.8933 79.828 44.0601 79.0431 44.3938 78.3538C44.733 77.6591 45.2198 77.1121 45.8543 76.7128C46.4889 76.308 47.2519 76.1056 48.1436 76.1056C49.3032 76.1056 50.3042 76.453 51.1466 77.1477L50.3015 78.3046C49.9624 78.0694 49.615 77.8916 49.2595 77.7713C48.9039 77.6455 48.5429 77.5826 48.1764 77.5826C47.4871 77.5826 46.9265 77.8342 46.4943 78.3374C46.0622 78.8407 45.8461 79.6311 45.8461 80.7087C45.8461 81.7918 46.0649 82.5631 46.5025 83.0226C46.9401 83.4821 47.4954 83.7118 48.1682 83.7118ZM61.0724 84.5405C60.7552 84.7429 60.375 84.907 59.9319 85.0328C59.4888 85.1586 59.0266 85.2215 58.5453 85.2215C57.5388 85.2215 56.7729 84.9617 56.2478 84.4421C55.7282 83.9169 55.4683 83.2277 55.4683 82.3744V77.6728H53.5401V76.3354H55.4683V74.399L57.3063 74.1774V76.3354H60.2273L60.0222 77.6728H57.3063V82.3579C57.3063 82.8229 57.4212 83.1703 57.6509 83.4C57.8861 83.6243 58.269 83.7364 58.7996 83.7364C59.1169 83.7364 59.4068 83.6981 59.6694 83.6215C59.9374 83.545 60.1835 83.4465 60.4078 83.3262L61.0724 84.5405ZM64.3931 86.7477L62.9326 86.0913L69.907 71.6749L71.3511 72.3559L64.3931 86.7477ZM110.291 84.5405C109.974 84.7429 109.594 84.907 109.151 85.0328C108.708 85.1586 108.245 85.2215 107.764 85.2215C106.758 85.2215 105.992 84.9617 105.467 84.4421C104.947 83.9169 104.687 83.2277 104.687 82.3744V77.6728H102.759V76.3354H104.687V74.399L106.525 74.1774V76.3354H109.446L109.241 77.6728H106.525V82.3579C106.525 82.8229 106.64 83.1703 106.87 83.4C107.105 83.6243 107.488 83.7364 108.018 83.7364C108.336 83.7364 108.626 83.6981 108.888 83.6215C109.156 83.545 109.402 83.4465 109.627 83.3262L110.291 84.5405ZM120.48 76.3354L117.493 85.0328C117.269 85.6892 116.981 86.2691 116.631 86.7723C116.281 87.2756 115.833 87.6776 115.286 87.9785C114.739 88.2848 114.06 88.4735 113.251 88.5446L113.013 87.1662C113.598 87.0732 114.063 86.9364 114.408 86.7559C114.758 86.5809 115.034 86.3484 115.236 86.0585C115.444 85.774 115.628 85.4212 115.786 85H115.163L112.242 76.3354H114.194L116.377 83.72L118.592 76.3354H120.48ZM126.967 76.1056C127.733 76.1056 128.346 76.2944 128.805 76.6718C129.265 77.0438 129.599 77.5716 129.806 78.2554C130.014 78.9337 130.118 79.7323 130.118 80.6513C130.118 81.532 129.992 82.3169 129.741 83.0062C129.489 83.6954 129.114 84.2369 128.617 84.6308C128.124 85.0246 127.512 85.2215 126.779 85.2215C125.871 85.2215 125.138 84.9015 124.58 84.2615V88.3313L122.742 88.5364V76.3354H124.342L124.457 77.4513C124.785 77.0082 125.165 76.6745 125.597 76.4503C126.029 76.2205 126.486 76.1056 126.967 76.1056ZM126.459 77.5251C126.048 77.5251 125.685 77.6482 125.367 77.8944C125.056 78.1405 124.793 78.4304 124.58 78.7641V82.8174C125.012 83.4629 125.583 83.7856 126.295 83.7856C126.913 83.7856 127.383 83.5368 127.706 83.039C128.029 82.5412 128.19 81.748 128.19 80.6595C128.19 79.5491 128.045 78.7504 127.755 78.2636C127.471 77.7713 127.039 77.5251 126.459 77.5251ZM134.112 81.2585C134.166 82.1501 134.415 82.7956 134.858 83.1949C135.307 83.5942 135.846 83.7938 136.475 83.7938C136.896 83.7938 137.287 83.7282 137.648 83.5969C138.015 83.4656 138.381 83.2797 138.748 83.039L139.543 84.1385C139.139 84.4667 138.666 84.7292 138.124 84.9262C137.582 85.1231 137.003 85.2215 136.384 85.2215C135.482 85.2215 134.719 85.0301 134.095 84.6472C133.477 84.2643 133.007 83.7309 132.684 83.0472C132.367 82.3634 132.208 81.573 132.208 80.6759C132.208 79.8062 132.367 79.0294 132.684 78.3456C133.001 77.6564 133.455 77.1121 134.046 76.7128C134.637 76.308 135.342 76.1056 136.163 76.1056C137.312 76.1056 138.22 76.4913 138.887 77.2626C139.56 78.0338 139.896 79.0923 139.896 80.4379C139.896 80.5856 139.891 80.7333 139.88 80.881C139.874 81.0232 139.866 81.1491 139.855 81.2585H134.112ZM136.179 77.4677C135.605 77.4677 135.129 77.6728 134.752 78.0831C134.374 78.4933 134.158 79.1333 134.103 80.0031H138.116C138.099 79.188 137.924 78.5617 137.591 78.1241C137.262 77.6865 136.792 77.4677 136.179 77.4677ZM145.58 83.8103C146.154 83.8103 146.611 83.7091 146.95 83.5067C147.289 83.2988 147.459 83.0144 147.459 82.6533C147.459 82.4181 147.41 82.2185 147.311 82.0544C147.213 81.8903 147.016 81.7371 146.721 81.5949C146.425 81.4526 145.977 81.305 145.375 81.1518C144.806 81.0041 144.306 80.8291 143.873 80.6267C143.447 80.4243 143.116 80.1617 142.881 79.839C142.645 79.5162 142.528 79.1005 142.528 78.5918C142.528 77.8479 142.837 77.2489 143.455 76.7949C144.078 76.3354 144.924 76.1056 145.99 76.1056C146.718 76.1056 147.352 76.2014 147.894 76.3928C148.435 76.5843 148.898 76.8222 149.281 77.1067L148.509 78.2636C148.17 78.0393 147.798 77.8561 147.393 77.7138C146.994 77.5716 146.543 77.5005 146.04 77.5005C145.454 77.5005 145.033 77.588 144.776 77.7631C144.524 77.9381 144.398 78.1706 144.398 78.4605C144.398 78.6793 144.461 78.8598 144.587 79.0021C144.718 79.1443 144.943 79.2783 145.26 79.4041C145.577 79.5299 146.026 79.6721 146.606 79.8308C147.169 79.9839 147.659 80.1644 148.074 80.3723C148.496 80.5802 148.821 80.8564 149.051 81.201C149.286 81.5402 149.404 81.9832 149.404 82.5303C149.404 83.1538 149.223 83.6653 148.862 84.0646C148.501 84.4585 148.031 84.7511 147.451 84.9426C146.871 85.1285 146.247 85.2215 145.58 85.2215C144.776 85.2215 144.081 85.1067 143.496 84.8769C142.911 84.6417 142.418 84.3491 142.019 83.999L142.995 82.8831C143.335 83.1566 143.723 83.3809 144.161 83.5559C144.598 83.7255 145.071 83.8103 145.58 83.8103ZM156.449 83.7118C156.854 83.7118 157.232 83.6407 157.582 83.4985C157.932 83.3562 158.265 83.1757 158.583 82.9569L159.436 84.1385C159.059 84.4612 158.599 84.7238 158.058 84.9262C157.522 85.1231 156.966 85.2215 156.392 85.2215C155.506 85.2215 154.745 85.0356 154.111 84.6636C153.482 84.2862 153.001 83.761 152.667 83.0882C152.339 82.4099 152.175 81.6168 152.175 80.7087C152.175 79.828 152.341 79.0431 152.675 78.3538C153.014 77.6591 153.501 77.1121 154.136 76.7128C154.77 76.308 155.533 76.1056 156.425 76.1056C157.584 76.1056 158.585 76.453 159.428 77.1477L158.583 78.3046C158.244 78.0694 157.896 77.8916 157.541 77.7713C157.185 77.6455 156.824 77.5826 156.458 77.5826C155.768 77.5826 155.208 77.8342 154.776 78.3374C154.343 78.8407 154.127 79.6311 154.127 80.7087C154.127 81.7918 154.346 82.5631 154.784 83.0226C155.221 83.4821 155.777 83.7118 156.449 83.7118ZM162.199 85V83.6872H163.471V77.64H162.199V76.3354H164.874L165.21 78.3456C165.533 77.6181 165.932 77.0656 166.408 76.6882C166.889 76.3053 167.508 76.1138 168.262 76.1138C168.519 76.1138 168.749 76.1357 168.952 76.1795C169.159 76.2178 169.365 76.2697 169.567 76.3354L169.255 79.5272H167.942V77.7631C167.33 77.785 166.802 78.0311 166.359 78.5015C165.916 78.9665 165.566 79.6229 165.309 80.4708V83.6872H167.056V85H162.199ZM175.415 72.0933C175.776 72.0933 176.066 72.2027 176.285 72.4215C176.509 72.6403 176.621 72.9138 176.621 73.2421C176.621 73.5703 176.509 73.8465 176.285 74.0708C176.066 74.295 175.776 74.4072 175.415 74.4072C175.065 74.4072 174.778 74.295 174.553 74.0708C174.329 73.8465 174.217 73.5703 174.217 73.2421C174.217 72.9138 174.329 72.6403 174.553 72.4215C174.778 72.2027 175.065 72.0933 175.415 72.0933ZM176.695 76.3354V83.6544H179.05V85H172.264V83.6544H174.857V77.681H172.346V76.3354H176.695ZM186.03 76.1056C186.796 76.1056 187.408 76.2944 187.868 76.6718C188.327 77.0438 188.661 77.5716 188.869 78.2554C189.077 78.9337 189.181 79.7323 189.181 80.6513C189.181 81.532 189.055 82.3169 188.803 83.0062C188.552 83.6954 188.177 84.2369 187.679 84.6308C187.187 85.0246 186.574 85.2215 185.841 85.2215C184.933 85.2215 184.2 84.9015 183.642 84.2615V88.3313L181.804 88.5364V76.3354H183.404L183.519 77.4513C183.847 77.0082 184.228 76.6745 184.66 76.4503C185.092 76.2205 185.549 76.1056 186.03 76.1056ZM185.521 77.5251C185.111 77.5251 184.747 77.6482 184.43 77.8944C184.118 78.1405 183.856 78.4304 183.642 78.7641V82.8174C184.074 83.4629 184.646 83.7856 185.357 83.7856C185.975 83.7856 186.446 83.5368 186.768 83.039C187.091 82.5412 187.252 81.748 187.252 80.6595C187.252 79.5491 187.108 78.7504 186.818 78.2636C186.533 77.7713 186.101 77.5251 185.521 77.5251ZM198.885 84.5405C198.568 84.7429 198.188 84.907 197.744 85.0328C197.301 85.1586 196.839 85.2215 196.358 85.2215C195.351 85.2215 194.585 84.9617 194.06 84.4421C193.541 83.9169 193.281 83.2277 193.281 82.3744V77.6728H191.353V76.3354H193.281V74.399L195.119 74.1774V76.3354H198.04L197.835 77.6728H195.119V82.3579C195.119 82.8229 195.234 83.1703 195.463 83.4C195.699 83.6243 196.082 83.7364 196.612 83.7364C196.929 83.7364 197.219 83.6981 197.482 83.6215C197.75 83.545 197.996 83.4465 198.22 83.3262L198.885 84.5405ZM202.206 86.7477L200.745 86.0913L207.719 71.6749L209.164 72.3559L202.206 86.7477ZM14.4605 103V94.3354H16.0441L16.1836 95.4595C16.5446 95.0219 16.9713 94.6882 17.4636 94.4585C17.9559 94.2232 18.4619 94.1056 18.9815 94.1056C19.7911 94.1056 20.3956 94.3326 20.7949 94.7867C21.1997 95.2407 21.4021 95.8725 21.4021 96.6821V103H19.5641V97.5928C19.5641 96.8434 19.4875 96.3101 19.3344 95.9928C19.1867 95.6701 18.8503 95.5087 18.3251 95.5087C17.9039 95.5087 17.5183 95.64 17.1682 95.9026C16.8236 96.1597 16.5337 96.4523 16.2985 96.7805V103H14.4605ZM25.8304 99.2585C25.8851 100.15 26.134 100.796 26.5771 101.195C27.0256 101.594 27.5644 101.794 28.1935 101.794C28.6147 101.794 29.0058 101.728 29.3668 101.597C29.7333 101.466 30.0998 101.28 30.4663 101.039L31.2622 102.138C30.8574 102.467 30.3843 102.729 29.8427 102.926C29.3012 103.123 28.7214 103.222 28.1032 103.222C27.2007 103.222 26.4376 103.03 25.814 102.647C25.1959 102.264 24.7255 101.731 24.4027 101.047C24.0855 100.363 23.9268 99.573 23.9268 98.6759C23.9268 97.8062 24.0855 97.0294 24.4027 96.3456C24.72 95.6564 25.174 95.1121 25.7648 94.7128C26.3555 94.308 27.0612 94.1056 27.8817 94.1056C29.0304 94.1056 29.9385 94.4913 30.6058 95.2626C31.2786 96.0338 31.615 97.0923 31.615 98.4379C31.615 98.5856 31.6096 98.7333 31.5986 98.881C31.5932 99.0232 31.5849 99.1491 31.574 99.2585H25.8304ZM27.8981 95.4677C27.3238 95.4677 26.8479 95.6728 26.4704 96.0831C26.093 96.4933 25.8769 97.1333 25.8222 98.0031H29.8345C29.8181 97.188 29.6431 96.5617 29.3094 96.1241C28.9812 95.6865 28.5108 95.4677 27.8981 95.4677ZM35.428 103H33.3931L36.5029 98.4297L33.7378 94.3354H35.8547L37.627 97.3877L39.3993 94.3354H41.4178L38.7101 98.3559L41.828 103H39.6701L37.5449 99.4636L35.428 103ZM51.2287 102.541C50.9114 102.743 50.5312 102.907 50.0882 103.033C49.6451 103.159 49.1829 103.222 48.7015 103.222C47.695 103.222 46.9292 102.962 46.4041 102.442C45.8844 101.917 45.6246 101.228 45.6246 100.374V95.6728H43.6964V94.3354H45.6246V92.399L47.4625 92.1774V94.3354H50.3836L50.1784 95.6728H47.4625V100.358C47.4625 100.823 47.5774 101.17 47.8071 101.4C48.0424 101.624 48.4253 101.736 48.9559 101.736C49.2731 101.736 49.563 101.698 49.8256 101.622C50.0936 101.545 50.3398 101.446 50.5641 101.326L51.2287 102.541ZM55.7063 101.63C55.7063 101.192 55.8567 100.82 56.1576 100.514C56.4639 100.202 56.8413 100.046 57.2899 100.046C57.7384 100.046 58.1159 100.202 58.4222 100.514C58.7285 100.82 58.8817 101.192 58.8817 101.63C58.8817 102.067 58.7285 102.442 58.4222 102.754C58.1159 103.066 57.7384 103.222 57.2899 103.222C56.8413 103.222 56.4639 103.066 56.1576 102.754C55.8567 102.442 55.7063 102.067 55.7063 101.63ZM68.2577 90.0933C68.6133 90.0933 68.9032 90.2027 69.1275 90.4215C69.3517 90.6403 69.4639 90.9138 69.4639 91.2421C69.4639 91.5703 69.3517 91.8465 69.1275 92.0708C68.9032 92.295 68.6133 92.4072 68.2577 92.4072C67.9022 92.4072 67.6123 92.295 67.388 92.0708C67.1692 91.8465 67.0598 91.5703 67.0598 91.2421C67.0598 90.9138 67.1692 90.6403 67.388 90.4215C67.6123 90.2027 67.9022 90.0933 68.2577 90.0933ZM69.6936 94.3354V101.178C69.6936 102.256 69.4693 103.15 69.0208 103.862C68.5723 104.573 67.9186 105.142 67.0598 105.568C66.201 105.995 65.1562 106.318 63.9254 106.536L63.63 105.125C64.4888 104.961 65.2355 104.734 65.87 104.444C66.5046 104.154 66.9941 103.758 67.3387 103.254C67.6834 102.751 67.8557 102.1 67.8557 101.302V95.681H64.4341V94.3354H69.6936ZM76.6738 101.81C77.2481 101.81 77.7049 101.709 78.044 101.507C78.3832 101.299 78.5528 101.014 78.5528 100.653C78.5528 100.418 78.5035 100.218 78.4051 100.054C78.3066 99.8903 78.1097 99.7371 77.8143 99.5949C77.5189 99.4526 77.0704 99.305 76.4687 99.1518C75.8998 99.0041 75.3993 98.8291 74.9671 98.6267C74.5404 98.4243 74.2095 98.1617 73.9743 97.839C73.7391 97.5162 73.6215 97.1005 73.6215 96.5918C73.6215 95.8479 73.9305 95.2489 74.5487 94.7949C75.1722 94.3354 76.0174 94.1056 77.084 94.1056C77.8116 94.1056 78.4461 94.2014 78.9876 94.3928C79.5292 94.5843 79.9914 94.8222 80.3743 95.1067L79.603 96.2636C79.2639 96.0393 78.8919 95.8561 78.4871 95.7138C78.0878 95.5716 77.6365 95.5005 77.1333 95.5005C76.548 95.5005 76.1268 95.588 75.8697 95.7631C75.6181 95.9381 75.4922 96.1706 75.4922 96.4605C75.4922 96.6793 75.5551 96.8598 75.681 97.0021C75.8122 97.1443 76.0365 97.2783 76.3538 97.4041C76.671 97.5299 77.1196 97.6721 77.6994 97.8308C78.2628 97.9839 78.7524 98.1644 79.1681 98.3723C79.5893 98.5802 79.9148 98.8564 80.1446 99.201C80.3798 99.5402 80.4974 99.9832 80.4974 100.53C80.4974 101.154 80.3169 101.665 79.9558 102.065C79.5948 102.458 79.1244 102.751 78.5446 102.943C77.9647 103.129 77.3411 103.222 76.6738 103.222C75.8697 103.222 75.175 103.107 74.5897 102.877C74.0044 102.642 73.5121 102.349 73.1128 101.999L74.0892 100.883C74.4283 101.157 74.8167 101.381 75.2543 101.556C75.6919 101.725 76.1651 101.81 76.6738 101.81ZM84.0806 104.748L82.6201 104.091L89.5945 89.6749L91.0386 90.3559L84.0806 104.748ZM129.979 102.541C129.661 102.743 129.281 102.907 128.838 103.033C128.395 103.159 127.933 103.222 127.452 103.222C126.445 103.222 125.679 102.962 125.154 102.442C124.634 101.917 124.375 101.228 124.375 100.374V95.6728H122.446V94.3354H124.375V92.399L126.213 92.1774V94.3354H129.134L128.928 95.6728H126.213V100.358C126.213 100.823 126.327 101.17 126.557 101.4C126.792 101.624 127.175 101.736 127.706 101.736C128.023 101.736 128.313 101.698 128.576 101.622C128.844 101.545 129.09 101.446 129.314 101.326L129.979 102.541ZM139.207 100.875C139.207 101.219 139.259 101.468 139.363 101.622C139.467 101.775 139.634 101.89 139.863 101.966L139.453 103.213C139.027 103.164 138.657 103.046 138.346 102.861C138.039 102.675 137.809 102.393 137.656 102.015C137.339 102.42 136.937 102.724 136.45 102.926C135.963 103.123 135.444 103.222 134.891 103.222C134.01 103.222 133.316 102.975 132.807 102.483C132.298 101.985 132.044 101.334 132.044 100.53C132.044 99.6168 132.4 98.9138 133.111 98.4215C133.822 97.9292 134.839 97.6831 136.163 97.6831H137.402V97.1169C137.402 96.5535 137.232 96.1515 136.893 95.9108C136.554 95.6646 136.081 95.5415 135.474 95.5415C135.189 95.5415 134.845 95.5798 134.44 95.6564C134.035 95.7275 133.611 95.8397 133.168 95.9928L132.717 94.6964C133.258 94.494 133.789 94.3463 134.309 94.2533C134.828 94.1549 135.31 94.1056 135.753 94.1056C136.912 94.1056 137.777 94.3627 138.346 94.8769C138.92 95.3911 139.207 96.1022 139.207 97.0103V100.875ZM135.449 101.868C135.821 101.868 136.185 101.769 136.54 101.572C136.896 101.375 137.183 101.099 137.402 100.744V98.8318H136.384C135.52 98.8318 134.902 98.9768 134.53 99.2667C134.158 99.5511 133.972 99.945 133.972 100.448C133.972 101.395 134.464 101.868 135.449 101.868ZM145.884 90.0933C146.245 90.0933 146.535 90.2027 146.753 90.4215C146.978 90.6403 147.09 90.9138 147.09 91.2421C147.09 91.5703 146.978 91.8465 146.753 92.0708C146.535 92.295 146.245 92.4072 145.884 92.4072C145.534 92.4072 145.246 92.295 145.022 92.0708C144.798 91.8465 144.686 91.5703 144.686 91.2421C144.686 90.9138 144.798 90.6403 145.022 90.4215C145.246 90.2027 145.534 90.0933 145.884 90.0933ZM147.164 94.3354V101.654H149.518V103H142.733V101.654H145.326V95.681H142.815V94.3354H147.164ZM156.08 90.8564V100.637C156.08 101.036 156.201 101.321 156.441 101.49C156.687 101.654 157.005 101.736 157.393 101.736C157.639 101.736 157.874 101.712 158.099 101.663C158.328 101.608 158.55 101.537 158.763 101.449L159.231 102.729C158.974 102.861 158.657 102.975 158.279 103.074C157.907 103.172 157.481 103.222 156.999 103.222C156.129 103.222 155.451 102.975 154.964 102.483C154.483 101.991 154.242 101.321 154.242 100.473V92.2103H151.625V90.8564H156.08ZM168.894 103H166.597L165.62 96.8462L164.57 103H162.322L160.853 94.3354H162.625L163.528 101.859L164.734 95.4349H166.572L167.696 101.859L168.599 94.3354H170.305L168.894 103ZM175.415 90.0933C175.776 90.0933 176.066 90.2027 176.285 90.4215C176.509 90.6403 176.621 90.9138 176.621 91.2421C176.621 91.5703 176.509 91.8465 176.285 92.0708C176.066 92.295 175.776 92.4072 175.415 92.4072C175.065 92.4072 174.778 92.295 174.553 92.0708C174.329 91.8465 174.217 91.5703 174.217 91.2421C174.217 90.9138 174.329 90.6403 174.553 90.4215C174.778 90.2027 175.065 90.0933 175.415 90.0933ZM176.695 94.3354V101.654H179.05V103H172.264V101.654H174.857V95.681H172.346V94.3354H176.695ZM181.804 103V94.3354H183.388L183.527 95.4595C183.888 95.0219 184.315 94.6882 184.807 94.4585C185.3 94.2232 185.806 94.1056 186.325 94.1056C187.135 94.1056 187.739 94.3326 188.139 94.7867C188.543 95.2407 188.746 95.8725 188.746 96.6821V103H186.908V97.5928C186.908 96.8434 186.831 96.3101 186.678 95.9928C186.53 95.6701 186.194 95.5087 185.669 95.5087C185.248 95.5087 184.862 95.64 184.512 95.9026C184.167 96.1597 183.877 96.4523 183.642 96.7805V103H181.804ZM196.735 90.6513L198.573 90.8564V103H196.957L196.825 101.933C196.53 102.344 196.177 102.661 195.767 102.885C195.357 103.109 194.897 103.222 194.389 103.222C193.645 103.222 193.032 103.033 192.551 102.655C192.075 102.272 191.719 101.739 191.484 101.055C191.249 100.372 191.131 99.5757 191.131 98.6677C191.131 97.787 191.268 97.0048 191.541 96.321C191.815 95.6318 192.206 95.0903 192.715 94.6964C193.223 94.3026 193.836 94.1056 194.553 94.1056C195.444 94.1056 196.172 94.4202 196.735 95.0492V90.6513ZM195.037 95.5169C194.419 95.5169 193.937 95.774 193.593 96.2882C193.248 96.7969 193.076 97.5901 193.076 98.6677C193.076 99.7726 193.232 100.574 193.543 101.072C193.861 101.564 194.304 101.81 194.873 101.81C195.288 101.81 195.649 101.69 195.956 101.449C196.262 101.209 196.522 100.919 196.735 100.579V96.4769C196.522 96.1706 196.273 95.9354 195.989 95.7713C195.704 95.6017 195.387 95.5169 195.037 95.5169ZM201.566 99.2749V97.7651H208.343V99.2749H201.566ZM215.512 101.712C215.917 101.712 216.294 101.641 216.644 101.498C216.994 101.356 217.328 101.176 217.645 100.957L218.499 102.138C218.121 102.461 217.662 102.724 217.12 102.926C216.584 103.123 216.029 103.222 215.454 103.222C214.568 103.222 213.808 103.036 213.173 102.664C212.544 102.286 212.063 101.761 211.729 101.088C211.401 100.41 211.237 99.6168 211.237 98.7087C211.237 97.828 211.404 97.0431 211.738 96.3538C212.077 95.6591 212.564 95.1121 213.198 94.7128C213.833 94.308 214.596 94.1056 215.487 94.1056C216.647 94.1056 217.648 94.453 218.49 95.1477L217.645 96.3046C217.306 96.0694 216.959 95.8916 216.603 95.7713C216.248 95.6455 215.887 95.5826 215.52 95.5826C214.831 95.5826 214.27 95.8342 213.838 96.3374C213.406 96.8407 213.19 97.6311 213.19 98.7087C213.19 99.7918 213.409 100.563 213.846 101.023C214.284 101.482 214.839 101.712 215.512 101.712ZM224.33 101.81C224.904 101.81 225.361 101.709 225.7 101.507C226.039 101.299 226.209 101.014 226.209 100.653C226.209 100.418 226.16 100.218 226.061 100.054C225.963 99.8903 225.766 99.7371 225.471 99.5949C225.175 99.4526 224.727 99.305 224.125 99.1518C223.556 99.0041 223.056 98.8291 222.623 98.6267C222.197 98.4243 221.866 98.1617 221.631 97.839C221.395 97.5162 221.278 97.1005 221.278 96.5918C221.278 95.8479 221.587 95.2489 222.205 94.7949C222.828 94.3354 223.674 94.1056 224.74 94.1056C225.468 94.1056 226.102 94.2014 226.644 94.3928C227.185 94.5843 227.648 94.8222 228.031 95.1067L227.259 96.2636C226.92 96.0393 226.548 95.8561 226.143 95.7138C225.744 95.5716 225.293 95.5005 224.79 95.5005C224.204 95.5005 223.783 95.588 223.526 95.7631C223.274 95.9381 223.148 96.1706 223.148 96.4605C223.148 96.6793 223.211 96.8598 223.337 97.0021C223.468 97.1443 223.693 97.2783 224.01 97.4041C224.327 97.5299 224.776 97.6721 225.356 97.8308C225.919 97.9839 226.409 98.1644 226.824 98.3723C227.246 98.5802 227.571 98.8564 227.801 99.201C228.036 99.5402 228.154 99.9832 228.154 100.53C228.154 101.154 227.973 101.665 227.612 102.065C227.251 102.458 226.781 102.751 226.201 102.943C225.621 103.129 224.997 103.222 224.33 103.222C223.526 103.222 222.831 103.107 222.246 102.877C221.661 102.642 221.168 102.349 220.769 101.999L221.745 100.883C222.085 101.157 222.473 101.381 222.911 101.556C223.348 101.725 223.821 101.81 224.33 101.81ZM234.174 101.81C234.748 101.81 235.205 101.709 235.544 101.507C235.883 101.299 236.053 101.014 236.053 100.653C236.053 100.418 236.004 100.218 235.905 100.054C235.807 99.8903 235.61 99.7371 235.314 99.5949C235.019 99.4526 234.57 99.305 233.969 99.1518C233.4 99.0041 232.899 98.8291 232.467 98.6267C232.04 98.4243 231.71 98.1617 231.474 97.839C231.239 97.5162 231.121 97.1005 231.121 96.5918C231.121 95.8479 231.431 95.2489 232.049 94.7949C232.672 94.3354 233.517 94.1056 234.584 94.1056C235.312 94.1056 235.946 94.2014 236.488 94.3928C237.029 94.5843 237.491 94.8222 237.874 95.1067L237.103 96.2636C236.764 96.0393 236.392 95.8561 235.987 95.7138C235.588 95.5716 235.137 95.5005 234.633 95.5005C234.048 95.5005 233.627 95.588 233.37 95.7631C233.118 95.9381 232.992 96.1706 232.992 96.4605C232.992 96.6793 233.055 96.8598 233.181 97.0021C233.312 97.1443 233.537 97.2783 233.854 97.4041C234.171 97.5299 234.62 97.6721 235.199 97.8308C235.763 97.9839 236.252 98.1644 236.668 98.3723C237.089 98.5802 237.415 98.8564 237.645 99.201C237.88 99.5402 237.997 99.9832 237.997 100.53C237.997 101.154 237.817 101.665 237.456 102.065C237.095 102.458 236.624 102.751 236.045 102.943C235.465 103.129 234.841 103.222 234.174 103.222C233.37 103.222 232.675 103.107 232.09 102.877C231.504 102.642 231.012 102.349 230.613 101.999L231.589 100.883C231.928 101.157 232.317 101.381 232.754 101.556C233.192 101.725 233.665 101.81 234.174 101.81ZM241.581 104.748L240.12 104.091L247.094 89.6749L248.539 90.3559L241.581 104.748ZM18.6862 112.106C19.452 112.106 20.0646 112.294 20.5241 112.672C20.9836 113.044 21.3173 113.572 21.5251 114.255C21.733 114.934 21.8369 115.732 21.8369 116.651C21.8369 117.532 21.7111 118.317 21.4595 119.006C21.2079 119.695 20.8332 120.237 20.3354 120.631C19.8431 121.025 19.2304 121.222 18.4974 121.222C17.5894 121.222 16.8564 120.902 16.2985 120.262V124.331L14.4605 124.536V112.335H16.0605L16.1754 113.451C16.5036 113.008 16.8838 112.675 17.3159 112.45C17.748 112.221 18.2048 112.106 18.6862 112.106ZM18.1774 113.525C17.7672 113.525 17.4034 113.648 17.0862 113.894C16.7744 114.141 16.5118 114.43 16.2985 114.764V118.817C16.7306 119.463 17.3022 119.786 18.0133 119.786C18.6315 119.786 19.1019 119.537 19.4246 119.039C19.7474 118.541 19.9087 117.748 19.9087 116.659C19.9087 115.549 19.7638 114.75 19.4738 114.264C19.1894 113.771 18.7573 113.525 18.1774 113.525ZM31.8858 112.335L28.8991 121.033C28.6749 121.689 28.3877 122.269 28.0376 122.772C27.6875 123.276 27.239 123.678 26.692 123.978C26.1449 124.285 25.4667 124.474 24.6571 124.545L24.4191 123.166C25.0044 123.073 25.4694 122.936 25.814 122.756C26.1641 122.581 26.4403 122.348 26.6427 122.058C26.8506 121.774 27.0338 121.421 27.1925 121H26.5689L23.6479 112.335H25.6007L27.7832 119.72L29.9986 112.335H31.8858ZM41.3849 120.541C41.0677 120.743 40.6875 120.907 40.2444 121.033C39.8013 121.159 39.3391 121.222 38.8578 121.222C37.8513 121.222 37.0854 120.962 36.5603 120.442C36.0407 119.917 35.7808 119.228 35.7808 118.374V113.673H33.8526V112.335H35.7808V110.399L37.6188 110.177V112.335H40.5398L40.3347 113.673H37.6188V118.358C37.6188 118.823 37.7337 119.17 37.9634 119.4C38.1986 119.624 38.5815 119.736 39.1121 119.736C39.4294 119.736 39.7193 119.698 39.9819 119.622C40.2499 119.545 40.496 119.446 40.7203 119.326L41.3849 120.541ZM45.8297 108.676V113.394C46.1798 112.967 46.5873 112.647 47.0523 112.434C47.5227 112.215 48.0095 112.106 48.5128 112.106C49.3278 112.106 49.935 112.333 50.3343 112.787C50.7336 113.241 50.9333 113.872 50.9333 114.682V121H49.0954V114.969C49.0954 114.45 48.9969 114.078 48.8 113.853C48.603 113.624 48.2858 113.509 47.8482 113.509C47.4379 113.509 47.0577 113.643 46.7077 113.911C46.3576 114.173 46.0649 114.471 45.8297 114.805V121H43.9918V108.873L45.8297 108.676ZM57.3063 112.106C58.5753 112.106 59.5435 112.519 60.2109 113.345C60.8782 114.171 61.2119 115.273 61.2119 116.651C61.2119 117.57 61.0588 118.372 60.7524 119.055C60.4516 119.739 60.0085 120.272 59.4232 120.655C58.8434 121.033 58.135 121.222 57.2981 121.222C56.0345 121.222 55.0663 120.814 54.3935 119.999C53.7206 119.178 53.3842 118.068 53.3842 116.668C53.3842 115.771 53.5347 114.98 53.8355 114.296C54.1418 113.607 54.5876 113.071 55.1729 112.688C55.7582 112.3 56.4694 112.106 57.3063 112.106ZM57.3063 113.533C56.6444 113.533 56.1466 113.788 55.8129 114.296C55.4793 114.8 55.3124 115.59 55.3124 116.668C55.3124 117.745 55.4765 118.538 55.8047 119.047C56.1384 119.55 56.6362 119.802 57.2981 119.802C57.96 119.802 58.455 119.548 58.7832 119.039C59.1169 118.53 59.2837 117.734 59.2837 116.651C59.2837 115.585 59.1196 114.8 58.7914 114.296C58.4632 113.788 57.9682 113.533 57.3063 113.533ZM63.6793 121V112.335H65.2629L65.4023 113.459C65.7634 113.022 66.19 112.688 66.6823 112.458C67.1746 112.223 67.6806 112.106 68.2003 112.106C69.0099 112.106 69.6143 112.333 70.0136 112.787C70.4184 113.241 70.6208 113.872 70.6208 114.682V121H68.7829V115.593C68.7829 114.843 68.7063 114.31 68.5531 113.993C68.4054 113.67 68.069 113.509 67.5439 113.509C67.1227 113.509 66.737 113.64 66.387 113.903C66.0423 114.16 65.7524 114.452 65.5172 114.781V121H63.6793ZM74.2369 122.748L72.7763 122.091L79.7507 107.675L81.1948 108.356L74.2369 122.748ZM117.124 112.106C117.889 112.106 118.502 112.294 118.962 112.672C119.421 113.044 119.755 113.572 119.963 114.255C120.17 114.934 120.274 115.732 120.274 116.651C120.274 117.532 120.149 118.317 119.897 119.006C119.645 119.695 119.271 120.237 118.773 120.631C118.281 121.025 117.668 121.222 116.935 121.222C116.027 121.222 115.294 120.902 114.736 120.262V124.331L112.898 124.536V112.335H114.498L114.613 113.451C114.941 113.008 115.321 112.675 115.753 112.45C116.186 112.221 116.642 112.106 117.124 112.106ZM116.615 113.525C116.205 113.525 115.841 113.648 115.524 113.894C115.212 114.141 114.949 114.43 114.736 114.764V118.817C115.168 119.463 115.74 119.786 116.451 119.786C117.069 119.786 117.539 119.537 117.862 119.039C118.185 118.541 118.346 117.748 118.346 116.659C118.346 115.549 118.201 114.75 117.911 114.264C117.627 113.771 117.195 113.525 116.615 113.525ZM124.58 108.676V113.394C124.93 112.967 125.337 112.647 125.802 112.434C126.273 112.215 126.76 112.106 127.263 112.106C128.078 112.106 128.685 112.333 129.084 112.787C129.484 113.241 129.683 113.872 129.683 114.682V121H127.845V114.969C127.845 114.45 127.747 114.078 127.55 113.853C127.353 113.624 127.036 113.509 126.598 113.509C126.188 113.509 125.808 113.643 125.458 113.911C125.108 114.173 124.815 114.471 124.58 114.805V121H122.742V108.873L124.58 108.676ZM136.811 112.106C137.577 112.106 138.19 112.294 138.649 112.672C139.109 113.044 139.442 113.572 139.65 114.255C139.858 114.934 139.962 115.732 139.962 116.651C139.962 117.532 139.836 118.317 139.584 119.006C139.333 119.695 138.958 120.237 138.46 120.631C137.968 121.025 137.355 121.222 136.622 121.222C135.714 121.222 134.981 120.902 134.423 120.262V124.331L132.586 124.536V112.335H134.186L134.3 113.451C134.629 113.008 135.009 112.675 135.441 112.45C135.873 112.221 136.33 112.106 136.811 112.106ZM136.302 113.525C135.892 113.525 135.528 113.648 135.211 113.894C134.899 114.141 134.637 114.43 134.423 114.764V118.817C134.856 119.463 135.427 119.786 136.138 119.786C136.756 119.786 137.227 119.537 137.55 119.039C137.872 118.541 138.034 117.748 138.034 116.659C138.034 115.549 137.889 114.75 137.599 114.264C137.314 113.771 136.882 113.525 136.302 113.525ZM143.143 122.748L141.683 122.091L148.657 107.675L150.101 108.356L143.143 122.748ZM189.099 111.236L189.591 112.762C189.246 112.877 188.866 112.954 188.45 112.992C188.04 113.03 187.581 113.049 187.072 113.049C187.592 113.279 187.983 113.574 188.245 113.935C188.508 114.291 188.639 114.729 188.639 115.248C188.639 115.812 188.502 116.315 188.229 116.758C187.955 117.201 187.562 117.548 187.047 117.8C186.539 118.052 185.931 118.177 185.226 118.177C184.974 118.177 184.755 118.166 184.569 118.145C184.389 118.123 184.211 118.087 184.036 118.038C183.779 118.208 183.65 118.445 183.65 118.752C183.65 118.927 183.722 119.08 183.864 119.211C184.011 119.337 184.301 119.4 184.733 119.4H186.243C186.861 119.4 187.406 119.507 187.876 119.72C188.352 119.928 188.724 120.215 188.992 120.582C189.265 120.943 189.402 121.353 189.402 121.812C189.402 122.677 189.03 123.347 188.286 123.823C187.542 124.298 186.47 124.536 185.07 124.536C184.074 124.536 183.295 124.435 182.731 124.233C182.173 124.03 181.78 123.73 181.55 123.33C181.32 122.931 181.205 122.441 181.205 121.862H182.855C182.855 122.168 182.912 122.419 183.027 122.616C183.147 122.813 183.369 122.958 183.691 123.051C184.014 123.15 184.479 123.199 185.086 123.199C185.989 123.199 186.626 123.087 186.998 122.863C187.37 122.644 187.556 122.335 187.556 121.935C187.556 121.58 187.403 121.306 187.097 121.115C186.79 120.929 186.38 120.836 185.866 120.836H184.381C183.56 120.836 182.958 120.669 182.576 120.335C182.198 120.002 182.009 119.613 182.009 119.17C182.009 118.547 182.332 118.024 182.978 117.603C182.458 117.33 182.078 116.999 181.837 116.61C181.602 116.216 181.484 115.741 181.484 115.183C181.484 114.57 181.637 114.034 181.944 113.574C182.25 113.115 182.674 112.757 183.216 112.499C183.763 112.242 184.392 112.114 185.103 112.114C185.797 112.119 186.377 112.084 186.842 112.007C187.307 111.931 187.712 111.827 188.057 111.695C188.407 111.559 188.754 111.405 189.099 111.236ZM185.119 113.377C184.534 113.377 184.093 113.544 183.798 113.878C183.503 114.206 183.355 114.636 183.355 115.166C183.355 115.713 183.505 116.154 183.806 116.487C184.107 116.815 184.553 116.979 185.144 116.979C185.685 116.979 186.098 116.821 186.383 116.504C186.673 116.186 186.818 115.735 186.818 115.15C186.818 113.968 186.251 113.377 185.119 113.377ZM196.735 108.651L198.573 108.856V121H196.957L196.825 119.933C196.53 120.344 196.177 120.661 195.767 120.885C195.357 121.109 194.897 121.222 194.389 121.222C193.645 121.222 193.032 121.033 192.551 120.655C192.075 120.272 191.719 119.739 191.484 119.055C191.249 118.372 191.131 117.576 191.131 116.668C191.131 115.787 191.268 115.005 191.541 114.321C191.815 113.632 192.206 113.09 192.715 112.696C193.223 112.303 193.836 112.106 194.553 112.106C195.444 112.106 196.172 112.42 196.735 113.049V108.651ZM195.037 113.517C194.419 113.517 193.937 113.774 193.593 114.288C193.248 114.797 193.076 115.59 193.076 116.668C193.076 117.773 193.232 118.574 193.543 119.072C193.861 119.564 194.304 119.81 194.873 119.81C195.288 119.81 195.649 119.69 195.956 119.449C196.262 119.209 196.522 118.919 196.735 118.579V114.477C196.522 114.171 196.273 113.935 195.989 113.771C195.704 113.602 195.387 113.517 195.037 113.517ZM204.643 119.81C205.217 119.81 205.674 119.709 206.013 119.507C206.352 119.299 206.522 119.014 206.522 118.653C206.522 118.418 206.472 118.218 206.374 118.054C206.275 117.89 206.078 117.737 205.783 117.595C205.488 117.453 205.039 117.305 204.437 117.152C203.869 117.004 203.368 116.829 202.936 116.627C202.509 116.424 202.178 116.162 201.943 115.839C201.708 115.516 201.59 115.101 201.59 114.592C201.59 113.848 201.899 113.249 202.517 112.795C203.141 112.335 203.986 112.106 205.053 112.106C205.78 112.106 206.415 112.201 206.956 112.393C207.498 112.584 207.96 112.822 208.343 113.107L207.572 114.264C207.233 114.039 206.861 113.856 206.456 113.714C206.057 113.572 205.605 113.501 205.102 113.501C204.517 113.501 204.096 113.588 203.838 113.763C203.587 113.938 203.461 114.171 203.461 114.461C203.461 114.679 203.524 114.86 203.65 115.002C203.781 115.144 204.005 115.278 204.323 115.404C204.64 115.53 205.088 115.672 205.668 115.831C206.232 115.984 206.721 116.164 207.137 116.372C207.558 116.58 207.884 116.856 208.113 117.201C208.349 117.54 208.466 117.983 208.466 118.53C208.466 119.154 208.286 119.665 207.925 120.065C207.564 120.458 207.093 120.751 206.513 120.943C205.933 121.129 205.31 121.222 204.643 121.222C203.838 121.222 203.144 121.107 202.558 120.877C201.973 120.642 201.481 120.349 201.082 119.999L202.058 118.883C202.397 119.157 202.785 119.381 203.223 119.556C203.661 119.725 204.134 119.81 204.643 119.81ZM215.512 119.712C215.917 119.712 216.294 119.641 216.644 119.498C216.994 119.356 217.328 119.176 217.645 118.957L218.499 120.138C218.121 120.461 217.662 120.724 217.12 120.926C216.584 121.123 216.029 121.222 215.454 121.222C214.568 121.222 213.808 121.036 213.173 120.664C212.544 120.286 212.063 119.761 211.729 119.088C211.401 118.41 211.237 117.617 211.237 116.709C211.237 115.828 211.404 115.043 211.738 114.354C212.077 113.659 212.564 113.112 213.198 112.713C213.833 112.308 214.596 112.106 215.487 112.106C216.647 112.106 217.648 112.453 218.49 113.148L217.645 114.305C217.306 114.069 216.959 113.892 216.603 113.771C216.248 113.645 215.887 113.583 215.52 113.583C214.831 113.583 214.27 113.834 213.838 114.337C213.406 114.841 213.19 115.631 213.19 116.709C213.19 117.792 213.409 118.563 213.846 119.023C214.284 119.482 214.839 119.712 215.512 119.712ZM221.261 121V119.687H222.533V113.64H221.261V112.335H223.936L224.273 114.346C224.595 113.618 224.995 113.066 225.471 112.688C225.952 112.305 226.57 112.114 227.325 112.114C227.582 112.114 227.812 112.136 228.014 112.179C228.222 112.218 228.427 112.27 228.63 112.335L228.318 115.527H227.005V113.763C226.392 113.785 225.864 114.031 225.421 114.502C224.978 114.966 224.628 115.623 224.371 116.471V119.687H226.119V121H221.261ZM234.477 108.093C234.838 108.093 235.128 108.203 235.347 108.422C235.571 108.64 235.684 108.914 235.684 109.242C235.684 109.57 235.571 109.846 235.347 110.071C235.128 110.295 234.838 110.407 234.477 110.407C234.127 110.407 233.84 110.295 233.616 110.071C233.392 109.846 233.279 109.57 233.279 109.242C233.279 108.914 233.392 108.64 233.616 108.422C233.84 108.203 234.127 108.093 234.477 108.093ZM235.757 112.335V119.654H238.112V121H231.327V119.654H233.919V113.681H231.409V112.335H235.757ZM245.092 112.106C245.858 112.106 246.471 112.294 246.93 112.672C247.39 113.044 247.724 113.572 247.931 114.255C248.139 114.934 248.243 115.732 248.243 116.651C248.243 117.532 248.117 118.317 247.866 119.006C247.614 119.695 247.239 120.237 246.742 120.631C246.249 121.025 245.637 121.222 244.904 121.222C243.996 121.222 243.263 120.902 242.705 120.262V124.331L240.867 124.536V112.335H242.467L242.582 113.451C242.91 113.008 243.29 112.675 243.722 112.45C244.154 112.221 244.611 112.106 245.092 112.106ZM244.584 113.525C244.173 113.525 243.81 113.648 243.492 113.894C243.181 114.141 242.918 114.43 242.705 114.764V118.817C243.137 119.463 243.708 119.786 244.42 119.786C245.038 119.786 245.508 119.537 245.831 119.039C246.154 118.541 246.315 117.748 246.315 116.659C246.315 115.549 246.17 114.75 245.88 114.264C245.596 113.771 245.164 113.525 244.584 113.525ZM257.947 120.541C257.63 120.743 257.25 120.907 256.807 121.033C256.364 121.159 255.902 121.222 255.42 121.222C254.414 121.222 253.648 120.962 253.123 120.442C252.603 119.917 252.343 119.228 252.343 118.374V113.673H250.415V112.335H252.343V110.399L254.181 110.177V112.335H257.102L256.897 113.673H254.181V118.358C254.181 118.823 254.296 119.17 254.526 119.4C254.761 119.624 255.144 119.736 255.675 119.736C255.992 119.736 256.282 119.698 256.544 119.622C256.812 119.545 257.059 119.446 257.283 119.326L257.947 120.541ZM261.268 122.748L259.808 122.091L266.782 107.675L268.226 108.356L261.268 122.748ZM14.5426 139V137.687H15.8144V131.64H14.5426V130.335H17.2174L17.5538 132.346C17.8766 131.618 18.2759 131.066 18.7518 130.688C19.2332 130.305 19.8513 130.114 20.6062 130.114C20.8632 130.114 21.093 130.136 21.2954 130.179C21.5032 130.218 21.7084 130.27 21.9108 130.335L21.599 133.527H20.2862V131.763C19.6735 131.785 19.1456 132.031 18.7026 132.502C18.2595 132.966 17.9094 133.623 17.6523 134.471V137.687H19.4V139H14.5426ZM25.8304 135.258C25.8851 136.15 26.134 136.796 26.5771 137.195C27.0256 137.594 27.5644 137.794 28.1935 137.794C28.6147 137.794 29.0058 137.728 29.3668 137.597C29.7333 137.466 30.0998 137.28 30.4663 137.039L31.2622 138.138C30.8574 138.467 30.3843 138.729 29.8427 138.926C29.3012 139.123 28.7214 139.222 28.1032 139.222C27.2007 139.222 26.4376 139.03 25.814 138.647C25.1959 138.264 24.7255 137.731 24.4027 137.047C24.0855 136.363 23.9268 135.573 23.9268 134.676C23.9268 133.806 24.0855 133.029 24.4027 132.346C24.72 131.656 25.174 131.112 25.7648 130.713C26.3555 130.308 27.0612 130.106 27.8817 130.106C29.0304 130.106 29.9385 130.491 30.6058 131.263C31.2786 132.034 31.615 133.092 31.615 134.438C31.615 134.586 31.6096 134.733 31.5986 134.881C31.5932 135.023 31.5849 135.149 31.574 135.258H25.8304ZM27.8981 131.468C27.3238 131.468 26.8479 131.673 26.4704 132.083C26.093 132.493 25.8769 133.133 25.8222 134.003H29.8345C29.8181 133.188 29.6431 132.562 29.3094 132.124C28.9812 131.686 28.5108 131.468 27.8981 131.468ZM40.7696 136.875C40.7696 137.219 40.8215 137.468 40.9254 137.622C41.0294 137.775 41.1962 137.89 41.426 137.966L41.0157 139.213C40.589 139.164 40.2198 139.046 39.908 138.861C39.6017 138.675 39.3719 138.393 39.2188 138.015C38.9015 138.42 38.4995 138.724 38.0126 138.926C37.5258 139.123 37.0061 139.222 36.4537 139.222C35.573 139.222 34.8783 138.975 34.3696 138.483C33.8608 137.985 33.6065 137.334 33.6065 136.53C33.6065 135.617 33.962 134.914 34.6731 134.422C35.3843 133.929 36.4017 133.683 37.7254 133.683H38.9644V133.117C38.9644 132.554 38.7949 132.151 38.4557 131.911C38.1166 131.665 37.6434 131.542 37.0362 131.542C36.7518 131.542 36.4072 131.58 36.0024 131.656C35.5976 131.728 35.1737 131.84 34.7306 131.993L34.2793 130.696C34.8208 130.494 35.3514 130.346 35.8711 130.253C36.3907 130.155 36.8721 130.106 37.3152 130.106C38.4749 130.106 39.3391 130.363 39.908 130.877C40.4824 131.391 40.7696 132.102 40.7696 133.01V136.875ZM37.0116 137.868C37.3836 137.868 37.7473 137.769 38.1029 137.572C38.4584 137.375 38.7456 137.099 38.9644 136.744V134.832H37.947C37.0827 134.832 36.4646 134.977 36.0926 135.267C35.7207 135.551 35.5347 135.945 35.5347 136.448C35.5347 137.395 36.027 137.868 37.0116 137.868ZM48.1682 137.712C48.573 137.712 48.9504 137.641 49.3005 137.498C49.6506 137.356 49.9842 137.176 50.3015 136.957L51.1548 138.138C50.7774 138.461 50.3179 138.724 49.7764 138.926C49.2403 139.123 48.6851 139.222 48.1107 139.222C47.2246 139.222 46.4642 139.036 45.8297 138.664C45.2007 138.286 44.7193 137.761 44.3856 137.088C44.0574 136.41 43.8933 135.617 43.8933 134.709C43.8933 133.828 44.0601 133.043 44.3938 132.354C44.733 131.659 45.2198 131.112 45.8543 130.713C46.4889 130.308 47.2519 130.106 48.1436 130.106C49.3032 130.106 50.3042 130.453 51.1466 131.148L50.3015 132.305C49.9624 132.069 49.615 131.892 49.2595 131.771C48.9039 131.645 48.5429 131.583 48.1764 131.583C47.4871 131.583 46.9265 131.834 46.4943 132.337C46.0622 132.841 45.8461 133.631 45.8461 134.709C45.8461 135.792 46.0649 136.563 46.5025 137.023C46.9401 137.482 47.4954 137.712 48.1682 137.712ZM61.0724 138.541C60.7552 138.743 60.375 138.907 59.9319 139.033C59.4888 139.159 59.0266 139.222 58.5453 139.222C57.5388 139.222 56.7729 138.962 56.2478 138.442C55.7282 137.917 55.4683 137.228 55.4683 136.374V131.673H53.5401V130.335H55.4683V128.399L57.3063 128.177V130.335H60.2273L60.0222 131.673H57.3063V136.358C57.3063 136.823 57.4212 137.17 57.6509 137.4C57.8861 137.624 58.269 137.736 58.7996 137.736C59.1169 137.736 59.4068 137.698 59.6694 137.622C59.9374 137.545 60.1835 137.446 60.4078 137.326L61.0724 138.541ZM63.7531 135.275V133.765H70.5305V135.275H63.7531ZM73.523 139V130.335H75.1066L75.2461 131.459C75.6071 131.022 76.0338 130.688 76.5261 130.458C77.0184 130.223 77.5244 130.106 78.044 130.106C78.8536 130.106 79.4581 130.333 79.8574 130.787C80.2622 131.241 80.4646 131.872 80.4646 132.682V139H78.6266V133.593C78.6266 132.843 78.55 132.31 78.3969 131.993C78.2492 131.67 77.9128 131.509 77.3876 131.509C76.9664 131.509 76.5808 131.64 76.2307 131.903C75.8861 132.16 75.5962 132.452 75.361 132.781V139H73.523ZM89.9883 136.875C89.9883 137.219 90.0403 137.468 90.1442 137.622C90.2481 137.775 90.415 137.89 90.6447 137.966L90.2345 139.213C89.8078 139.164 89.4386 139.046 89.1268 138.861C88.8204 138.675 88.5907 138.393 88.4375 138.015C88.1203 138.42 87.7182 138.724 87.2314 138.926C86.7445 139.123 86.2249 139.222 85.6724 139.222C84.7917 139.222 84.097 138.975 83.5883 138.483C83.0796 137.985 82.8252 137.334 82.8252 136.53C82.8252 135.617 83.1808 134.914 83.8919 134.422C84.603 133.929 85.6204 133.683 86.9442 133.683H88.1832V133.117C88.1832 132.554 88.0136 132.151 87.6745 131.911C87.3353 131.665 86.8621 131.542 86.255 131.542C85.9705 131.542 85.6259 131.58 85.2211 131.656C84.8163 131.728 84.3924 131.84 83.9493 131.993L83.498 130.696C84.0396 130.494 84.5702 130.346 85.0898 130.253C85.6095 130.155 86.0909 130.106 86.5339 130.106C87.6936 130.106 88.5579 130.363 89.1268 130.877C89.7011 131.391 89.9883 132.102 89.9883 133.01V136.875ZM86.2304 137.868C86.6023 137.868 86.9661 137.769 87.3216 137.572C87.6772 137.375 87.9644 137.099 88.1832 136.744V134.832H87.1657C86.3015 134.832 85.6833 134.977 85.3114 135.267C84.9394 135.551 84.7534 135.945 84.7534 136.448C84.7534 137.395 85.2457 137.868 86.2304 137.868ZM100.447 138.541C100.13 138.743 99.75 138.907 99.3069 139.033C98.8638 139.159 98.4016 139.222 97.9203 139.222C96.9138 139.222 96.1479 138.962 95.6228 138.442C95.1032 137.917 94.8433 137.228 94.8433 136.374V131.673H92.9151V130.335H94.8433V128.399L96.6813 128.177V130.335H99.6023L99.3972 131.673H96.6813V136.358C96.6813 136.823 96.7962 137.17 97.0259 137.4C97.2611 137.624 97.644 137.736 98.1746 137.736C98.4919 137.736 98.7818 137.698 99.0444 137.622C99.3124 137.545 99.5585 137.446 99.7828 137.326L100.447 138.541ZM106.509 126.093C106.87 126.093 107.16 126.203 107.378 126.422C107.603 126.64 107.715 126.914 107.715 127.242C107.715 127.57 107.603 127.846 107.378 128.071C107.16 128.295 106.87 128.407 106.509 128.407C106.159 128.407 105.871 128.295 105.647 128.071C105.423 127.846 105.311 127.57 105.311 127.242C105.311 126.914 105.423 126.64 105.647 126.422C105.871 126.203 106.159 126.093 106.509 126.093ZM107.789 130.335V137.654H110.143V139H103.358V137.654H105.951V131.681H103.44V130.335H107.789ZM120.488 130.335L117.435 139H115.286L112.233 130.335H114.203L116.402 137.474L118.609 130.335H120.488ZM124.268 135.258C124.323 136.15 124.572 136.796 125.015 137.195C125.463 137.594 126.002 137.794 126.631 137.794C127.052 137.794 127.443 137.728 127.804 137.597C128.171 137.466 128.537 137.28 128.904 137.039L129.7 138.138C129.295 138.467 128.822 138.729 128.28 138.926C127.739 139.123 127.159 139.222 126.541 139.222C125.638 139.222 124.875 139.03 124.252 138.647C123.633 138.264 123.163 137.731 122.84 137.047C122.523 136.363 122.364 135.573 122.364 134.676C122.364 133.806 122.523 133.029 122.84 132.346C123.157 131.656 123.612 131.112 124.202 130.713C124.793 130.308 125.499 130.106 126.319 130.106C127.468 130.106 128.376 130.491 129.043 131.263C129.716 132.034 130.053 133.092 130.053 134.438C130.053 134.586 130.047 134.733 130.036 134.881C130.031 135.023 130.022 135.149 130.012 135.258H124.268ZM126.336 131.468C125.761 131.468 125.285 131.673 124.908 132.083C124.53 132.493 124.314 133.133 124.26 134.003H128.272C128.256 133.188 128.081 132.562 127.747 132.124C127.419 131.686 126.948 131.468 126.336 131.468ZM133.299 140.748L131.839 140.091L138.813 125.675L140.257 126.356L133.299 140.748ZM176.186 130.106C176.952 130.106 177.565 130.294 178.024 130.672C178.484 131.044 178.817 131.572 179.025 132.255C179.233 132.934 179.337 133.732 179.337 134.651C179.337 135.532 179.211 136.317 178.959 137.006C178.708 137.695 178.333 138.237 177.835 138.631C177.343 139.025 176.73 139.222 175.997 139.222C175.089 139.222 174.356 138.902 173.798 138.262V142.331L171.961 142.536V130.335H173.561L173.675 131.451C174.004 131.008 174.384 130.675 174.816 130.45C175.248 130.221 175.705 130.106 176.186 130.106ZM175.677 131.525C175.267 131.525 174.903 131.648 174.586 131.894C174.274 132.141 174.012 132.43 173.798 132.764V136.817C174.231 137.463 174.802 137.786 175.513 137.786C176.131 137.786 176.602 137.537 176.925 137.039C177.247 136.541 177.409 135.748 177.409 134.659C177.409 133.549 177.264 132.75 176.974 132.264C176.689 131.771 176.257 131.525 175.677 131.525ZM183.642 126.676V131.394C183.992 130.967 184.4 130.647 184.865 130.434C185.335 130.215 185.822 130.106 186.325 130.106C187.14 130.106 187.748 130.333 188.147 130.787C188.546 131.241 188.746 131.872 188.746 132.682V139H186.908V132.969C186.908 132.45 186.809 132.078 186.612 131.853C186.416 131.624 186.098 131.509 185.661 131.509C185.25 131.509 184.87 131.643 184.52 131.911C184.17 132.173 183.877 132.471 183.642 132.805V139H181.804V126.873L183.642 126.676ZM195.119 130.106C196.388 130.106 197.356 130.519 198.023 131.345C198.691 132.171 199.024 133.273 199.024 134.651C199.024 135.57 198.871 136.372 198.565 137.055C198.264 137.739 197.821 138.272 197.236 138.655C196.656 139.033 195.947 139.222 195.111 139.222C193.847 139.222 192.879 138.814 192.206 137.999C191.533 137.178 191.197 136.068 191.197 134.668C191.197 133.771 191.347 132.98 191.648 132.296C191.954 131.607 192.4 131.071 192.985 130.688C193.571 130.3 194.282 130.106 195.119 130.106ZM195.119 131.533C194.457 131.533 193.959 131.788 193.625 132.296C193.292 132.8 193.125 133.59 193.125 134.668C193.125 135.745 193.289 136.538 193.617 137.047C193.951 137.55 194.449 137.802 195.111 137.802C195.772 137.802 196.267 137.548 196.596 137.039C196.929 136.53 197.096 135.734 197.096 134.651C197.096 133.585 196.932 132.8 196.604 132.296C196.276 131.788 195.781 131.533 195.119 131.533ZM208.729 138.541C208.411 138.743 208.031 138.907 207.588 139.033C207.145 139.159 206.683 139.222 206.202 139.222C205.195 139.222 204.429 138.962 203.904 138.442C203.384 137.917 203.125 137.228 203.125 136.374V131.673H201.196V130.335H203.125V128.399L204.963 128.177V130.335H207.884L207.678 131.673H204.963V136.358C204.963 136.823 205.077 137.17 205.307 137.4C205.542 137.624 205.925 137.736 206.456 137.736C206.773 137.736 207.063 137.698 207.326 137.622C207.594 137.545 207.84 137.446 208.064 137.326L208.729 138.541ZM214.806 130.106C216.075 130.106 217.044 130.519 217.711 131.345C218.378 132.171 218.712 133.273 218.712 134.651C218.712 135.57 218.559 136.372 218.252 137.055C217.952 137.739 217.509 138.272 216.923 138.655C216.343 139.033 215.635 139.222 214.798 139.222C213.534 139.222 212.566 138.814 211.893 137.999C211.221 137.178 210.884 136.068 210.884 134.668C210.884 133.771 211.035 132.98 211.336 132.296C211.642 131.607 212.088 131.071 212.673 130.688C213.258 130.3 213.969 130.106 214.806 130.106ZM214.806 131.533C214.144 131.533 213.647 131.788 213.313 132.296C212.979 132.8 212.812 133.59 212.812 134.668C212.812 135.745 212.977 136.538 213.305 137.047C213.638 137.55 214.136 137.802 214.798 137.802C215.46 137.802 215.955 137.548 216.283 137.039C216.617 136.53 216.784 135.734 216.784 134.651C216.784 133.585 216.62 132.8 216.291 132.296C215.963 131.788 215.468 131.533 214.806 131.533ZM224.33 137.81C224.904 137.81 225.361 137.709 225.7 137.507C226.039 137.299 226.209 137.014 226.209 136.653C226.209 136.418 226.16 136.218 226.061 136.054C225.963 135.89 225.766 135.737 225.471 135.595C225.175 135.453 224.727 135.305 224.125 135.152C223.556 135.004 223.056 134.829 222.623 134.627C222.197 134.424 221.866 134.162 221.631 133.839C221.395 133.516 221.278 133.101 221.278 132.592C221.278 131.848 221.587 131.249 222.205 130.795C222.828 130.335 223.674 130.106 224.74 130.106C225.468 130.106 226.102 130.201 226.644 130.393C227.185 130.584 227.648 130.822 228.031 131.107L227.259 132.264C226.92 132.039 226.548 131.856 226.143 131.714C225.744 131.572 225.293 131.501 224.79 131.501C224.204 131.501 223.783 131.588 223.526 131.763C223.274 131.938 223.148 132.171 223.148 132.461C223.148 132.679 223.211 132.86 223.337 133.002C223.468 133.144 223.693 133.278 224.01 133.404C224.327 133.53 224.776 133.672 225.356 133.831C225.919 133.984 226.409 134.164 226.824 134.372C227.246 134.58 227.571 134.856 227.801 135.201C228.036 135.54 228.154 135.983 228.154 136.53C228.154 137.154 227.973 137.665 227.612 138.065C227.251 138.458 226.781 138.751 226.201 138.943C225.621 139.129 224.997 139.222 224.33 139.222C223.526 139.222 222.831 139.107 222.246 138.877C221.661 138.642 221.168 138.349 220.769 137.999L221.745 136.883C222.085 137.157 222.473 137.381 222.911 137.556C223.348 137.725 223.821 137.81 224.33 137.81ZM232.861 126.676V131.394C233.211 130.967 233.619 130.647 234.084 130.434C234.554 130.215 235.041 130.106 235.544 130.106C236.359 130.106 236.966 130.333 237.366 130.787C237.765 131.241 237.965 131.872 237.965 132.682V139H236.127V132.969C236.127 132.45 236.028 132.078 235.831 131.853C235.634 131.624 235.317 131.509 234.879 131.509C234.469 131.509 234.089 131.643 233.739 131.911C233.389 132.173 233.096 132.471 232.861 132.805V139H231.023V126.873L232.861 126.676ZM244.338 130.106C245.607 130.106 246.575 130.519 247.242 131.345C247.909 132.171 248.243 133.273 248.243 134.651C248.243 135.57 248.09 136.372 247.784 137.055C247.483 137.739 247.04 138.272 246.454 138.655C245.875 139.033 245.166 139.222 244.329 139.222C243.066 139.222 242.098 138.814 241.425 137.999C240.752 137.178 240.415 136.068 240.415 134.668C240.415 133.771 240.566 132.98 240.867 132.296C241.173 131.607 241.619 131.071 242.204 130.688C242.789 130.3 243.501 130.106 244.338 130.106ZM244.338 131.533C243.676 131.533 243.178 131.788 242.844 132.296C242.511 132.8 242.344 133.59 242.344 134.668C242.344 135.745 242.508 136.538 242.836 137.047C243.17 137.55 243.667 137.802 244.329 137.802C244.991 137.802 245.486 137.548 245.814 137.039C246.148 136.53 246.315 135.734 246.315 134.651C246.315 133.585 246.151 132.8 245.823 132.296C245.494 131.788 244.999 131.533 244.338 131.533ZM254.936 130.106C255.702 130.106 256.315 130.294 256.774 130.672C257.234 131.044 257.567 131.572 257.775 132.255C257.983 132.934 258.087 133.732 258.087 134.651C258.087 135.532 257.961 136.317 257.709 137.006C257.458 137.695 257.083 138.237 256.585 138.631C256.093 139.025 255.48 139.222 254.747 139.222C253.839 139.222 253.106 138.902 252.548 138.262V142.331L250.711 142.536V130.335H252.311L252.425 131.451C252.754 131.008 253.134 130.675 253.566 130.45C253.998 130.221 254.455 130.106 254.936 130.106ZM254.427 131.525C254.017 131.525 253.653 131.648 253.336 131.894C253.024 132.141 252.762 132.43 252.548 132.764V136.817C252.981 137.463 253.552 137.786 254.263 137.786C254.881 137.786 255.352 137.537 255.675 137.039C255.997 136.541 256.159 135.748 256.159 134.659C256.159 133.549 256.014 132.75 255.724 132.264C255.439 131.771 255.007 131.525 254.427 131.525ZM261.268 140.748L259.808 140.091L266.782 125.675L268.226 126.356L261.268 140.748ZM19.7282 144.651C20.2588 144.651 20.732 144.698 21.1477 144.791C21.5689 144.878 21.9573 144.999 22.3128 145.152L21.7713 146.424C21.4814 146.303 21.1778 146.216 20.8605 146.161C20.5487 146.106 20.2315 146.079 19.9087 146.079C18.7928 146.079 18.2349 146.528 18.2349 147.425V148.959H21.1313L20.9344 150.313H18.2349V157H16.4051V150.313H14.4359V148.959H16.4051V147.408C16.4051 146.588 16.7087 145.923 17.3159 145.414C17.9231 144.906 18.7272 144.651 19.7282 144.651ZM27.7586 144.618C28.1196 144.618 28.4096 144.731 28.6284 144.955C28.8526 145.174 28.9648 145.444 28.9648 145.767C28.9648 146.101 28.8526 146.38 28.6284 146.604C28.4096 146.828 28.1196 146.941 27.7586 146.941C27.4085 146.941 27.1214 146.828 26.8971 146.604C26.6728 146.38 26.5607 146.101 26.5607 145.767C26.5607 145.444 26.6728 145.174 26.8971 144.955C27.1214 144.731 27.4085 144.618 27.7586 144.618ZM29.0386 148.959V155.654H31.3935V157H24.6079V155.654H27.2007V150.313H24.6899V148.959H29.0386ZM41.4424 147.236L41.9347 148.762C41.5901 148.877 41.2099 148.954 40.7942 148.992C40.3839 149.03 39.9244 149.049 39.4157 149.049C39.9354 149.279 40.3265 149.574 40.589 149.935C40.8516 150.291 40.9829 150.729 40.9829 151.248C40.9829 151.812 40.8461 152.315 40.5726 152.758C40.2991 153.201 39.9053 153.548 39.3911 153.8C38.8824 154.052 38.2752 154.177 37.5696 154.177C37.3179 154.177 37.0991 154.166 36.9131 154.145C36.7326 154.123 36.5549 154.087 36.3798 154.038C36.1227 154.208 35.9942 154.445 35.9942 154.752C35.9942 154.927 36.0653 155.08 36.2075 155.211C36.3552 155.337 36.6451 155.4 37.0772 155.4H38.587C39.2051 155.4 39.7494 155.507 40.2198 155.72C40.6957 155.928 41.0677 156.215 41.3357 156.582C41.6092 156.943 41.746 157.353 41.746 157.812C41.746 158.677 41.374 159.347 40.6301 159.823C39.8861 160.298 38.814 160.536 37.4137 160.536C36.4181 160.536 35.6386 160.435 35.0752 160.233C34.5172 160.03 34.1234 159.73 33.8937 159.33C33.6639 158.931 33.549 158.441 33.549 157.862H35.1983C35.1983 158.168 35.2557 158.419 35.3706 158.616C35.4909 158.813 35.7125 158.958 36.0352 159.051C36.3579 159.15 36.8229 159.199 37.4301 159.199C38.3326 159.199 38.9699 159.087 39.3419 158.863C39.7138 158.644 39.8998 158.335 39.8998 157.935C39.8998 157.58 39.7466 157.306 39.4403 157.115C39.134 156.929 38.7237 156.836 38.2096 156.836H36.7244C35.9039 156.836 35.3022 156.669 34.9193 156.335C34.5419 156.002 34.3531 155.613 34.3531 155.17C34.3531 154.547 34.6759 154.024 35.3213 153.603C34.8017 153.33 34.4215 152.999 34.1808 152.61C33.9456 152.216 33.828 151.741 33.828 151.183C33.828 150.57 33.9812 150.034 34.2875 149.574C34.5938 149.115 35.0178 148.757 35.5593 148.499C36.1063 148.242 36.7354 148.114 37.4465 148.114C38.1412 148.119 38.721 148.084 39.186 148.007C39.6509 147.931 40.0557 147.827 40.4003 147.695C40.7504 147.559 41.0978 147.405 41.4424 147.236ZM37.4629 149.377C36.8776 149.377 36.4372 149.544 36.1419 149.878C35.8465 150.206 35.6988 150.636 35.6988 151.166C35.6988 151.713 35.8492 152.154 36.1501 152.487C36.4509 152.815 36.8967 152.979 37.4875 152.979C38.029 152.979 38.442 152.821 38.7265 152.504C39.0164 152.186 39.1613 151.735 39.1613 151.15C39.1613 149.968 38.5952 149.377 37.4629 149.377ZM49.9651 148.106C50.2933 148.106 50.5887 148.177 50.8512 148.319C51.1138 148.461 51.3189 148.713 51.4666 149.074C51.6198 149.429 51.6964 149.924 51.6964 150.559V157H50.0636V150.813C50.0636 150.359 50.0307 150.034 49.9651 149.837C49.9049 149.64 49.7436 149.542 49.481 149.542C49.2731 149.542 49.0598 149.607 48.841 149.738C48.6277 149.864 48.4143 150.083 48.201 150.395V157H46.7159V150.813C46.7159 150.359 46.683 150.034 46.6174 149.837C46.5572 149.64 46.3959 149.542 46.1333 149.542C45.92 149.542 45.7066 149.607 45.4933 149.738C45.28 149.864 45.0666 150.083 44.8533 150.395V157H43.2123V148.335H44.5989L44.722 149.271C44.9682 148.926 45.2335 148.647 45.5179 148.434C45.8078 148.215 46.1607 148.106 46.5764 148.106C46.9046 148.106 47.2027 148.188 47.4707 148.352C47.7388 148.51 47.9357 148.798 48.0615 149.213C48.3077 148.885 48.5812 148.62 48.882 148.417C49.1829 148.21 49.5439 148.106 49.9651 148.106ZM60.4571 154.875C60.4571 155.219 60.509 155.468 60.6129 155.622C60.7169 155.775 60.8837 155.89 61.1135 155.966L60.7032 157.213C60.2765 157.164 59.9073 157.046 59.5955 156.861C59.2892 156.675 59.0594 156.393 58.9063 156.015C58.589 156.42 58.187 156.724 57.7001 156.926C57.2133 157.123 56.6936 157.222 56.1412 157.222C55.2605 157.222 54.5658 156.975 54.0571 156.483C53.5483 155.985 53.294 155.334 53.294 154.53C53.294 153.617 53.6495 152.914 54.3606 152.422C55.0718 151.929 56.0892 151.683 57.4129 151.683H58.6519V151.117C58.6519 150.554 58.4824 150.151 58.1432 149.911C57.8041 149.665 57.3309 149.542 56.7237 149.542C56.4393 149.542 56.0947 149.58 55.6899 149.656C55.2851 149.728 54.8612 149.84 54.4181 149.993L53.9668 148.696C54.5083 148.494 55.0389 148.346 55.5586 148.253C56.0782 148.155 56.5596 148.106 57.0027 148.106C58.1624 148.106 59.0266 148.363 59.5955 148.877C60.1699 149.391 60.4571 150.102 60.4571 151.01V154.875ZM56.6991 155.868C57.0711 155.868 57.4348 155.769 57.7904 155.572C58.1459 155.375 58.4331 155.099 58.6519 154.744V152.832H57.6345C56.7702 152.832 56.1521 152.977 55.7801 153.267C55.4082 153.551 55.2222 153.945 55.2222 154.448C55.2222 155.395 55.7145 155.868 56.6991 155.868ZM64.3931 158.748L62.9326 158.091L69.907 143.675L71.3511 144.356L64.3931 158.748ZM106.509 144.093C106.87 144.093 107.16 144.203 107.378 144.422C107.603 144.64 107.715 144.914 107.715 145.242C107.715 145.57 107.603 145.846 107.378 146.071C107.16 146.295 106.87 146.407 106.509 146.407C106.159 146.407 105.871 146.295 105.647 146.071C105.423 145.846 105.311 145.57 105.311 145.242C105.311 144.914 105.423 144.64 105.647 144.422C105.871 144.203 106.159 144.093 106.509 144.093ZM107.789 148.335V155.654H110.143V157H103.358V155.654H105.951V149.681H103.44V148.335H107.789ZM116.705 144.856V154.637C116.705 155.036 116.826 155.321 117.066 155.49C117.312 155.654 117.63 155.736 118.018 155.736C118.264 155.736 118.499 155.712 118.724 155.663C118.953 155.608 119.175 155.537 119.388 155.449L119.856 156.729C119.599 156.861 119.282 156.975 118.904 157.074C118.532 157.172 118.106 157.222 117.624 157.222C116.754 157.222 116.076 156.975 115.589 156.483C115.108 155.991 114.867 155.321 114.867 154.473V146.21H112.25V144.856H116.705ZM126.549 144.856V154.637C126.549 155.036 126.669 155.321 126.91 155.49C127.156 155.654 127.473 155.736 127.862 155.736C128.108 155.736 128.343 155.712 128.567 155.663C128.797 155.608 129.019 155.537 129.232 155.449L129.7 156.729C129.443 156.861 129.125 156.975 128.748 157.074C128.376 157.172 127.949 157.222 127.468 157.222C126.598 157.222 125.92 156.975 125.433 156.483C124.952 155.991 124.711 155.321 124.711 154.473V146.21H122.094V144.856H126.549ZM134.423 148.335V154.391C134.423 154.905 134.525 155.271 134.727 155.49C134.935 155.709 135.247 155.818 135.662 155.818C136.056 155.818 136.436 155.701 136.803 155.466C137.169 155.23 137.459 154.943 137.673 154.604V148.335H139.511V157H137.927L137.812 155.892C137.489 156.324 137.082 156.655 136.59 156.885C136.097 157.109 135.594 157.222 135.08 157.222C134.237 157.222 133.611 156.992 133.201 156.532C132.791 156.067 132.586 155.43 132.586 154.621V148.335H134.423ZM145.58 155.81C146.154 155.81 146.611 155.709 146.95 155.507C147.289 155.299 147.459 155.014 147.459 154.653C147.459 154.418 147.41 154.218 147.311 154.054C147.213 153.89 147.016 153.737 146.721 153.595C146.425 153.453 145.977 153.305 145.375 153.152C144.806 153.004 144.306 152.829 143.873 152.627C143.447 152.424 143.116 152.162 142.881 151.839C142.645 151.516 142.528 151.101 142.528 150.592C142.528 149.848 142.837 149.249 143.455 148.795C144.078 148.335 144.924 148.106 145.99 148.106C146.718 148.106 147.352 148.201 147.894 148.393C148.435 148.584 148.898 148.822 149.281 149.107L148.509 150.264C148.17 150.039 147.798 149.856 147.393 149.714C146.994 149.572 146.543 149.501 146.04 149.501C145.454 149.501 145.033 149.588 144.776 149.763C144.524 149.938 144.398 150.171 144.398 150.461C144.398 150.679 144.461 150.86 144.587 151.002C144.718 151.144 144.943 151.278 145.26 151.404C145.577 151.53 146.026 151.672 146.606 151.831C147.169 151.984 147.659 152.164 148.074 152.372C148.496 152.58 148.821 152.856 149.051 153.201C149.286 153.54 149.404 153.983 149.404 154.53C149.404 155.154 149.223 155.665 148.862 156.065C148.501 156.458 148.031 156.751 147.451 156.943C146.871 157.129 146.247 157.222 145.58 157.222C144.776 157.222 144.081 157.107 143.496 156.877C142.911 156.642 142.418 156.349 142.019 155.999L142.995 154.883C143.335 155.157 143.723 155.381 144.161 155.556C144.598 155.725 145.071 155.81 145.58 155.81ZM159.51 156.541C159.193 156.743 158.812 156.907 158.369 157.033C157.926 157.159 157.464 157.222 156.983 157.222C155.976 157.222 155.21 156.962 154.685 156.442C154.166 155.917 153.906 155.228 153.906 154.374V149.673H151.978V148.335H153.906V146.399L155.744 146.177V148.335H158.665L158.46 149.673H155.744V154.358C155.744 154.823 155.859 155.17 156.088 155.4C156.324 155.624 156.707 155.736 157.237 155.736C157.554 155.736 157.844 155.698 158.107 155.622C158.375 155.545 158.621 155.446 158.845 155.326L159.51 156.541ZM162.199 157V155.687H163.471V149.64H162.199V148.335H164.874L165.21 150.346C165.533 149.618 165.932 149.066 166.408 148.688C166.889 148.305 167.508 148.114 168.262 148.114C168.519 148.114 168.749 148.136 168.952 148.179C169.159 148.218 169.365 148.27 169.567 148.335L169.255 151.527H167.942V149.763C167.33 149.785 166.802 150.031 166.359 150.502C165.916 150.966 165.566 151.623 165.309 152.471V155.687H167.056V157H162.199ZM178.582 154.875C178.582 155.219 178.634 155.468 178.738 155.622C178.842 155.775 179.009 155.89 179.238 155.966L178.828 157.213C178.402 157.164 178.032 157.046 177.721 156.861C177.414 156.675 177.184 156.393 177.031 156.015C176.714 156.42 176.312 156.724 175.825 156.926C175.338 157.123 174.819 157.222 174.266 157.222C173.385 157.222 172.691 156.975 172.182 156.483C171.673 155.985 171.419 155.334 171.419 154.53C171.419 153.617 171.775 152.914 172.486 152.422C173.197 151.929 174.214 151.683 175.538 151.683H176.777V151.117C176.777 150.554 176.607 150.151 176.268 149.911C175.929 149.665 175.456 149.542 174.849 149.542C174.564 149.542 174.22 149.58 173.815 149.656C173.41 149.728 172.986 149.84 172.543 149.993L172.092 148.696C172.633 148.494 173.164 148.346 173.684 148.253C174.203 148.155 174.685 148.106 175.128 148.106C176.287 148.106 177.152 148.363 177.721 148.877C178.295 149.391 178.582 150.102 178.582 151.01V154.875ZM174.824 155.868C175.196 155.868 175.56 155.769 175.915 155.572C176.271 155.375 176.558 155.099 176.777 154.744V152.832H175.759C174.895 152.832 174.277 152.977 173.905 153.267C173.533 153.551 173.347 153.945 173.347 154.448C173.347 155.395 173.839 155.868 174.824 155.868ZM189.041 156.541C188.724 156.743 188.344 156.907 187.901 157.033C187.458 157.159 186.995 157.222 186.514 157.222C185.508 157.222 184.742 156.962 184.217 156.442C183.697 155.917 183.437 155.228 183.437 154.374V149.673H181.509V148.335H183.437V146.399L185.275 146.177V148.335H188.196L187.991 149.673H185.275V154.358C185.275 154.823 185.39 155.17 185.62 155.4C185.855 155.624 186.238 155.736 186.768 155.736C187.086 155.736 187.376 155.698 187.638 155.622C187.906 155.545 188.152 155.446 188.377 155.326L189.041 156.541ZM195.119 148.106C196.388 148.106 197.356 148.519 198.023 149.345C198.691 150.171 199.024 151.273 199.024 152.651C199.024 153.57 198.871 154.372 198.565 155.055C198.264 155.739 197.821 156.272 197.236 156.655C196.656 157.033 195.947 157.222 195.111 157.222C193.847 157.222 192.879 156.814 192.206 155.999C191.533 155.178 191.197 154.068 191.197 152.668C191.197 151.771 191.347 150.98 191.648 150.296C191.954 149.607 192.4 149.071 192.985 148.688C193.571 148.3 194.282 148.106 195.119 148.106ZM195.119 149.533C194.457 149.533 193.959 149.788 193.625 150.296C193.292 150.8 193.125 151.59 193.125 152.668C193.125 153.745 193.289 154.538 193.617 155.047C193.951 155.55 194.449 155.802 195.111 155.802C195.772 155.802 196.267 155.548 196.596 155.039C196.929 154.53 197.096 153.734 197.096 152.651C197.096 151.585 196.932 150.8 196.604 150.296C196.276 149.788 195.781 149.533 195.119 149.533ZM201.574 157V155.687H202.846V149.64H201.574V148.335H204.249L204.585 150.346C204.908 149.618 205.307 149.066 205.783 148.688C206.264 148.305 206.883 148.114 207.637 148.114C207.894 148.114 208.124 148.136 208.327 148.179C208.534 148.218 208.74 148.27 208.942 148.335L208.63 151.527H207.317V149.763C206.705 149.785 206.177 150.031 205.734 150.502C205.291 150.966 204.941 151.623 204.684 152.471V155.687H206.431V157H201.574ZM212.049 158.748L210.589 158.091L217.563 143.675L219.007 144.356L212.049 158.748ZM18.6862 166.106C19.452 166.106 20.0646 166.294 20.5241 166.672C20.9836 167.044 21.3173 167.572 21.5251 168.255C21.733 168.934 21.8369 169.732 21.8369 170.651C21.8369 171.532 21.7111 172.317 21.4595 173.006C21.2079 173.695 20.8332 174.237 20.3354 174.631C19.8431 175.025 19.2304 175.222 18.4974 175.222C17.5894 175.222 16.8564 174.902 16.2985 174.262V178.331L14.4605 178.536V166.335H16.0605L16.1754 167.451C16.5036 167.008 16.8838 166.675 17.3159 166.45C17.748 166.221 18.2048 166.106 18.6862 166.106ZM18.1774 167.525C17.7672 167.525 17.4034 167.648 17.0862 167.894C16.7744 168.141 16.5118 168.43 16.2985 168.764V172.817C16.7306 173.463 17.3022 173.786 18.0133 173.786C18.6315 173.786 19.1019 173.537 19.4246 173.039C19.7474 172.541 19.9087 171.748 19.9087 170.659C19.9087 169.549 19.7638 168.75 19.4738 168.264C19.1894 167.771 18.7573 167.525 18.1774 167.525ZM24.3863 175V173.687H25.6581V167.64H24.3863V166.335H27.0612L27.3976 168.346C27.7203 167.618 28.1196 167.066 28.5955 166.688C29.0769 166.305 29.695 166.114 30.4499 166.114C30.707 166.114 30.9367 166.136 31.1391 166.179C31.347 166.218 31.5521 166.27 31.7545 166.335L31.4427 169.527H30.1299V167.763C29.5173 167.785 28.9894 168.031 28.5463 168.502C28.1032 168.966 27.7532 169.623 27.4961 170.471V173.687H29.2437V175H24.3863ZM35.6742 171.258C35.7289 172.15 35.9778 172.796 36.4208 173.195C36.8694 173.594 37.4082 173.794 38.0372 173.794C38.4584 173.794 38.8496 173.728 39.2106 173.597C39.5771 173.466 39.9436 173.28 40.3101 173.039L41.106 174.138C40.7012 174.467 40.228 174.729 39.6865 174.926C39.1449 175.123 38.5651 175.222 37.947 175.222C37.0444 175.222 36.2813 175.03 35.6578 174.647C35.0396 174.264 34.5692 173.731 34.2465 173.047C33.9292 172.363 33.7706 171.573 33.7706 170.676C33.7706 169.806 33.9292 169.029 34.2465 168.346C34.5637 167.656 35.0178 167.112 35.6085 166.713C36.1993 166.308 36.9049 166.106 37.7254 166.106C38.8742 166.106 39.7822 166.491 40.4496 167.263C41.1224 168.034 41.4588 169.092 41.4588 170.438C41.4588 170.586 41.4533 170.733 41.4424 170.881C41.4369 171.023 41.4287 171.149 41.4178 171.258H35.6742ZM37.7419 167.468C37.1675 167.468 36.6916 167.673 36.3142 168.083C35.9367 168.493 35.7207 169.133 35.666 170.003H39.6783C39.6619 169.188 39.4868 168.562 39.1531 168.124C38.8249 167.686 38.3545 167.468 37.7419 167.468ZM49.9651 166.106C50.2933 166.106 50.5887 166.177 50.8512 166.319C51.1138 166.461 51.3189 166.713 51.4666 167.074C51.6198 167.429 51.6964 167.924 51.6964 168.559V175H50.0636V168.813C50.0636 168.359 50.0307 168.034 49.9651 167.837C49.9049 167.64 49.7436 167.542 49.481 167.542C49.2731 167.542 49.0598 167.607 48.841 167.738C48.6277 167.864 48.4143 168.083 48.201 168.395V175H46.7159V168.813C46.7159 168.359 46.683 168.034 46.6174 167.837C46.5572 167.64 46.3959 167.542 46.1333 167.542C45.92 167.542 45.7066 167.607 45.4933 167.738C45.28 167.864 45.0666 168.083 44.8533 168.395V175H43.2123V166.335H44.5989L44.722 167.271C44.9682 166.926 45.2335 166.647 45.5179 166.434C45.8078 166.215 46.1607 166.106 46.5764 166.106C46.9046 166.106 47.2027 166.188 47.4707 166.352C47.7388 166.51 47.9357 166.798 48.0615 167.213C48.3077 166.885 48.5812 166.62 48.882 166.417C49.1829 166.21 49.5439 166.106 49.9651 166.106ZM57.2899 162.093C57.6509 162.093 57.9408 162.203 58.1596 162.422C58.3839 162.64 58.496 162.914 58.496 163.242C58.496 163.57 58.3839 163.846 58.1596 164.071C57.9408 164.295 57.6509 164.407 57.2899 164.407C56.9398 164.407 56.6526 164.295 56.4283 164.071C56.2041 163.846 56.0919 163.57 56.0919 163.242C56.0919 162.914 56.2041 162.64 56.4283 162.422C56.6526 162.203 56.9398 162.093 57.2899 162.093ZM58.5699 166.335V173.654H60.9247V175H54.1391V173.654H56.7319V167.681H54.2212V166.335H58.5699ZM65.2054 171.258C65.2601 172.15 65.509 172.796 65.9521 173.195C66.4006 173.594 66.9394 173.794 67.5685 173.794C67.9897 173.794 68.3808 173.728 68.7418 173.597C69.1083 173.466 69.4748 173.28 69.8413 173.039L70.6372 174.138C70.2324 174.467 69.7593 174.729 69.2177 174.926C68.6762 175.123 68.0964 175.222 67.4782 175.222C66.5757 175.222 65.8126 175.03 65.189 174.647C64.5709 174.264 64.1005 173.731 63.7777 173.047C63.4605 172.363 63.3018 171.573 63.3018 170.676C63.3018 169.806 63.4605 169.029 63.7777 168.346C64.095 167.656 64.549 167.112 65.1398 166.713C65.7305 166.308 66.4362 166.106 67.2567 166.106C68.4054 166.106 69.3135 166.491 69.9808 167.263C70.6536 168.034 70.99 169.092 70.99 170.438C70.99 170.586 70.9846 170.733 70.9736 170.881C70.9682 171.023 70.9599 171.149 70.949 171.258H65.2054ZM67.2731 167.468C66.6988 167.468 66.2229 167.673 65.8454 168.083C65.468 168.493 65.2519 169.133 65.1972 170.003H69.2095C69.1931 169.188 69.0181 168.562 68.6844 168.124C68.3562 167.686 67.8858 167.468 67.2731 167.468ZM73.6051 175V173.687H74.8769V167.64H73.6051V166.335H76.2799L76.6163 168.346C76.9391 167.618 77.3384 167.066 77.8143 166.688C78.2957 166.305 78.9138 166.114 79.6687 166.114C79.9257 166.114 80.1555 166.136 80.3579 166.179C80.5657 166.218 80.7709 166.27 80.9733 166.335L80.6615 169.527H79.3487V167.763C78.736 167.785 78.2081 168.031 77.7651 168.502C77.322 168.966 76.9719 169.623 76.7148 170.471V173.687H78.4625V175H73.6051ZM84.8929 171.258C84.9476 172.15 85.1965 172.796 85.6396 173.195C86.0881 173.594 86.6269 173.794 87.256 173.794C87.6772 173.794 88.0683 173.728 88.4293 173.597C88.7958 173.466 89.1623 173.28 89.5288 173.039L90.3247 174.138C89.9199 174.467 89.4468 174.729 88.9052 174.926C88.3637 175.123 87.7839 175.222 87.1657 175.222C86.2632 175.222 85.5001 175.03 84.8765 174.647C84.2584 174.264 83.788 173.731 83.4652 173.047C83.148 172.363 82.9893 171.573 82.9893 170.676C82.9893 169.806 83.148 169.029 83.4652 168.346C83.7825 167.656 84.2365 167.112 84.8273 166.713C85.418 166.308 86.1237 166.106 86.9442 166.106C88.0929 166.106 89.001 166.491 89.6683 167.263C90.3411 168.034 90.6775 169.092 90.6775 170.438C90.6775 170.586 90.6721 170.733 90.6611 170.881C90.6557 171.023 90.6474 171.149 90.6365 171.258H84.8929ZM86.9606 167.468C86.3863 167.468 85.9104 167.673 85.5329 168.083C85.1555 168.493 84.9394 169.133 84.8847 170.003H88.897C88.8806 169.188 88.7056 168.562 88.3719 168.124C88.0437 167.686 87.5733 167.468 86.9606 167.468ZM93.9244 176.748L92.4638 176.091L99.4382 161.675L100.882 162.356L93.9244 176.748ZM139.207 172.875C139.207 173.219 139.259 173.468 139.363 173.622C139.467 173.775 139.634 173.89 139.863 173.966L139.453 175.213C139.027 175.164 138.657 175.046 138.346 174.861C138.039 174.675 137.809 174.393 137.656 174.015C137.339 174.42 136.937 174.724 136.45 174.926C135.963 175.123 135.444 175.222 134.891 175.222C134.01 175.222 133.316 174.975 132.807 174.483C132.298 173.985 132.044 173.334 132.044 172.53C132.044 171.617 132.4 170.914 133.111 170.422C133.822 169.929 134.839 169.683 136.163 169.683H137.402V169.117C137.402 168.554 137.232 168.151 136.893 167.911C136.554 167.665 136.081 167.542 135.474 167.542C135.189 167.542 134.845 167.58 134.44 167.656C134.035 167.728 133.611 167.84 133.168 167.993L132.717 166.696C133.258 166.494 133.789 166.346 134.309 166.253C134.828 166.155 135.31 166.106 135.753 166.106C136.912 166.106 137.777 166.363 138.346 166.877C138.92 167.391 139.207 168.102 139.207 169.01V172.875ZM135.449 173.868C135.821 173.868 136.185 173.769 136.54 173.572C136.896 173.375 137.183 173.099 137.402 172.744V170.832H136.384C135.52 170.832 134.902 170.977 134.53 171.267C134.158 171.551 133.972 171.945 133.972 172.448C133.972 173.395 134.464 173.868 135.449 173.868ZM147.697 162.651C148.228 162.651 148.701 162.698 149.116 162.791C149.538 162.878 149.926 162.999 150.282 163.152L149.74 164.424C149.45 164.303 149.147 164.216 148.829 164.161C148.517 164.106 148.2 164.079 147.877 164.079C146.762 164.079 146.204 164.528 146.204 165.425V166.959H149.1L148.903 168.313H146.204V175H144.374V168.313H142.405V166.959H144.374V165.408C144.374 164.588 144.677 163.923 145.285 163.414C145.892 162.906 146.696 162.651 147.697 162.651ZM159.51 174.541C159.193 174.743 158.812 174.907 158.369 175.033C157.926 175.159 157.464 175.222 156.983 175.222C155.976 175.222 155.21 174.962 154.685 174.442C154.166 173.917 153.906 173.228 153.906 172.374V167.673H151.978V166.335H153.906V164.399L155.744 164.177V166.335H158.665L158.46 167.673H155.744V172.358C155.744 172.823 155.859 173.17 156.088 173.4C156.324 173.624 156.707 173.736 157.237 173.736C157.554 173.736 157.844 173.698 158.107 173.622C158.375 173.545 158.621 173.446 158.845 173.326L159.51 174.541ZM163.643 171.258C163.698 172.15 163.947 172.796 164.39 173.195C164.838 173.594 165.377 173.794 166.006 173.794C166.427 173.794 166.818 173.728 167.179 173.597C167.546 173.466 167.912 173.28 168.279 173.039L169.075 174.138C168.67 174.467 168.197 174.729 167.655 174.926C167.114 175.123 166.534 175.222 165.916 175.222C165.013 175.222 164.25 175.03 163.627 174.647C163.008 174.264 162.538 173.731 162.215 173.047C161.898 172.363 161.739 171.573 161.739 170.676C161.739 169.806 161.898 169.029 162.215 168.346C162.532 167.656 162.987 167.112 163.577 166.713C164.168 166.308 164.874 166.106 165.694 166.106C166.843 166.106 167.751 166.491 168.418 167.263C169.091 168.034 169.428 169.092 169.428 170.438C169.428 170.586 169.422 170.733 169.411 170.881C169.406 171.023 169.397 171.149 169.387 171.258H163.643ZM165.711 167.468C165.136 167.468 164.66 167.673 164.283 168.083C163.905 168.493 163.689 169.133 163.635 170.003H167.647C167.631 169.188 167.456 168.562 167.122 168.124C166.794 167.686 166.323 167.468 165.711 167.468ZM172.043 175V173.687H173.314V167.64H172.043V166.335H174.717L175.054 168.346C175.377 167.618 175.776 167.066 176.252 166.688C176.733 166.305 177.351 166.114 178.106 166.114C178.363 166.114 178.593 166.136 178.795 166.179C179.003 166.218 179.208 166.27 179.411 166.335L179.099 169.527H177.786V167.763C177.174 167.785 176.646 168.031 176.203 168.502C175.759 168.966 175.409 169.623 175.152 170.471V173.687H176.9V175H172.043ZM181.878 171.275V169.765H188.656V171.275H181.878ZM193.174 171.258C193.229 172.15 193.478 172.796 193.921 173.195C194.369 173.594 194.908 173.794 195.537 173.794C195.958 173.794 196.35 173.728 196.711 173.597C197.077 173.466 197.444 173.28 197.81 173.039L198.606 174.138C198.201 174.467 197.728 174.729 197.186 174.926C196.645 175.123 196.065 175.222 195.447 175.222C194.544 175.222 193.781 175.03 193.158 174.647C192.54 174.264 192.069 173.731 191.746 173.047C191.429 172.363 191.271 171.573 191.271 170.676C191.271 169.806 191.429 169.029 191.746 168.346C192.064 167.656 192.518 167.112 193.109 166.713C193.699 166.308 194.405 166.106 195.225 166.106C196.374 166.106 197.282 166.491 197.95 167.263C198.622 168.034 198.959 169.092 198.959 170.438C198.959 170.586 198.953 170.733 198.942 170.881C198.937 171.023 198.929 171.149 198.918 171.258H193.174ZM195.242 167.468C194.668 167.468 194.192 167.673 193.814 168.083C193.437 168.493 193.221 169.133 193.166 170.003H197.178C197.162 169.188 196.987 168.562 196.653 168.124C196.325 167.686 195.855 167.468 195.242 167.468ZM206.759 162.651C207.29 162.651 207.763 162.698 208.179 162.791C208.6 162.878 208.989 162.999 209.344 163.152L208.803 164.424C208.513 164.303 208.209 164.216 207.892 164.161C207.58 164.106 207.263 164.079 206.94 164.079C205.824 164.079 205.266 164.528 205.266 165.425V166.959H208.163L207.966 168.313H205.266V175H203.436V168.313H201.467V166.959H203.436V165.408C203.436 164.588 203.74 163.923 204.347 163.414C204.954 162.906 205.758 162.651 206.759 162.651ZM216.603 162.651C217.134 162.651 217.607 162.698 218.023 162.791C218.444 162.878 218.832 162.999 219.188 163.152L218.646 164.424C218.356 164.303 218.053 164.216 217.736 164.161C217.424 164.106 217.106 164.079 216.784 164.079C215.668 164.079 215.11 164.528 215.11 165.425V166.959H218.006L217.809 168.313H215.11V175H213.28V168.313H211.311V166.959H213.28V165.408C213.28 164.588 213.584 163.923 214.191 163.414C214.798 162.906 215.602 162.651 216.603 162.651ZM222.705 171.258C222.76 172.15 223.009 172.796 223.452 173.195C223.901 173.594 224.439 173.794 225.068 173.794C225.49 173.794 225.881 173.728 226.242 173.597C226.608 173.466 226.975 173.28 227.341 173.039L228.137 174.138C227.732 174.467 227.259 174.729 226.718 174.926C226.176 175.123 225.596 175.222 224.978 175.222C224.076 175.222 223.313 175.03 222.689 174.647C222.071 174.264 221.6 173.731 221.278 173.047C220.96 172.363 220.802 171.573 220.802 170.676C220.802 169.806 220.96 169.029 221.278 168.346C221.595 167.656 222.049 167.112 222.64 166.713C223.231 166.308 223.936 166.106 224.757 166.106C225.905 166.106 226.813 166.491 227.481 167.263C228.154 168.034 228.49 169.092 228.49 170.438C228.49 170.586 228.485 170.733 228.474 170.881C228.468 171.023 228.46 171.149 228.449 171.258H222.705ZM224.773 167.468C224.199 167.468 223.723 167.673 223.345 168.083C222.968 168.493 222.752 169.133 222.697 170.003H226.71C226.693 169.188 226.518 168.562 226.184 168.124C225.856 167.686 225.386 167.468 224.773 167.468ZM235.199 173.712C235.604 173.712 235.982 173.641 236.332 173.498C236.682 173.356 237.015 173.176 237.333 172.957L238.186 174.138C237.809 174.461 237.349 174.724 236.808 174.926C236.272 175.123 235.716 175.222 235.142 175.222C234.256 175.222 233.495 175.036 232.861 174.664C232.232 174.286 231.751 173.761 231.417 173.088C231.089 172.41 230.925 171.617 230.925 170.709C230.925 169.828 231.091 169.043 231.425 168.354C231.764 167.659 232.251 167.112 232.886 166.713C233.52 166.308 234.283 166.106 235.175 166.106C236.334 166.106 237.335 166.453 238.178 167.148L237.333 168.305C236.994 168.069 236.646 167.892 236.291 167.771C235.935 167.645 235.574 167.583 235.208 167.583C234.518 167.583 233.958 167.834 233.526 168.337C233.093 168.841 232.877 169.631 232.877 170.709C232.877 171.792 233.096 172.563 233.534 173.023C233.971 173.482 234.527 173.712 235.199 173.712ZM248.104 174.541C247.786 174.743 247.406 174.907 246.963 175.033C246.52 175.159 246.058 175.222 245.577 175.222C244.57 175.222 243.804 174.962 243.279 174.442C242.759 173.917 242.5 173.228 242.5 172.374V167.673H240.571V166.335H242.5V164.399L244.338 164.177V166.335H247.259L247.053 167.673H244.338V172.358C244.338 172.823 244.452 173.17 244.682 173.4C244.917 173.624 245.3 173.736 245.831 173.736C246.148 173.736 246.438 173.698 246.701 173.622C246.969 173.545 247.215 173.446 247.439 173.326L248.104 174.541ZM253.861 173.81C254.436 173.81 254.892 173.709 255.232 173.507C255.571 173.299 255.74 173.014 255.74 172.653C255.74 172.418 255.691 172.218 255.593 172.054C255.494 171.89 255.297 171.737 255.002 171.595C254.706 171.453 254.258 171.305 253.656 171.152C253.087 171.004 252.587 170.829 252.155 170.627C251.728 170.424 251.397 170.162 251.162 169.839C250.927 169.516 250.809 169.101 250.809 168.592C250.809 167.848 251.118 167.249 251.736 166.795C252.36 166.335 253.205 166.106 254.272 166.106C254.999 166.106 255.634 166.201 256.175 166.393C256.717 166.584 257.179 166.822 257.562 167.107L256.791 168.264C256.451 168.039 256.079 167.856 255.675 167.714C255.275 167.572 254.824 167.501 254.321 167.501C253.735 167.501 253.314 167.588 253.057 167.763C252.806 167.938 252.68 168.171 252.68 168.461C252.68 168.679 252.743 168.86 252.868 169.002C253 169.144 253.224 169.278 253.541 169.404C253.859 169.53 254.307 169.672 254.887 169.831C255.45 169.984 255.94 170.164 256.356 170.372C256.777 170.58 257.102 170.856 257.332 171.201C257.567 171.54 257.685 171.983 257.685 172.53C257.685 173.154 257.504 173.665 257.143 174.065C256.782 174.458 256.312 174.751 255.732 174.943C255.152 175.129 254.529 175.222 253.861 175.222C253.057 175.222 252.362 175.107 251.777 174.877C251.192 174.642 250.7 174.349 250.3 173.999L251.277 172.883C251.616 173.157 252.004 173.381 252.442 173.556C252.879 173.725 253.353 173.81 253.861 173.81ZM261.268 176.748L259.808 176.091L266.782 161.675L268.226 162.356L261.268 176.748Z" fill="#B9B9B9"/>
</svg>
