<svg width="327" height="207" viewBox="0 0 327 207" fill="none" xmlns="http://www.w3.org/2000/svg">
<rect x="1.5" y="16.5" width="324" height="189" fill="black" stroke="#D8ECFF" stroke-width="3"/>
<rect y="15" width="327" height="34" fill="#D8ECFF"/>
<path d="M13.96 24.0615V38H11.5231V24.32L13.96 24.0615ZM20.3846 28.2246L16.7569 32.5815L20.7354 38H17.8646L14.0985 32.6462L17.6985 28.2246H20.3846ZM24.6373 33.8554C24.7111 34.7723 24.9819 35.4338 25.4496 35.84C25.9173 36.2462 26.4865 36.4492 27.1573 36.4492C27.625 36.4492 28.065 36.3754 28.4773 36.2277C28.8896 36.08 29.2958 35.8738 29.6958 35.6092L30.7111 37.0031C30.2558 37.3846 29.7111 37.6923 29.0773 37.9262C28.4496 38.16 27.7573 38.2769 27.0004 38.2769C25.9419 38.2769 25.0496 38.0585 24.3234 37.6215C23.6034 37.1846 23.0588 36.5785 22.6896 35.8031C22.3204 35.0277 22.1358 34.1354 22.1358 33.1262C22.1358 32.1538 22.3142 31.2769 22.6711 30.4954C23.0342 29.7138 23.5573 29.0954 24.2404 28.64C24.9296 28.1785 25.7573 27.9477 26.7234 27.9477C28.065 27.9477 29.1296 28.3846 29.9173 29.2585C30.705 30.1323 31.0988 31.3415 31.0988 32.8862C31.0988 33.2431 31.0834 33.5662 31.0527 33.8554H24.6373ZM26.7327 29.6646C26.1419 29.6646 25.6558 29.8769 25.2742 30.3015C24.8988 30.7262 24.6773 31.3908 24.6096 32.2954H28.7265C28.7142 31.4708 28.545 30.8277 28.2188 30.3662C27.8927 29.8985 27.3973 29.6646 26.7327 29.6646ZM42.4869 28.2246L39.1731 38.0185C38.7731 39.2123 38.1792 40.1538 37.3915 40.8431C36.6038 41.5385 35.5023 41.9354 34.0869 42.0338L33.7823 40.2708C34.4346 40.1785 34.9577 40.04 35.3515 39.8554C35.7515 39.6708 36.0684 39.4277 36.3023 39.1262C36.5423 38.8246 36.7484 38.4492 36.9207 38H36.09L32.8869 28.2246H35.4623L37.6777 36.3754L39.9854 28.2246H42.4869ZM59.503 36.4769C60.0753 36.4769 60.5338 36.3785 60.8784 36.1815C61.2292 35.9846 61.4046 35.7015 61.4046 35.3323C61.4046 35.0985 61.3461 34.8985 61.2292 34.7323C61.1184 34.56 60.8969 34.4031 60.5646 34.2615C60.2323 34.1138 59.7338 33.9508 59.0692 33.7723C58.4415 33.6123 57.8907 33.4154 57.4169 33.1815C56.9492 32.9415 56.583 32.6338 56.3184 32.2585C56.06 31.8831 55.9307 31.4092 55.9307 30.8369C55.9307 29.9877 56.2876 29.2954 57.0015 28.76C57.7153 28.2185 58.7123 27.9477 59.9923 27.9477C60.8292 27.9477 61.5615 28.0585 62.1892 28.28C62.8169 28.4954 63.3553 28.7662 63.8046 29.0923L62.8076 30.5785C62.4138 30.3262 61.9861 30.1231 61.5246 29.9692C61.0692 29.8092 60.5769 29.7292 60.0476 29.7292C59.4753 29.7292 59.0569 29.8123 58.7923 29.9785C58.5338 30.1446 58.4046 30.3754 58.4046 30.6708C58.4046 30.88 58.4692 31.0585 58.5984 31.2062C58.7338 31.3477 58.9738 31.4862 59.3184 31.6215C59.6692 31.7508 60.1676 31.9077 60.8138 32.0923C61.4476 32.2708 61.9984 32.4769 62.4661 32.7108C62.94 32.9446 63.3061 33.2554 63.5646 33.6431C63.823 34.0246 63.9523 34.5292 63.9523 35.1569C63.9523 35.8646 63.7461 36.4492 63.3338 36.9108C62.9215 37.3723 62.3769 37.7169 61.7 37.9446C61.023 38.1662 60.2938 38.2769 59.5123 38.2769C58.5892 38.2769 57.783 38.1446 57.0938 37.88C56.4046 37.6154 55.82 37.2738 55.34 36.8554L56.6046 35.4338C56.9861 35.7354 57.42 35.9846 57.9061 36.1815C58.3984 36.3785 58.9307 36.4769 59.503 36.4769ZM69.3311 24.0615V38H66.8942V24.32L69.3311 24.0615ZM75.7557 28.2246L72.128 32.5815L76.1065 38H73.2357L69.4696 32.6462L73.0696 28.2246H75.7557ZM81.9745 23.2954C82.4176 23.2954 82.7807 23.4338 83.0638 23.7108C83.3469 23.9877 83.4884 24.3323 83.4884 24.7446C83.4884 25.1569 83.3469 25.5046 83.0638 25.7877C82.7807 26.0646 82.4176 26.2031 81.9745 26.2031C81.5253 26.2031 81.1592 26.0646 80.8761 25.7877C80.593 25.5046 80.4515 25.1569 80.4515 24.7446C80.4515 24.3323 80.593 23.9877 80.8761 23.7108C81.1592 23.4338 81.5253 23.2954 81.9745 23.2954ZM83.553 28.2246V36.2738H86.1284V38H78.2545V36.2738H81.1161V29.9508H78.3469V28.2246H83.553ZM93.658 24.32V35.1569C93.658 35.5815 93.7841 35.8831 94.0365 36.0615C94.2888 36.24 94.6241 36.3292 95.0426 36.3292C95.3072 36.3292 95.5626 36.3015 95.8088 36.2462C96.0549 36.1846 96.2888 36.1108 96.5103 36.0246L97.1103 37.6862C96.8026 37.8462 96.4272 37.9846 95.9841 38.1015C95.5472 38.2185 95.0395 38.2769 94.4611 38.2769C93.3965 38.2769 92.5903 37.9723 92.0426 37.3631C91.4949 36.7538 91.2211 35.9323 91.2211 34.8985V26.0462H88.2949V24.32H93.658ZM104.732 24.32V35.1569C104.732 35.5815 104.858 35.8831 105.111 36.0615C105.363 36.24 105.698 36.3292 106.117 36.3292C106.381 36.3292 106.637 36.3015 106.883 36.2462C107.129 36.1846 107.363 36.1108 107.585 36.0246L108.185 37.6862C107.877 37.8462 107.501 37.9846 107.058 38.1015C106.621 38.2185 106.114 38.2769 105.535 38.2769C104.471 38.2769 103.665 37.9723 103.117 37.3631C102.569 36.7538 102.295 35.9323 102.295 34.8985V26.0462H99.3691V24.32H104.732ZM114.874 36.4769C115.446 36.4769 115.905 36.3785 116.25 36.1815C116.6 35.9846 116.776 35.7015 116.776 35.3323C116.776 35.0985 116.717 34.8985 116.6 34.7323C116.49 34.56 116.268 34.4031 115.936 34.2615C115.603 34.1138 115.105 33.9508 114.44 33.7723C113.813 33.6123 113.262 33.4154 112.788 33.1815C112.32 32.9415 111.954 32.6338 111.69 32.2585C111.431 31.8831 111.302 31.4092 111.302 30.8369C111.302 29.9877 111.659 29.2954 112.373 28.76C113.086 28.2185 114.083 27.9477 115.363 27.9477C116.2 27.9477 116.933 28.0585 117.56 28.28C118.188 28.4954 118.726 28.7662 119.176 29.0923L118.179 30.5785C117.785 30.3262 117.357 30.1231 116.896 29.9692C116.44 29.8092 115.948 29.7292 115.419 29.7292C114.846 29.7292 114.428 29.8123 114.163 29.9785C113.905 30.1446 113.776 30.3754 113.776 30.6708C113.776 30.88 113.84 31.0585 113.97 31.2062C114.105 31.3477 114.345 31.4862 114.69 31.6215C115.04 31.7508 115.539 31.9077 116.185 32.0923C116.819 32.2708 117.37 32.4769 117.837 32.7108C118.311 32.9446 118.677 33.2554 118.936 33.6431C119.194 34.0246 119.323 34.5292 119.323 35.1569C119.323 35.8646 119.117 36.4492 118.705 36.9108C118.293 37.3723 117.748 37.7169 117.071 37.9446C116.394 38.1662 115.665 38.2769 114.883 38.2769C113.96 38.2769 113.154 38.1446 112.465 37.88C111.776 37.6154 111.191 37.2738 110.711 36.8554L111.976 35.4338C112.357 35.7354 112.791 35.9846 113.277 36.1815C113.77 36.3785 114.302 36.4769 114.874 36.4769Z" fill="black"/>
<path d="M18.6944 60.0349V62.4882C19.3562 62.5538 19.947 62.7097 20.4667 62.9559C20.9863 63.1966 21.4267 63.4756 21.7877 63.7928L20.7867 64.8349C20.1685 64.2879 19.4711 63.9706 18.6944 63.8831V67.2882C19.3125 67.4961 19.8677 67.745 20.36 68.0349C20.8523 68.3248 21.2407 68.694 21.5251 69.1426C21.8096 69.5856 21.9518 70.1381 21.9518 70.8C21.9518 71.3579 21.8287 71.8749 21.5826 72.3508C21.3364 72.8212 20.9699 73.2178 20.4831 73.5405C20.0017 73.8578 19.4055 74.0629 18.6944 74.1559V76.5682H17.5046V74.2051C16.7115 74.1559 16.0168 73.9781 15.4205 73.6718C14.8297 73.3655 14.3429 73.0263 13.96 72.6544L14.9446 71.5467C15.3002 71.8858 15.6858 72.1648 16.1015 72.3836C16.5173 72.5969 16.985 72.7227 17.5046 72.761V68.6503C16.4598 68.3002 15.6776 67.8708 15.1579 67.3621C14.6438 66.8479 14.3867 66.2079 14.3867 65.4421C14.3867 64.6981 14.652 64.0444 15.1826 63.481C15.7186 62.9176 16.4926 62.5867 17.5046 62.4882V60.0349H18.6944ZM17.5046 63.9077C17.0998 63.9788 16.7771 64.1347 16.5364 64.3754C16.2957 64.6161 16.1754 64.9279 16.1754 65.3108C16.1754 65.6554 16.2602 65.9453 16.4297 66.1805C16.6048 66.4157 16.9631 66.6482 17.5046 66.8779V63.9077ZM18.6944 69.0851V72.6954C19.6407 72.4985 20.1138 71.9104 20.1138 70.9313C20.1138 70.5265 20.0126 70.1764 19.8103 69.881C19.6079 69.5856 19.2359 69.3203 18.6944 69.0851ZM65.55 72.6297C65.55 72.1921 65.7005 71.8202 66.0013 71.5138C66.3076 71.2021 66.6851 71.0462 67.1336 71.0462C67.5822 71.0462 67.9596 71.2021 68.2659 71.5138C68.5723 71.8202 68.7254 72.1921 68.7254 72.6297C68.7254 73.0674 68.5723 73.4421 68.2659 73.7538C67.9596 74.0656 67.5822 74.2215 67.1336 74.2215C66.6851 74.2215 66.3076 74.0656 66.0013 73.7538C65.7005 73.4421 65.55 73.0674 65.55 72.6297ZM74.2369 75.7477L72.7763 75.0913L79.7507 60.6749L81.1948 61.3559L74.2369 75.7477ZM83.4488 74V72.6872H84.7206V66.64H83.4488V65.3354H86.1237L86.4601 67.3456C86.7828 66.6181 87.1821 66.0656 87.658 65.6882C88.1394 65.3053 88.7575 65.1138 89.5124 65.1138C89.7695 65.1138 89.9992 65.1357 90.2016 65.1795C90.4095 65.2178 90.6146 65.2697 90.817 65.3354L90.5052 68.5272H89.1924V66.7631C88.5798 66.785 88.0519 67.0311 87.6088 67.5015C87.1657 67.9665 86.8157 68.6229 86.5586 69.4708V72.6872H88.3062V74H83.4488ZM94.7367 70.2585C94.7914 71.1501 95.0403 71.7956 95.4833 72.1949C95.9319 72.5942 96.4707 72.7938 97.0997 72.7938C97.5209 72.7938 97.9121 72.7282 98.2731 72.5969C98.6396 72.4656 99.0061 72.2797 99.3726 72.039L100.168 73.1385C99.7637 73.4667 99.2905 73.7292 98.749 73.9262C98.2074 74.1231 97.6276 74.2215 97.0095 74.2215C96.1069 74.2215 95.3438 74.0301 94.7203 73.6472C94.1021 73.2643 93.6317 72.7309 93.309 72.0472C92.9917 71.3634 92.8331 70.573 92.8331 69.6759C92.8331 68.8062 92.9917 68.0294 93.309 67.3456C93.6262 66.6564 94.0803 66.1121 94.671 65.7128C95.2618 65.308 95.9674 65.1056 96.7879 65.1056C97.9367 65.1056 98.8447 65.4913 99.5121 66.2626C100.185 67.0338 100.521 68.0923 100.521 69.4379C100.521 69.5856 100.516 69.7333 100.505 69.881C100.499 70.0232 100.491 70.1491 100.48 70.2585H94.7367ZM96.8044 66.4677C96.23 66.4677 95.7541 66.6728 95.3767 67.0831C94.9992 67.4933 94.7832 68.1333 94.7285 69.0031H98.7408C98.7244 68.188 98.5493 67.5617 98.2156 67.1241C97.8874 66.6865 97.417 66.4677 96.8044 66.4677ZM110.644 65.3354L107.592 74H105.442L102.39 65.3354H104.359L106.558 72.4738L108.765 65.3354H110.644ZM113.612 75.7477L112.151 75.0913L119.126 60.6749L120.57 61.3559L113.612 75.7477ZM125.893 72.8103C126.467 72.8103 126.924 72.7091 127.263 72.5067C127.602 72.2988 127.772 72.0144 127.772 71.6533C127.772 71.4181 127.722 71.2185 127.624 71.0544C127.525 70.8903 127.328 70.7371 127.033 70.5949C126.738 70.4526 126.289 70.305 125.687 70.1518C125.119 70.0041 124.618 69.8291 124.186 69.6267C123.759 69.4243 123.428 69.1617 123.193 68.839C122.958 68.5162 122.84 68.1005 122.84 67.5918C122.84 66.8479 123.149 66.2489 123.767 65.7949C124.391 65.3354 125.236 65.1056 126.303 65.1056C127.03 65.1056 127.665 65.2014 128.206 65.3928C128.748 65.5843 129.21 65.8222 129.593 66.1067L128.822 67.2636C128.483 67.0393 128.111 66.8561 127.706 66.7138C127.307 66.5716 126.855 66.5005 126.352 66.5005C125.767 66.5005 125.346 66.588 125.088 66.7631C124.837 66.9381 124.711 67.1706 124.711 67.4605C124.711 67.6793 124.774 67.8598 124.9 68.0021C125.031 68.1443 125.255 68.2783 125.573 68.4041C125.89 68.5299 126.338 68.6721 126.918 68.8308C127.482 68.9839 127.971 69.1644 128.387 69.3723C128.808 69.5802 129.134 69.8564 129.363 70.201C129.599 70.5402 129.716 70.9832 129.716 71.5303C129.716 72.1538 129.536 72.6653 129.175 73.0646C128.814 73.4585 128.343 73.7511 127.763 73.9426C127.183 74.1285 126.56 74.2215 125.893 74.2215C125.088 74.2215 124.394 74.1067 123.808 73.8769C123.223 73.6417 122.731 73.3491 122.332 72.999L123.308 71.8831C123.647 72.1566 124.035 72.3809 124.473 72.5559C124.911 72.7255 125.384 72.8103 125.893 72.8103ZM134.481 61.6513V74H132.643V61.8564L134.481 61.6513ZM140.216 65.3354L136.713 69.2082L140.586 74H138.337L134.612 69.2574L138.075 65.3354H140.216ZM145.884 61.0933C146.245 61.0933 146.535 61.2027 146.753 61.4215C146.978 61.6403 147.09 61.9138 147.09 62.2421C147.09 62.5703 146.978 62.8465 146.753 63.0708C146.535 63.295 146.245 63.4072 145.884 63.4072C145.534 63.4072 145.246 63.295 145.022 63.0708C144.798 62.8465 144.686 62.5703 144.686 62.2421C144.686 61.9138 144.798 61.6403 145.022 61.4215C145.246 61.2027 145.534 61.0933 145.884 61.0933ZM147.164 65.3354V72.6544H149.518V74H142.733V72.6544H145.326V66.681H142.815V65.3354H147.164ZM156.08 61.8564V71.6369C156.08 72.0362 156.201 72.3207 156.441 72.4903C156.687 72.6544 157.005 72.7364 157.393 72.7364C157.639 72.7364 157.874 72.7118 158.099 72.6626C158.328 72.6079 158.55 72.5368 158.763 72.4492L159.231 73.7292C158.974 73.8605 158.657 73.9754 158.279 74.0738C157.907 74.1723 157.481 74.2215 156.999 74.2215C156.129 74.2215 155.451 73.9754 154.964 73.4831C154.483 72.9908 154.242 72.3207 154.242 71.4728V63.2103H151.625V61.8564H156.08ZM165.924 61.8564V71.6369C165.924 72.0362 166.044 72.3207 166.285 72.4903C166.531 72.6544 166.848 72.7364 167.237 72.7364C167.483 72.7364 167.718 72.7118 167.942 72.6626C168.172 72.6079 168.394 72.5368 168.607 72.4492L169.075 73.7292C168.818 73.8605 168.5 73.9754 168.123 74.0738C167.751 74.1723 167.324 74.2215 166.843 74.2215C165.973 74.2215 165.295 73.9754 164.808 73.4831C164.327 72.9908 164.086 72.3207 164.086 71.4728V63.2103H161.469V61.8564H165.924ZM175.111 72.8103C175.686 72.8103 176.142 72.7091 176.482 72.5067C176.821 72.2988 176.99 72.0144 176.99 71.6533C176.99 71.4181 176.941 71.2185 176.843 71.0544C176.744 70.8903 176.547 70.7371 176.252 70.5949C175.956 70.4526 175.508 70.305 174.906 70.1518C174.337 70.0041 173.837 69.8291 173.405 69.6267C172.978 69.4243 172.647 69.1617 172.412 68.839C172.177 68.5162 172.059 68.1005 172.059 67.5918C172.059 66.8479 172.368 66.2489 172.986 65.7949C173.61 65.3354 174.455 65.1056 175.522 65.1056C176.249 65.1056 176.884 65.2014 177.425 65.3928C177.967 65.5843 178.429 65.8222 178.812 66.1067L178.041 67.2636C177.701 67.0393 177.329 66.8561 176.925 66.7138C176.525 66.5716 176.074 66.5005 175.571 66.5005C174.985 66.5005 174.564 66.588 174.307 66.7631C174.056 66.9381 173.93 67.1706 173.93 67.4605C173.93 67.6793 173.993 67.8598 174.118 68.0021C174.25 68.1443 174.474 68.2783 174.791 68.4041C175.109 68.5299 175.557 68.6721 176.137 68.8308C176.7 68.9839 177.19 69.1644 177.606 69.3723C178.027 69.5802 178.352 69.8564 178.582 70.201C178.817 70.5402 178.935 70.9832 178.935 71.5303C178.935 72.1538 178.754 72.6653 178.393 73.0646C178.032 73.4585 177.562 73.7511 176.982 73.9426C176.402 74.1285 175.779 74.2215 175.111 74.2215C174.307 74.2215 173.612 74.1067 173.027 73.8769C172.442 73.6417 171.95 73.3491 171.55 72.999L172.527 71.8831C172.866 72.1566 173.254 72.3809 173.692 72.5559C174.129 72.7255 174.603 72.8103 175.111 72.8103ZM182.518 75.7477L181.058 75.0913L188.032 60.6749L189.476 61.3559L182.518 75.7477Z" fill="white"/>
<path d="M37.9552 61.8564V71.6369C37.9552 72.0362 38.0755 72.3207 38.3162 72.4903C38.5624 72.6544 38.8796 72.7364 39.268 72.7364C39.5142 72.7364 39.7494 72.7118 39.9737 72.6626C40.2034 72.6079 40.4249 72.5368 40.6383 72.4492L41.106 73.7292C40.8489 73.8605 40.5316 73.9754 40.1542 74.0738C39.7822 74.1723 39.3555 74.2215 38.8742 74.2215C38.0044 74.2215 37.3261 73.9754 36.8393 73.4831C36.3579 72.9908 36.1172 72.3207 36.1172 71.4728V63.2103H33.4998V61.8564H37.9552ZM47.1425 72.8103C47.7169 72.8103 48.1736 72.7091 48.5128 72.5067C48.8519 72.2988 49.0215 72.0144 49.0215 71.6533C49.0215 71.4181 48.9723 71.2185 48.8738 71.0544C48.7754 70.8903 48.5784 70.7371 48.283 70.5949C47.9877 70.4526 47.5391 70.305 46.9374 70.1518C46.3685 70.0041 45.868 69.8291 45.4359 69.6267C45.0092 69.4243 44.6783 69.1617 44.443 68.839C44.2078 68.5162 44.0902 68.1005 44.0902 67.5918C44.0902 66.8479 44.3993 66.2489 45.0174 65.7949C45.641 65.3354 46.4861 65.1056 47.5528 65.1056C48.2803 65.1056 48.9148 65.2014 49.4564 65.3928C49.9979 65.5843 50.4601 65.8222 50.843 66.1067L50.0718 67.2636C49.7326 67.0393 49.3607 66.8561 48.9559 66.7138C48.5565 66.5716 48.1053 66.5005 47.602 66.5005C47.0167 66.5005 46.5955 66.588 46.3384 66.7631C46.0868 66.9381 45.961 67.1706 45.961 67.4605C45.961 67.6793 46.0239 67.8598 46.1497 68.0021C46.281 68.1443 46.5053 68.2783 46.8225 68.4041C47.1398 68.5299 47.5883 68.6721 48.1682 68.8308C48.7316 68.9839 49.2212 69.1644 49.6369 69.3723C50.0581 69.5802 50.3836 69.8564 50.6133 70.201C50.8485 70.5402 50.9661 70.9832 50.9661 71.5303C50.9661 72.1538 50.7856 72.6653 50.4246 73.0646C50.0636 73.4585 49.5931 73.7511 49.0133 73.9426C48.4335 74.1285 47.8099 74.2215 47.1425 74.2215C46.3384 74.2215 45.6437 74.1067 45.0584 73.8769C44.4731 73.6417 43.9808 73.3491 43.5815 72.999L44.5579 71.8831C44.8971 72.1566 45.2854 72.3809 45.723 72.5559C46.1607 72.7255 46.6338 72.8103 47.1425 72.8103Z" fill="#FFAD2A"/>
<path d="M14.5426 100V98.6872H15.8144V92.64H14.5426V91.3354H17.2174L17.5538 93.3456C17.8766 92.6181 18.2759 92.0656 18.7518 91.6882C19.2332 91.3053 19.8513 91.1138 20.6062 91.1138C20.8632 91.1138 21.093 91.1357 21.2954 91.1795C21.5032 91.2178 21.7084 91.2697 21.9108 91.3354L21.599 94.5272H20.2862V92.7631C19.6735 92.785 19.1456 93.0311 18.7026 93.5015C18.2595 93.9665 17.9094 94.6229 17.6523 95.4708V98.6872H19.4V100H14.5426ZM25.8304 96.2585C25.8851 97.1501 26.134 97.7956 26.5771 98.1949C27.0256 98.5942 27.5644 98.7938 28.1935 98.7938C28.6147 98.7938 29.0058 98.7282 29.3668 98.5969C29.7333 98.4656 30.0998 98.2797 30.4663 98.039L31.2622 99.1385C30.8574 99.4667 30.3843 99.7292 29.8427 99.9262C29.3012 100.123 28.7214 100.222 28.1032 100.222C27.2007 100.222 26.4376 100.03 25.814 99.6472C25.1959 99.2643 24.7255 98.7309 24.4027 98.0472C24.0855 97.3634 23.9268 96.573 23.9268 95.6759C23.9268 94.8062 24.0855 94.0294 24.4027 93.3456C24.72 92.6564 25.174 92.1121 25.7648 91.7128C26.3555 91.308 27.0612 91.1056 27.8817 91.1056C29.0304 91.1056 29.9385 91.4913 30.6058 92.2626C31.2786 93.0338 31.615 94.0923 31.615 95.4379C31.615 95.5856 31.6096 95.7333 31.5986 95.881C31.5932 96.0232 31.5849 96.1491 31.574 96.2585H25.8304ZM27.8981 92.4677C27.3238 92.4677 26.8479 92.6728 26.4704 93.0831C26.093 93.4933 25.8769 94.1333 25.8222 95.0031H29.8345C29.8181 94.188 29.6431 93.5617 29.3094 93.1241C28.9812 92.6865 28.5108 92.4677 27.8981 92.4677ZM40.7696 97.8749C40.7696 98.2195 40.8215 98.4684 40.9254 98.6215C41.0294 98.7747 41.1962 98.8896 41.426 98.9662L41.0157 100.213C40.589 100.164 40.2198 100.046 39.908 99.8605C39.6017 99.6745 39.3719 99.3928 39.2188 99.0154C38.9015 99.4202 38.4995 99.7238 38.0126 99.9262C37.5258 100.123 37.0061 100.222 36.4537 100.222C35.573 100.222 34.8783 99.9754 34.3696 99.4831C33.8608 98.9853 33.6065 98.3344 33.6065 97.5303C33.6065 96.6168 33.962 95.9138 34.6731 95.4215C35.3843 94.9292 36.4017 94.6831 37.7254 94.6831H38.9644V94.1169C38.9644 93.5535 38.7949 93.1515 38.4557 92.9108C38.1166 92.6646 37.6434 92.5415 37.0362 92.5415C36.7518 92.5415 36.4072 92.5798 36.0024 92.6564C35.5976 92.7275 35.1737 92.8397 34.7306 92.9928L34.2793 91.6964C34.8208 91.494 35.3514 91.3463 35.8711 91.2533C36.3907 91.1549 36.8721 91.1056 37.3152 91.1056C38.4749 91.1056 39.3391 91.3627 39.908 91.8769C40.4824 92.3911 40.7696 93.1022 40.7696 94.0103V97.8749ZM37.0116 98.8677C37.3836 98.8677 37.7473 98.7692 38.1029 98.5723C38.4584 98.3754 38.7456 98.0991 38.9644 97.7436V95.8318H37.947C37.0827 95.8318 36.4646 95.9768 36.0926 96.2667C35.7207 96.5511 35.5347 96.945 35.5347 97.4482C35.5347 98.3945 36.027 98.8677 37.0116 98.8677ZM48.1682 98.7118C48.573 98.7118 48.9504 98.6407 49.3005 98.4985C49.6506 98.3562 49.9842 98.1757 50.3015 97.9569L51.1548 99.1385C50.7774 99.4612 50.3179 99.7238 49.7764 99.9262C49.2403 100.123 48.6851 100.222 48.1107 100.222C47.2246 100.222 46.4642 100.036 45.8297 99.6636C45.2007 99.2862 44.7193 98.761 44.3856 98.0882C44.0574 97.4099 43.8933 96.6168 43.8933 95.7087C43.8933 94.828 44.0601 94.0431 44.3938 93.3538C44.733 92.6591 45.2198 92.1121 45.8543 91.7128C46.4889 91.308 47.2519 91.1056 48.1436 91.1056C49.3032 91.1056 50.3042 91.453 51.1466 92.1477L50.3015 93.3046C49.9624 93.0694 49.615 92.8916 49.2595 92.7713C48.9039 92.6455 48.5429 92.5826 48.1764 92.5826C47.4871 92.5826 46.9265 92.8342 46.4943 93.3374C46.0622 93.8407 45.8461 94.6311 45.8461 95.7087C45.8461 96.7918 46.0649 97.5631 46.5025 98.0226C46.9401 98.4821 47.4954 98.7118 48.1682 98.7118ZM61.0724 99.5405C60.7552 99.7429 60.375 99.907 59.9319 100.033C59.4888 100.159 59.0266 100.222 58.5453 100.222C57.5388 100.222 56.7729 99.9617 56.2478 99.4421C55.7282 98.9169 55.4683 98.2277 55.4683 97.3744V92.6728H53.5401V91.3354H55.4683V89.399L57.3063 89.1774V91.3354H60.2273L60.0222 92.6728H57.3063V97.3579C57.3063 97.8229 57.4212 98.1703 57.6509 98.4C57.8861 98.6243 58.269 98.7364 58.7996 98.7364C59.1169 98.7364 59.4068 98.6981 59.6694 98.6215C59.9374 98.545 60.1835 98.4465 60.4078 98.3262L61.0724 99.5405ZM64.3931 101.748L62.9326 101.091L69.907 86.6749L71.3511 87.3559L64.3931 101.748ZM110.291 99.5405C109.974 99.7429 109.594 99.907 109.151 100.033C108.708 100.159 108.245 100.222 107.764 100.222C106.758 100.222 105.992 99.9617 105.467 99.4421C104.947 98.9169 104.687 98.2277 104.687 97.3744V92.6728H102.759V91.3354H104.687V89.399L106.525 89.1774V91.3354H109.446L109.241 92.6728H106.525V97.3579C106.525 97.8229 106.64 98.1703 106.87 98.4C107.105 98.6243 107.488 98.7364 108.018 98.7364C108.336 98.7364 108.626 98.6981 108.888 98.6215C109.156 98.545 109.402 98.4465 109.627 98.3262L110.291 99.5405ZM120.48 91.3354L117.493 100.033C117.269 100.689 116.981 101.269 116.631 101.772C116.281 102.276 115.833 102.678 115.286 102.978C114.739 103.285 114.06 103.474 113.251 103.545L113.013 102.166C113.598 102.073 114.063 101.936 114.408 101.756C114.758 101.581 115.034 101.348 115.236 101.058C115.444 100.774 115.628 100.421 115.786 100H115.163L112.242 91.3354H114.194L116.377 98.72L118.592 91.3354H120.48ZM126.967 91.1056C127.733 91.1056 128.346 91.2944 128.805 91.6718C129.265 92.0438 129.599 92.5716 129.806 93.2554C130.014 93.9337 130.118 94.7323 130.118 95.6513C130.118 96.532 129.992 97.3169 129.741 98.0062C129.489 98.6954 129.114 99.2369 128.617 99.6308C128.124 100.025 127.512 100.222 126.779 100.222C125.871 100.222 125.138 99.9015 124.58 99.2615V103.331L122.742 103.536V91.3354H124.342L124.457 92.4513C124.785 92.0082 125.165 91.6745 125.597 91.4503C126.029 91.2205 126.486 91.1056 126.967 91.1056ZM126.459 92.5251C126.048 92.5251 125.685 92.6482 125.367 92.8944C125.056 93.1405 124.793 93.4304 124.58 93.7641V97.8174C125.012 98.4629 125.583 98.7856 126.295 98.7856C126.913 98.7856 127.383 98.5368 127.706 98.039C128.029 97.5412 128.19 96.748 128.19 95.6595C128.19 94.5491 128.045 93.7504 127.755 93.2636C127.471 92.7713 127.039 92.5251 126.459 92.5251ZM134.112 96.2585C134.166 97.1501 134.415 97.7956 134.858 98.1949C135.307 98.5942 135.846 98.7938 136.475 98.7938C136.896 98.7938 137.287 98.7282 137.648 98.5969C138.015 98.4656 138.381 98.2797 138.748 98.039L139.543 99.1385C139.139 99.4667 138.666 99.7292 138.124 99.9262C137.582 100.123 137.003 100.222 136.384 100.222C135.482 100.222 134.719 100.03 134.095 99.6472C133.477 99.2643 133.007 98.7309 132.684 98.0472C132.367 97.3634 132.208 96.573 132.208 95.6759C132.208 94.8062 132.367 94.0294 132.684 93.3456C133.001 92.6564 133.455 92.1121 134.046 91.7128C134.637 91.308 135.342 91.1056 136.163 91.1056C137.312 91.1056 138.22 91.4913 138.887 92.2626C139.56 93.0338 139.896 94.0923 139.896 95.4379C139.896 95.5856 139.891 95.7333 139.88 95.881C139.874 96.0232 139.866 96.1491 139.855 96.2585H134.112ZM136.179 92.4677C135.605 92.4677 135.129 92.6728 134.752 93.0831C134.374 93.4933 134.158 94.1333 134.103 95.0031H138.116C138.099 94.188 137.924 93.5617 137.591 93.1241C137.262 92.6865 136.792 92.4677 136.179 92.4677ZM145.58 98.8103C146.154 98.8103 146.611 98.7091 146.95 98.5067C147.289 98.2988 147.459 98.0144 147.459 97.6533C147.459 97.4181 147.41 97.2185 147.311 97.0544C147.213 96.8903 147.016 96.7371 146.721 96.5949C146.425 96.4526 145.977 96.305 145.375 96.1518C144.806 96.0041 144.306 95.8291 143.873 95.6267C143.447 95.4243 143.116 95.1617 142.881 94.839C142.645 94.5162 142.528 94.1005 142.528 93.5918C142.528 92.8479 142.837 92.2489 143.455 91.7949C144.078 91.3354 144.924 91.1056 145.99 91.1056C146.718 91.1056 147.352 91.2014 147.894 91.3928C148.435 91.5843 148.898 91.8222 149.281 92.1067L148.509 93.2636C148.17 93.0393 147.798 92.8561 147.393 92.7138C146.994 92.5716 146.543 92.5005 146.04 92.5005C145.454 92.5005 145.033 92.588 144.776 92.7631C144.524 92.9381 144.398 93.1706 144.398 93.4605C144.398 93.6793 144.461 93.8598 144.587 94.0021C144.718 94.1443 144.943 94.2783 145.26 94.4041C145.577 94.5299 146.026 94.6721 146.606 94.8308C147.169 94.9839 147.659 95.1644 148.074 95.3723C148.496 95.5802 148.821 95.8564 149.051 96.201C149.286 96.5402 149.404 96.9832 149.404 97.5303C149.404 98.1538 149.223 98.6653 148.862 99.0646C148.501 99.4585 148.031 99.7511 147.451 99.9426C146.871 100.129 146.247 100.222 145.58 100.222C144.776 100.222 144.081 100.107 143.496 99.8769C142.911 99.6417 142.418 99.3491 142.019 98.999L142.995 97.8831C143.335 98.1566 143.723 98.3809 144.161 98.5559C144.598 98.7255 145.071 98.8103 145.58 98.8103ZM156.449 98.7118C156.854 98.7118 157.232 98.6407 157.582 98.4985C157.932 98.3562 158.265 98.1757 158.583 97.9569L159.436 99.1385C159.059 99.4612 158.599 99.7238 158.058 99.9262C157.522 100.123 156.966 100.222 156.392 100.222C155.506 100.222 154.745 100.036 154.111 99.6636C153.482 99.2862 153.001 98.761 152.667 98.0882C152.339 97.4099 152.175 96.6168 152.175 95.7087C152.175 94.828 152.341 94.0431 152.675 93.3538C153.014 92.6591 153.501 92.1121 154.136 91.7128C154.77 91.308 155.533 91.1056 156.425 91.1056C157.584 91.1056 158.585 91.453 159.428 92.1477L158.583 93.3046C158.244 93.0694 157.896 92.8916 157.541 92.7713C157.185 92.6455 156.824 92.5826 156.458 92.5826C155.768 92.5826 155.208 92.8342 154.776 93.3374C154.343 93.8407 154.127 94.6311 154.127 95.7087C154.127 96.7918 154.346 97.5631 154.784 98.0226C155.221 98.4821 155.777 98.7118 156.449 98.7118ZM162.199 100V98.6872H163.471V92.64H162.199V91.3354H164.874L165.21 93.3456C165.533 92.6181 165.932 92.0656 166.408 91.6882C166.889 91.3053 167.508 91.1138 168.262 91.1138C168.519 91.1138 168.749 91.1357 168.952 91.1795C169.159 91.2178 169.365 91.2697 169.567 91.3354L169.255 94.5272H167.942V92.7631C167.33 92.785 166.802 93.0311 166.359 93.5015C165.916 93.9665 165.566 94.6229 165.309 95.4708V98.6872H167.056V100H162.199ZM175.415 87.0933C175.776 87.0933 176.066 87.2027 176.285 87.4215C176.509 87.6403 176.621 87.9138 176.621 88.2421C176.621 88.5703 176.509 88.8465 176.285 89.0708C176.066 89.295 175.776 89.4072 175.415 89.4072C175.065 89.4072 174.778 89.295 174.553 89.0708C174.329 88.8465 174.217 88.5703 174.217 88.2421C174.217 87.9138 174.329 87.6403 174.553 87.4215C174.778 87.2027 175.065 87.0933 175.415 87.0933ZM176.695 91.3354V98.6544H179.05V100H172.264V98.6544H174.857V92.681H172.346V91.3354H176.695ZM186.03 91.1056C186.796 91.1056 187.408 91.2944 187.868 91.6718C188.327 92.0438 188.661 92.5716 188.869 93.2554C189.077 93.9337 189.181 94.7323 189.181 95.6513C189.181 96.532 189.055 97.3169 188.803 98.0062C188.552 98.6954 188.177 99.2369 187.679 99.6308C187.187 100.025 186.574 100.222 185.841 100.222C184.933 100.222 184.2 99.9015 183.642 99.2615V103.331L181.804 103.536V91.3354H183.404L183.519 92.4513C183.847 92.0082 184.228 91.6745 184.66 91.4503C185.092 91.2205 185.549 91.1056 186.03 91.1056ZM185.521 92.5251C185.111 92.5251 184.747 92.6482 184.43 92.8944C184.118 93.1405 183.856 93.4304 183.642 93.7641V97.8174C184.074 98.4629 184.646 98.7856 185.357 98.7856C185.975 98.7856 186.446 98.5368 186.768 98.039C187.091 97.5412 187.252 96.748 187.252 95.6595C187.252 94.5491 187.108 93.7504 186.818 93.2636C186.533 92.7713 186.101 92.5251 185.521 92.5251ZM198.885 99.5405C198.568 99.7429 198.188 99.907 197.744 100.033C197.301 100.159 196.839 100.222 196.358 100.222C195.351 100.222 194.585 99.9617 194.06 99.4421C193.541 98.9169 193.281 98.2277 193.281 97.3744V92.6728H191.353V91.3354H193.281V89.399L195.119 89.1774V91.3354H198.04L197.835 92.6728H195.119V97.3579C195.119 97.8229 195.234 98.1703 195.463 98.4C195.699 98.6243 196.082 98.7364 196.612 98.7364C196.929 98.7364 197.219 98.6981 197.482 98.6215C197.75 98.545 197.996 98.4465 198.22 98.3262L198.885 99.5405ZM202.206 101.748L200.745 101.091L207.719 86.6749L209.164 87.3559L202.206 101.748ZM14.4605 118V109.335H16.0441L16.1836 110.459C16.5446 110.022 16.9713 109.688 17.4636 109.458C17.9559 109.223 18.4619 109.106 18.9815 109.106C19.7911 109.106 20.3956 109.333 20.7949 109.787C21.1997 110.241 21.4021 110.872 21.4021 111.682V118H19.5641V112.593C19.5641 111.843 19.4875 111.31 19.3344 110.993C19.1867 110.67 18.8503 110.509 18.3251 110.509C17.9039 110.509 17.5183 110.64 17.1682 110.903C16.8236 111.16 16.5337 111.452 16.2985 111.781V118H14.4605ZM25.8304 114.258C25.8851 115.15 26.134 115.796 26.5771 116.195C27.0256 116.594 27.5644 116.794 28.1935 116.794C28.6147 116.794 29.0058 116.728 29.3668 116.597C29.7333 116.466 30.0998 116.28 30.4663 116.039L31.2622 117.138C30.8574 117.467 30.3843 117.729 29.8427 117.926C29.3012 118.123 28.7214 118.222 28.1032 118.222C27.2007 118.222 26.4376 118.03 25.814 117.647C25.1959 117.264 24.7255 116.731 24.4027 116.047C24.0855 115.363 23.9268 114.573 23.9268 113.676C23.9268 112.806 24.0855 112.029 24.4027 111.346C24.72 110.656 25.174 110.112 25.7648 109.713C26.3555 109.308 27.0612 109.106 27.8817 109.106C29.0304 109.106 29.9385 109.491 30.6058 110.263C31.2786 111.034 31.615 112.092 31.615 113.438C31.615 113.586 31.6096 113.733 31.5986 113.881C31.5932 114.023 31.5849 114.149 31.574 114.258H25.8304ZM27.8981 110.468C27.3238 110.468 26.8479 110.673 26.4704 111.083C26.093 111.493 25.8769 112.133 25.8222 113.003H29.8345C29.8181 112.188 29.6431 111.562 29.3094 111.124C28.9812 110.686 28.5108 110.468 27.8981 110.468ZM35.428 118H33.3931L36.5029 113.43L33.7378 109.335H35.8547L37.627 112.388L39.3993 109.335H41.4178L38.7101 113.356L41.828 118H39.6701L37.5449 114.464L35.428 118ZM51.2287 117.541C50.9114 117.743 50.5312 117.907 50.0882 118.033C49.6451 118.159 49.1829 118.222 48.7015 118.222C47.695 118.222 46.9292 117.962 46.4041 117.442C45.8844 116.917 45.6246 116.228 45.6246 115.374V110.673H43.6964V109.335H45.6246V107.399L47.4625 107.177V109.335H50.3836L50.1784 110.673H47.4625V115.358C47.4625 115.823 47.5774 116.17 47.8071 116.4C48.0424 116.624 48.4253 116.736 48.9559 116.736C49.2731 116.736 49.563 116.698 49.8256 116.622C50.0936 116.545 50.3398 116.446 50.5641 116.326L51.2287 117.541ZM55.7063 116.63C55.7063 116.192 55.8567 115.82 56.1576 115.514C56.4639 115.202 56.8413 115.046 57.2899 115.046C57.7384 115.046 58.1159 115.202 58.4222 115.514C58.7285 115.82 58.8817 116.192 58.8817 116.63C58.8817 117.067 58.7285 117.442 58.4222 117.754C58.1159 118.066 57.7384 118.222 57.2899 118.222C56.8413 118.222 56.4639 118.066 56.1576 117.754C55.8567 117.442 55.7063 117.067 55.7063 116.63ZM68.2577 105.093C68.6133 105.093 68.9032 105.203 69.1275 105.422C69.3517 105.64 69.4639 105.914 69.4639 106.242C69.4639 106.57 69.3517 106.846 69.1275 107.071C68.9032 107.295 68.6133 107.407 68.2577 107.407C67.9022 107.407 67.6123 107.295 67.388 107.071C67.1692 106.846 67.0598 106.57 67.0598 106.242C67.0598 105.914 67.1692 105.64 67.388 105.422C67.6123 105.203 67.9022 105.093 68.2577 105.093ZM69.6936 109.335V116.178C69.6936 117.256 69.4693 118.15 69.0208 118.862C68.5723 119.573 67.9186 120.142 67.0598 120.568C66.201 120.995 65.1562 121.318 63.9254 121.536L63.63 120.125C64.4888 119.961 65.2355 119.734 65.87 119.444C66.5046 119.154 66.9941 118.758 67.3387 118.254C67.6834 117.751 67.8557 117.1 67.8557 116.302V110.681H64.4341V109.335H69.6936ZM76.6738 116.81C77.2481 116.81 77.7049 116.709 78.044 116.507C78.3832 116.299 78.5528 116.014 78.5528 115.653C78.5528 115.418 78.5035 115.218 78.4051 115.054C78.3066 114.89 78.1097 114.737 77.8143 114.595C77.5189 114.453 77.0704 114.305 76.4687 114.152C75.8998 114.004 75.3993 113.829 74.9671 113.627C74.5404 113.424 74.2095 113.162 73.9743 112.839C73.7391 112.516 73.6215 112.101 73.6215 111.592C73.6215 110.848 73.9305 110.249 74.5487 109.795C75.1722 109.335 76.0174 109.106 77.084 109.106C77.8116 109.106 78.4461 109.201 78.9876 109.393C79.5292 109.584 79.9914 109.822 80.3743 110.107L79.603 111.264C79.2639 111.039 78.8919 110.856 78.4871 110.714C78.0878 110.572 77.6365 110.501 77.1333 110.501C76.548 110.501 76.1268 110.588 75.8697 110.763C75.6181 110.938 75.4922 111.171 75.4922 111.461C75.4922 111.679 75.5551 111.86 75.681 112.002C75.8122 112.144 76.0365 112.278 76.3538 112.404C76.671 112.53 77.1196 112.672 77.6994 112.831C78.2628 112.984 78.7524 113.164 79.1681 113.372C79.5893 113.58 79.9148 113.856 80.1446 114.201C80.3798 114.54 80.4974 114.983 80.4974 115.53C80.4974 116.154 80.3169 116.665 79.9558 117.065C79.5948 117.458 79.1244 117.751 78.5446 117.943C77.9647 118.129 77.3411 118.222 76.6738 118.222C75.8697 118.222 75.175 118.107 74.5897 117.877C74.0044 117.642 73.5121 117.349 73.1128 116.999L74.0892 115.883C74.4283 116.157 74.8167 116.381 75.2543 116.556C75.6919 116.725 76.1651 116.81 76.6738 116.81ZM84.0806 119.748L82.6201 119.091L89.5945 104.675L91.0386 105.356L84.0806 119.748ZM129.979 117.541C129.661 117.743 129.281 117.907 128.838 118.033C128.395 118.159 127.933 118.222 127.452 118.222C126.445 118.222 125.679 117.962 125.154 117.442C124.634 116.917 124.375 116.228 124.375 115.374V110.673H122.446V109.335H124.375V107.399L126.213 107.177V109.335H129.134L128.928 110.673H126.213V115.358C126.213 115.823 126.327 116.17 126.557 116.4C126.792 116.624 127.175 116.736 127.706 116.736C128.023 116.736 128.313 116.698 128.576 116.622C128.844 116.545 129.09 116.446 129.314 116.326L129.979 117.541ZM139.207 115.875C139.207 116.219 139.259 116.468 139.363 116.622C139.467 116.775 139.634 116.89 139.863 116.966L139.453 118.213C139.027 118.164 138.657 118.046 138.346 117.861C138.039 117.675 137.809 117.393 137.656 117.015C137.339 117.42 136.937 117.724 136.45 117.926C135.963 118.123 135.444 118.222 134.891 118.222C134.01 118.222 133.316 117.975 132.807 117.483C132.298 116.985 132.044 116.334 132.044 115.53C132.044 114.617 132.4 113.914 133.111 113.422C133.822 112.929 134.839 112.683 136.163 112.683H137.402V112.117C137.402 111.554 137.232 111.151 136.893 110.911C136.554 110.665 136.081 110.542 135.474 110.542C135.189 110.542 134.845 110.58 134.44 110.656C134.035 110.728 133.611 110.84 133.168 110.993L132.717 109.696C133.258 109.494 133.789 109.346 134.309 109.253C134.828 109.155 135.31 109.106 135.753 109.106C136.912 109.106 137.777 109.363 138.346 109.877C138.92 110.391 139.207 111.102 139.207 112.01V115.875ZM135.449 116.868C135.821 116.868 136.185 116.769 136.54 116.572C136.896 116.375 137.183 116.099 137.402 115.744V113.832H136.384C135.52 113.832 134.902 113.977 134.53 114.267C134.158 114.551 133.972 114.945 133.972 115.448C133.972 116.395 134.464 116.868 135.449 116.868ZM145.884 105.093C146.245 105.093 146.535 105.203 146.753 105.422C146.978 105.64 147.09 105.914 147.09 106.242C147.09 106.57 146.978 106.846 146.753 107.071C146.535 107.295 146.245 107.407 145.884 107.407C145.534 107.407 145.246 107.295 145.022 107.071C144.798 106.846 144.686 106.57 144.686 106.242C144.686 105.914 144.798 105.64 145.022 105.422C145.246 105.203 145.534 105.093 145.884 105.093ZM147.164 109.335V116.654H149.518V118H142.733V116.654H145.326V110.681H142.815V109.335H147.164ZM156.08 105.856V115.637C156.08 116.036 156.201 116.321 156.441 116.49C156.687 116.654 157.005 116.736 157.393 116.736C157.639 116.736 157.874 116.712 158.099 116.663C158.328 116.608 158.55 116.537 158.763 116.449L159.231 117.729C158.974 117.861 158.657 117.975 158.279 118.074C157.907 118.172 157.481 118.222 156.999 118.222C156.129 118.222 155.451 117.975 154.964 117.483C154.483 116.991 154.242 116.321 154.242 115.473V107.21H151.625V105.856H156.08ZM168.894 118H166.597L165.62 111.846L164.57 118H162.322L160.853 109.335H162.625L163.528 116.859L164.734 110.435H166.572L167.696 116.859L168.599 109.335H170.305L168.894 118ZM175.415 105.093C175.776 105.093 176.066 105.203 176.285 105.422C176.509 105.64 176.621 105.914 176.621 106.242C176.621 106.57 176.509 106.846 176.285 107.071C176.066 107.295 175.776 107.407 175.415 107.407C175.065 107.407 174.778 107.295 174.553 107.071C174.329 106.846 174.217 106.57 174.217 106.242C174.217 105.914 174.329 105.64 174.553 105.422C174.778 105.203 175.065 105.093 175.415 105.093ZM176.695 109.335V116.654H179.05V118H172.264V116.654H174.857V110.681H172.346V109.335H176.695ZM181.804 118V109.335H183.388L183.527 110.459C183.888 110.022 184.315 109.688 184.807 109.458C185.3 109.223 185.806 109.106 186.325 109.106C187.135 109.106 187.739 109.333 188.139 109.787C188.543 110.241 188.746 110.872 188.746 111.682V118H186.908V112.593C186.908 111.843 186.831 111.31 186.678 110.993C186.53 110.67 186.194 110.509 185.669 110.509C185.248 110.509 184.862 110.64 184.512 110.903C184.167 111.16 183.877 111.452 183.642 111.781V118H181.804ZM196.735 105.651L198.573 105.856V118H196.957L196.825 116.933C196.53 117.344 196.177 117.661 195.767 117.885C195.357 118.109 194.897 118.222 194.389 118.222C193.645 118.222 193.032 118.033 192.551 117.655C192.075 117.272 191.719 116.739 191.484 116.055C191.249 115.372 191.131 114.576 191.131 113.668C191.131 112.787 191.268 112.005 191.541 111.321C191.815 110.632 192.206 110.09 192.715 109.696C193.223 109.303 193.836 109.106 194.553 109.106C195.444 109.106 196.172 109.42 196.735 110.049V105.651ZM195.037 110.517C194.419 110.517 193.937 110.774 193.593 111.288C193.248 111.797 193.076 112.59 193.076 113.668C193.076 114.773 193.232 115.574 193.543 116.072C193.861 116.564 194.304 116.81 194.873 116.81C195.288 116.81 195.649 116.69 195.956 116.449C196.262 116.209 196.522 115.919 196.735 115.579V111.477C196.522 111.171 196.273 110.935 195.989 110.771C195.704 110.602 195.387 110.517 195.037 110.517ZM201.566 114.275V112.765H208.343V114.275H201.566ZM215.512 116.712C215.917 116.712 216.294 116.641 216.644 116.498C216.994 116.356 217.328 116.176 217.645 115.957L218.499 117.138C218.121 117.461 217.662 117.724 217.12 117.926C216.584 118.123 216.029 118.222 215.454 118.222C214.568 118.222 213.808 118.036 213.173 117.664C212.544 117.286 212.063 116.761 211.729 116.088C211.401 115.41 211.237 114.617 211.237 113.709C211.237 112.828 211.404 112.043 211.738 111.354C212.077 110.659 212.564 110.112 213.198 109.713C213.833 109.308 214.596 109.106 215.487 109.106C216.647 109.106 217.648 109.453 218.49 110.148L217.645 111.305C217.306 111.069 216.959 110.892 216.603 110.771C216.248 110.645 215.887 110.583 215.52 110.583C214.831 110.583 214.27 110.834 213.838 111.337C213.406 111.841 213.19 112.631 213.19 113.709C213.19 114.792 213.409 115.563 213.846 116.023C214.284 116.482 214.839 116.712 215.512 116.712ZM224.33 116.81C224.904 116.81 225.361 116.709 225.7 116.507C226.039 116.299 226.209 116.014 226.209 115.653C226.209 115.418 226.16 115.218 226.061 115.054C225.963 114.89 225.766 114.737 225.471 114.595C225.175 114.453 224.727 114.305 224.125 114.152C223.556 114.004 223.056 113.829 222.623 113.627C222.197 113.424 221.866 113.162 221.631 112.839C221.395 112.516 221.278 112.101 221.278 111.592C221.278 110.848 221.587 110.249 222.205 109.795C222.828 109.335 223.674 109.106 224.74 109.106C225.468 109.106 226.102 109.201 226.644 109.393C227.185 109.584 227.648 109.822 228.031 110.107L227.259 111.264C226.92 111.039 226.548 110.856 226.143 110.714C225.744 110.572 225.293 110.501 224.79 110.501C224.204 110.501 223.783 110.588 223.526 110.763C223.274 110.938 223.148 111.171 223.148 111.461C223.148 111.679 223.211 111.86 223.337 112.002C223.468 112.144 223.693 112.278 224.01 112.404C224.327 112.53 224.776 112.672 225.356 112.831C225.919 112.984 226.409 113.164 226.824 113.372C227.246 113.58 227.571 113.856 227.801 114.201C228.036 114.54 228.154 114.983 228.154 115.53C228.154 116.154 227.973 116.665 227.612 117.065C227.251 117.458 226.781 117.751 226.201 117.943C225.621 118.129 224.997 118.222 224.33 118.222C223.526 118.222 222.831 118.107 222.246 117.877C221.661 117.642 221.168 117.349 220.769 116.999L221.745 115.883C222.085 116.157 222.473 116.381 222.911 116.556C223.348 116.725 223.821 116.81 224.33 116.81ZM234.174 116.81C234.748 116.81 235.205 116.709 235.544 116.507C235.883 116.299 236.053 116.014 236.053 115.653C236.053 115.418 236.004 115.218 235.905 115.054C235.807 114.89 235.61 114.737 235.314 114.595C235.019 114.453 234.57 114.305 233.969 114.152C233.4 114.004 232.899 113.829 232.467 113.627C232.04 113.424 231.71 113.162 231.474 112.839C231.239 112.516 231.121 112.101 231.121 111.592C231.121 110.848 231.431 110.249 232.049 109.795C232.672 109.335 233.517 109.106 234.584 109.106C235.312 109.106 235.946 109.201 236.488 109.393C237.029 109.584 237.491 109.822 237.874 110.107L237.103 111.264C236.764 111.039 236.392 110.856 235.987 110.714C235.588 110.572 235.137 110.501 234.633 110.501C234.048 110.501 233.627 110.588 233.37 110.763C233.118 110.938 232.992 111.171 232.992 111.461C232.992 111.679 233.055 111.86 233.181 112.002C233.312 112.144 233.537 112.278 233.854 112.404C234.171 112.53 234.62 112.672 235.199 112.831C235.763 112.984 236.252 113.164 236.668 113.372C237.089 113.58 237.415 113.856 237.645 114.201C237.88 114.54 237.997 114.983 237.997 115.53C237.997 116.154 237.817 116.665 237.456 117.065C237.095 117.458 236.624 117.751 236.045 117.943C235.465 118.129 234.841 118.222 234.174 118.222C233.37 118.222 232.675 118.107 232.09 117.877C231.504 117.642 231.012 117.349 230.613 116.999L231.589 115.883C231.928 116.157 232.317 116.381 232.754 116.556C233.192 116.725 233.665 116.81 234.174 116.81ZM241.581 119.748L240.12 119.091L247.094 104.675L248.539 105.356L241.581 119.748ZM18.6862 127.106C19.452 127.106 20.0646 127.294 20.5241 127.672C20.9836 128.044 21.3173 128.572 21.5251 129.255C21.733 129.934 21.8369 130.732 21.8369 131.651C21.8369 132.532 21.7111 133.317 21.4595 134.006C21.2079 134.695 20.8332 135.237 20.3354 135.631C19.8431 136.025 19.2304 136.222 18.4974 136.222C17.5894 136.222 16.8564 135.902 16.2985 135.262V139.331L14.4605 139.536V127.335H16.0605L16.1754 128.451C16.5036 128.008 16.8838 127.675 17.3159 127.45C17.748 127.221 18.2048 127.106 18.6862 127.106ZM18.1774 128.525C17.7672 128.525 17.4034 128.648 17.0862 128.894C16.7744 129.141 16.5118 129.43 16.2985 129.764V133.817C16.7306 134.463 17.3022 134.786 18.0133 134.786C18.6315 134.786 19.1019 134.537 19.4246 134.039C19.7474 133.541 19.9087 132.748 19.9087 131.659C19.9087 130.549 19.7638 129.75 19.4738 129.264C19.1894 128.771 18.7573 128.525 18.1774 128.525ZM31.8858 127.335L28.8991 136.033C28.6749 136.689 28.3877 137.269 28.0376 137.772C27.6875 138.276 27.239 138.678 26.692 138.978C26.1449 139.285 25.4667 139.474 24.6571 139.545L24.4191 138.166C25.0044 138.073 25.4694 137.936 25.814 137.756C26.1641 137.581 26.4403 137.348 26.6427 137.058C26.8506 136.774 27.0338 136.421 27.1925 136H26.5689L23.6479 127.335H25.6007L27.7832 134.72L29.9986 127.335H31.8858ZM41.3849 135.541C41.0677 135.743 40.6875 135.907 40.2444 136.033C39.8013 136.159 39.3391 136.222 38.8578 136.222C37.8513 136.222 37.0854 135.962 36.5603 135.442C36.0407 134.917 35.7808 134.228 35.7808 133.374V128.673H33.8526V127.335H35.7808V125.399L37.6188 125.177V127.335H40.5398L40.3347 128.673H37.6188V133.358C37.6188 133.823 37.7337 134.17 37.9634 134.4C38.1986 134.624 38.5815 134.736 39.1121 134.736C39.4294 134.736 39.7193 134.698 39.9819 134.622C40.2499 134.545 40.496 134.446 40.7203 134.326L41.3849 135.541ZM45.8297 123.676V128.394C46.1798 127.967 46.5873 127.647 47.0523 127.434C47.5227 127.215 48.0095 127.106 48.5128 127.106C49.3278 127.106 49.935 127.333 50.3343 127.787C50.7336 128.241 50.9333 128.872 50.9333 129.682V136H49.0954V129.969C49.0954 129.45 48.9969 129.078 48.8 128.853C48.603 128.624 48.2858 128.509 47.8482 128.509C47.4379 128.509 47.0577 128.643 46.7077 128.911C46.3576 129.173 46.0649 129.471 45.8297 129.805V136H43.9918V123.873L45.8297 123.676ZM57.3063 127.106C58.5753 127.106 59.5435 127.519 60.2109 128.345C60.8782 129.171 61.2119 130.273 61.2119 131.651C61.2119 132.57 61.0588 133.372 60.7524 134.055C60.4516 134.739 60.0085 135.272 59.4232 135.655C58.8434 136.033 58.135 136.222 57.2981 136.222C56.0345 136.222 55.0663 135.814 54.3935 134.999C53.7206 134.178 53.3842 133.068 53.3842 131.668C53.3842 130.771 53.5347 129.98 53.8355 129.296C54.1418 128.607 54.5876 128.071 55.1729 127.688C55.7582 127.3 56.4694 127.106 57.3063 127.106ZM57.3063 128.533C56.6444 128.533 56.1466 128.788 55.8129 129.296C55.4793 129.8 55.3124 130.59 55.3124 131.668C55.3124 132.745 55.4765 133.538 55.8047 134.047C56.1384 134.55 56.6362 134.802 57.2981 134.802C57.96 134.802 58.455 134.548 58.7832 134.039C59.1169 133.53 59.2837 132.734 59.2837 131.651C59.2837 130.585 59.1196 129.8 58.7914 129.296C58.4632 128.788 57.9682 128.533 57.3063 128.533ZM63.6793 136V127.335H65.2629L65.4023 128.459C65.7634 128.022 66.19 127.688 66.6823 127.458C67.1746 127.223 67.6806 127.106 68.2003 127.106C69.0099 127.106 69.6143 127.333 70.0136 127.787C70.4184 128.241 70.6208 128.872 70.6208 129.682V136H68.7829V130.593C68.7829 129.843 68.7063 129.31 68.5531 128.993C68.4054 128.67 68.069 128.509 67.5439 128.509C67.1227 128.509 66.737 128.64 66.387 128.903C66.0423 129.16 65.7524 129.452 65.5172 129.781V136H63.6793ZM74.2369 137.748L72.7763 137.091L79.7507 122.675L81.1948 123.356L74.2369 137.748ZM117.124 127.106C117.889 127.106 118.502 127.294 118.962 127.672C119.421 128.044 119.755 128.572 119.963 129.255C120.17 129.934 120.274 130.732 120.274 131.651C120.274 132.532 120.149 133.317 119.897 134.006C119.645 134.695 119.271 135.237 118.773 135.631C118.281 136.025 117.668 136.222 116.935 136.222C116.027 136.222 115.294 135.902 114.736 135.262V139.331L112.898 139.536V127.335H114.498L114.613 128.451C114.941 128.008 115.321 127.675 115.753 127.45C116.186 127.221 116.642 127.106 117.124 127.106ZM116.615 128.525C116.205 128.525 115.841 128.648 115.524 128.894C115.212 129.141 114.949 129.43 114.736 129.764V133.817C115.168 134.463 115.74 134.786 116.451 134.786C117.069 134.786 117.539 134.537 117.862 134.039C118.185 133.541 118.346 132.748 118.346 131.659C118.346 130.549 118.201 129.75 117.911 129.264C117.627 128.771 117.195 128.525 116.615 128.525ZM124.58 123.676V128.394C124.93 127.967 125.337 127.647 125.802 127.434C126.273 127.215 126.76 127.106 127.263 127.106C128.078 127.106 128.685 127.333 129.084 127.787C129.484 128.241 129.683 128.872 129.683 129.682V136H127.845V129.969C127.845 129.45 127.747 129.078 127.55 128.853C127.353 128.624 127.036 128.509 126.598 128.509C126.188 128.509 125.808 128.643 125.458 128.911C125.108 129.173 124.815 129.471 124.58 129.805V136H122.742V123.873L124.58 123.676ZM136.811 127.106C137.577 127.106 138.19 127.294 138.649 127.672C139.109 128.044 139.442 128.572 139.65 129.255C139.858 129.934 139.962 130.732 139.962 131.651C139.962 132.532 139.836 133.317 139.584 134.006C139.333 134.695 138.958 135.237 138.46 135.631C137.968 136.025 137.355 136.222 136.622 136.222C135.714 136.222 134.981 135.902 134.423 135.262V139.331L132.586 139.536V127.335H134.186L134.3 128.451C134.629 128.008 135.009 127.675 135.441 127.45C135.873 127.221 136.33 127.106 136.811 127.106ZM136.302 128.525C135.892 128.525 135.528 128.648 135.211 128.894C134.899 129.141 134.637 129.43 134.423 129.764V133.817C134.856 134.463 135.427 134.786 136.138 134.786C136.756 134.786 137.227 134.537 137.55 134.039C137.872 133.541 138.034 132.748 138.034 131.659C138.034 130.549 137.889 129.75 137.599 129.264C137.314 128.771 136.882 128.525 136.302 128.525ZM143.143 137.748L141.683 137.091L148.657 122.675L150.101 123.356L143.143 137.748ZM189.099 126.236L189.591 127.762C189.246 127.877 188.866 127.954 188.45 127.992C188.04 128.03 187.581 128.049 187.072 128.049C187.592 128.279 187.983 128.574 188.245 128.935C188.508 129.291 188.639 129.729 188.639 130.248C188.639 130.812 188.502 131.315 188.229 131.758C187.955 132.201 187.562 132.548 187.047 132.8C186.539 133.052 185.931 133.177 185.226 133.177C184.974 133.177 184.755 133.166 184.569 133.145C184.389 133.123 184.211 133.087 184.036 133.038C183.779 133.208 183.65 133.445 183.65 133.752C183.65 133.927 183.722 134.08 183.864 134.211C184.011 134.337 184.301 134.4 184.733 134.4H186.243C186.861 134.4 187.406 134.507 187.876 134.72C188.352 134.928 188.724 135.215 188.992 135.582C189.265 135.943 189.402 136.353 189.402 136.812C189.402 137.677 189.03 138.347 188.286 138.823C187.542 139.298 186.47 139.536 185.07 139.536C184.074 139.536 183.295 139.435 182.731 139.233C182.173 139.03 181.78 138.73 181.55 138.33C181.32 137.931 181.205 137.441 181.205 136.862H182.855C182.855 137.168 182.912 137.419 183.027 137.616C183.147 137.813 183.369 137.958 183.691 138.051C184.014 138.15 184.479 138.199 185.086 138.199C185.989 138.199 186.626 138.087 186.998 137.863C187.37 137.644 187.556 137.335 187.556 136.935C187.556 136.58 187.403 136.306 187.097 136.115C186.79 135.929 186.38 135.836 185.866 135.836H184.381C183.56 135.836 182.958 135.669 182.576 135.335C182.198 135.002 182.009 134.613 182.009 134.17C182.009 133.547 182.332 133.024 182.978 132.603C182.458 132.33 182.078 131.999 181.837 131.61C181.602 131.216 181.484 130.741 181.484 130.183C181.484 129.57 181.637 129.034 181.944 128.574C182.25 128.115 182.674 127.757 183.216 127.499C183.763 127.242 184.392 127.114 185.103 127.114C185.797 127.119 186.377 127.084 186.842 127.007C187.307 126.931 187.712 126.827 188.057 126.695C188.407 126.559 188.754 126.405 189.099 126.236ZM185.119 128.377C184.534 128.377 184.093 128.544 183.798 128.878C183.503 129.206 183.355 129.636 183.355 130.166C183.355 130.713 183.505 131.154 183.806 131.487C184.107 131.815 184.553 131.979 185.144 131.979C185.685 131.979 186.098 131.821 186.383 131.504C186.673 131.186 186.818 130.735 186.818 130.15C186.818 128.968 186.251 128.377 185.119 128.377ZM196.735 123.651L198.573 123.856V136H196.957L196.825 134.933C196.53 135.344 196.177 135.661 195.767 135.885C195.357 136.109 194.897 136.222 194.389 136.222C193.645 136.222 193.032 136.033 192.551 135.655C192.075 135.272 191.719 134.739 191.484 134.055C191.249 133.372 191.131 132.576 191.131 131.668C191.131 130.787 191.268 130.005 191.541 129.321C191.815 128.632 192.206 128.09 192.715 127.696C193.223 127.303 193.836 127.106 194.553 127.106C195.444 127.106 196.172 127.42 196.735 128.049V123.651ZM195.037 128.517C194.419 128.517 193.937 128.774 193.593 129.288C193.248 129.797 193.076 130.59 193.076 131.668C193.076 132.773 193.232 133.574 193.543 134.072C193.861 134.564 194.304 134.81 194.873 134.81C195.288 134.81 195.649 134.69 195.956 134.449C196.262 134.209 196.522 133.919 196.735 133.579V129.477C196.522 129.171 196.273 128.935 195.989 128.771C195.704 128.602 195.387 128.517 195.037 128.517ZM204.643 134.81C205.217 134.81 205.674 134.709 206.013 134.507C206.352 134.299 206.522 134.014 206.522 133.653C206.522 133.418 206.472 133.218 206.374 133.054C206.275 132.89 206.078 132.737 205.783 132.595C205.488 132.453 205.039 132.305 204.437 132.152C203.869 132.004 203.368 131.829 202.936 131.627C202.509 131.424 202.178 131.162 201.943 130.839C201.708 130.516 201.59 130.101 201.59 129.592C201.59 128.848 201.899 128.249 202.517 127.795C203.141 127.335 203.986 127.106 205.053 127.106C205.78 127.106 206.415 127.201 206.956 127.393C207.498 127.584 207.96 127.822 208.343 128.107L207.572 129.264C207.233 129.039 206.861 128.856 206.456 128.714C206.057 128.572 205.605 128.501 205.102 128.501C204.517 128.501 204.096 128.588 203.838 128.763C203.587 128.938 203.461 129.171 203.461 129.461C203.461 129.679 203.524 129.86 203.65 130.002C203.781 130.144 204.005 130.278 204.323 130.404C204.64 130.53 205.088 130.672 205.668 130.831C206.232 130.984 206.721 131.164 207.137 131.372C207.558 131.58 207.884 131.856 208.113 132.201C208.349 132.54 208.466 132.983 208.466 133.53C208.466 134.154 208.286 134.665 207.925 135.065C207.564 135.458 207.093 135.751 206.513 135.943C205.933 136.129 205.31 136.222 204.643 136.222C203.838 136.222 203.144 136.107 202.558 135.877C201.973 135.642 201.481 135.349 201.082 134.999L202.058 133.883C202.397 134.157 202.785 134.381 203.223 134.556C203.661 134.725 204.134 134.81 204.643 134.81ZM215.512 134.712C215.917 134.712 216.294 134.641 216.644 134.498C216.994 134.356 217.328 134.176 217.645 133.957L218.499 135.138C218.121 135.461 217.662 135.724 217.12 135.926C216.584 136.123 216.029 136.222 215.454 136.222C214.568 136.222 213.808 136.036 213.173 135.664C212.544 135.286 212.063 134.761 211.729 134.088C211.401 133.41 211.237 132.617 211.237 131.709C211.237 130.828 211.404 130.043 211.738 129.354C212.077 128.659 212.564 128.112 213.198 127.713C213.833 127.308 214.596 127.106 215.487 127.106C216.647 127.106 217.648 127.453 218.49 128.148L217.645 129.305C217.306 129.069 216.959 128.892 216.603 128.771C216.248 128.645 215.887 128.583 215.52 128.583C214.831 128.583 214.27 128.834 213.838 129.337C213.406 129.841 213.19 130.631 213.19 131.709C213.19 132.792 213.409 133.563 213.846 134.023C214.284 134.482 214.839 134.712 215.512 134.712ZM221.261 136V134.687H222.533V128.64H221.261V127.335H223.936L224.273 129.346C224.595 128.618 224.995 128.066 225.471 127.688C225.952 127.305 226.57 127.114 227.325 127.114C227.582 127.114 227.812 127.136 228.014 127.179C228.222 127.218 228.427 127.27 228.63 127.335L228.318 130.527H227.005V128.763C226.392 128.785 225.864 129.031 225.421 129.502C224.978 129.966 224.628 130.623 224.371 131.471V134.687H226.119V136H221.261ZM234.477 123.093C234.838 123.093 235.128 123.203 235.347 123.422C235.571 123.64 235.684 123.914 235.684 124.242C235.684 124.57 235.571 124.846 235.347 125.071C235.128 125.295 234.838 125.407 234.477 125.407C234.127 125.407 233.84 125.295 233.616 125.071C233.392 124.846 233.279 124.57 233.279 124.242C233.279 123.914 233.392 123.64 233.616 123.422C233.84 123.203 234.127 123.093 234.477 123.093ZM235.757 127.335V134.654H238.112V136H231.327V134.654H233.919V128.681H231.409V127.335H235.757ZM245.092 127.106C245.858 127.106 246.471 127.294 246.93 127.672C247.39 128.044 247.724 128.572 247.931 129.255C248.139 129.934 248.243 130.732 248.243 131.651C248.243 132.532 248.117 133.317 247.866 134.006C247.614 134.695 247.239 135.237 246.742 135.631C246.249 136.025 245.637 136.222 244.904 136.222C243.996 136.222 243.263 135.902 242.705 135.262V139.331L240.867 139.536V127.335H242.467L242.582 128.451C242.91 128.008 243.29 127.675 243.722 127.45C244.154 127.221 244.611 127.106 245.092 127.106ZM244.584 128.525C244.173 128.525 243.81 128.648 243.492 128.894C243.181 129.141 242.918 129.43 242.705 129.764V133.817C243.137 134.463 243.708 134.786 244.42 134.786C245.038 134.786 245.508 134.537 245.831 134.039C246.154 133.541 246.315 132.748 246.315 131.659C246.315 130.549 246.17 129.75 245.88 129.264C245.596 128.771 245.164 128.525 244.584 128.525ZM257.947 135.541C257.63 135.743 257.25 135.907 256.807 136.033C256.364 136.159 255.902 136.222 255.42 136.222C254.414 136.222 253.648 135.962 253.123 135.442C252.603 134.917 252.343 134.228 252.343 133.374V128.673H250.415V127.335H252.343V125.399L254.181 125.177V127.335H257.102L256.897 128.673H254.181V133.358C254.181 133.823 254.296 134.17 254.526 134.4C254.761 134.624 255.144 134.736 255.675 134.736C255.992 134.736 256.282 134.698 256.544 134.622C256.812 134.545 257.059 134.446 257.283 134.326L257.947 135.541ZM261.268 137.748L259.808 137.091L266.782 122.675L268.226 123.356L261.268 137.748ZM14.5426 154V152.687H15.8144V146.64H14.5426V145.335H17.2174L17.5538 147.346C17.8766 146.618 18.2759 146.066 18.7518 145.688C19.2332 145.305 19.8513 145.114 20.6062 145.114C20.8632 145.114 21.093 145.136 21.2954 145.179C21.5032 145.218 21.7084 145.27 21.9108 145.335L21.599 148.527H20.2862V146.763C19.6735 146.785 19.1456 147.031 18.7026 147.502C18.2595 147.966 17.9094 148.623 17.6523 149.471V152.687H19.4V154H14.5426ZM25.8304 150.258C25.8851 151.15 26.134 151.796 26.5771 152.195C27.0256 152.594 27.5644 152.794 28.1935 152.794C28.6147 152.794 29.0058 152.728 29.3668 152.597C29.7333 152.466 30.0998 152.28 30.4663 152.039L31.2622 153.138C30.8574 153.467 30.3843 153.729 29.8427 153.926C29.3012 154.123 28.7214 154.222 28.1032 154.222C27.2007 154.222 26.4376 154.03 25.814 153.647C25.1959 153.264 24.7255 152.731 24.4027 152.047C24.0855 151.363 23.9268 150.573 23.9268 149.676C23.9268 148.806 24.0855 148.029 24.4027 147.346C24.72 146.656 25.174 146.112 25.7648 145.713C26.3555 145.308 27.0612 145.106 27.8817 145.106C29.0304 145.106 29.9385 145.491 30.6058 146.263C31.2786 147.034 31.615 148.092 31.615 149.438C31.615 149.586 31.6096 149.733 31.5986 149.881C31.5932 150.023 31.5849 150.149 31.574 150.258H25.8304ZM27.8981 146.468C27.3238 146.468 26.8479 146.673 26.4704 147.083C26.093 147.493 25.8769 148.133 25.8222 149.003H29.8345C29.8181 148.188 29.6431 147.562 29.3094 147.124C28.9812 146.686 28.5108 146.468 27.8981 146.468ZM40.7696 151.875C40.7696 152.219 40.8215 152.468 40.9254 152.622C41.0294 152.775 41.1962 152.89 41.426 152.966L41.0157 154.213C40.589 154.164 40.2198 154.046 39.908 153.861C39.6017 153.675 39.3719 153.393 39.2188 153.015C38.9015 153.42 38.4995 153.724 38.0126 153.926C37.5258 154.123 37.0061 154.222 36.4537 154.222C35.573 154.222 34.8783 153.975 34.3696 153.483C33.8608 152.985 33.6065 152.334 33.6065 151.53C33.6065 150.617 33.962 149.914 34.6731 149.422C35.3843 148.929 36.4017 148.683 37.7254 148.683H38.9644V148.117C38.9644 147.554 38.7949 147.151 38.4557 146.911C38.1166 146.665 37.6434 146.542 37.0362 146.542C36.7518 146.542 36.4072 146.58 36.0024 146.656C35.5976 146.728 35.1737 146.84 34.7306 146.993L34.2793 145.696C34.8208 145.494 35.3514 145.346 35.8711 145.253C36.3907 145.155 36.8721 145.106 37.3152 145.106C38.4749 145.106 39.3391 145.363 39.908 145.877C40.4824 146.391 40.7696 147.102 40.7696 148.01V151.875ZM37.0116 152.868C37.3836 152.868 37.7473 152.769 38.1029 152.572C38.4584 152.375 38.7456 152.099 38.9644 151.744V149.832H37.947C37.0827 149.832 36.4646 149.977 36.0926 150.267C35.7207 150.551 35.5347 150.945 35.5347 151.448C35.5347 152.395 36.027 152.868 37.0116 152.868ZM48.1682 152.712C48.573 152.712 48.9504 152.641 49.3005 152.498C49.6506 152.356 49.9842 152.176 50.3015 151.957L51.1548 153.138C50.7774 153.461 50.3179 153.724 49.7764 153.926C49.2403 154.123 48.6851 154.222 48.1107 154.222C47.2246 154.222 46.4642 154.036 45.8297 153.664C45.2007 153.286 44.7193 152.761 44.3856 152.088C44.0574 151.41 43.8933 150.617 43.8933 149.709C43.8933 148.828 44.0601 148.043 44.3938 147.354C44.733 146.659 45.2198 146.112 45.8543 145.713C46.4889 145.308 47.2519 145.106 48.1436 145.106C49.3032 145.106 50.3042 145.453 51.1466 146.148L50.3015 147.305C49.9624 147.069 49.615 146.892 49.2595 146.771C48.9039 146.645 48.5429 146.583 48.1764 146.583C47.4871 146.583 46.9265 146.834 46.4943 147.337C46.0622 147.841 45.8461 148.631 45.8461 149.709C45.8461 150.792 46.0649 151.563 46.5025 152.023C46.9401 152.482 47.4954 152.712 48.1682 152.712ZM61.0724 153.541C60.7552 153.743 60.375 153.907 59.9319 154.033C59.4888 154.159 59.0266 154.222 58.5453 154.222C57.5388 154.222 56.7729 153.962 56.2478 153.442C55.7282 152.917 55.4683 152.228 55.4683 151.374V146.673H53.5401V145.335H55.4683V143.399L57.3063 143.177V145.335H60.2273L60.0222 146.673H57.3063V151.358C57.3063 151.823 57.4212 152.17 57.6509 152.4C57.8861 152.624 58.269 152.736 58.7996 152.736C59.1169 152.736 59.4068 152.698 59.6694 152.622C59.9374 152.545 60.1835 152.446 60.4078 152.326L61.0724 153.541ZM63.7531 150.275V148.765H70.5305V150.275H63.7531ZM73.523 154V145.335H75.1066L75.2461 146.459C75.6071 146.022 76.0338 145.688 76.5261 145.458C77.0184 145.223 77.5244 145.106 78.044 145.106C78.8536 145.106 79.4581 145.333 79.8574 145.787C80.2622 146.241 80.4646 146.872 80.4646 147.682V154H78.6266V148.593C78.6266 147.843 78.55 147.31 78.3969 146.993C78.2492 146.67 77.9128 146.509 77.3876 146.509C76.9664 146.509 76.5808 146.64 76.2307 146.903C75.8861 147.16 75.5962 147.452 75.361 147.781V154H73.523ZM89.9883 151.875C89.9883 152.219 90.0403 152.468 90.1442 152.622C90.2481 152.775 90.415 152.89 90.6447 152.966L90.2345 154.213C89.8078 154.164 89.4386 154.046 89.1268 153.861C88.8204 153.675 88.5907 153.393 88.4375 153.015C88.1203 153.42 87.7182 153.724 87.2314 153.926C86.7445 154.123 86.2249 154.222 85.6724 154.222C84.7917 154.222 84.097 153.975 83.5883 153.483C83.0796 152.985 82.8252 152.334 82.8252 151.53C82.8252 150.617 83.1808 149.914 83.8919 149.422C84.603 148.929 85.6204 148.683 86.9442 148.683H88.1832V148.117C88.1832 147.554 88.0136 147.151 87.6745 146.911C87.3353 146.665 86.8621 146.542 86.255 146.542C85.9705 146.542 85.6259 146.58 85.2211 146.656C84.8163 146.728 84.3924 146.84 83.9493 146.993L83.498 145.696C84.0396 145.494 84.5702 145.346 85.0898 145.253C85.6095 145.155 86.0909 145.106 86.5339 145.106C87.6936 145.106 88.5579 145.363 89.1268 145.877C89.7011 146.391 89.9883 147.102 89.9883 148.01V151.875ZM86.2304 152.868C86.6023 152.868 86.9661 152.769 87.3216 152.572C87.6772 152.375 87.9644 152.099 88.1832 151.744V149.832H87.1657C86.3015 149.832 85.6833 149.977 85.3114 150.267C84.9394 150.551 84.7534 150.945 84.7534 151.448C84.7534 152.395 85.2457 152.868 86.2304 152.868ZM100.447 153.541C100.13 153.743 99.75 153.907 99.3069 154.033C98.8638 154.159 98.4016 154.222 97.9203 154.222C96.9138 154.222 96.1479 153.962 95.6228 153.442C95.1032 152.917 94.8433 152.228 94.8433 151.374V146.673H92.9151V145.335H94.8433V143.399L96.6813 143.177V145.335H99.6023L99.3972 146.673H96.6813V151.358C96.6813 151.823 96.7962 152.17 97.0259 152.4C97.2611 152.624 97.644 152.736 98.1746 152.736C98.4919 152.736 98.7818 152.698 99.0444 152.622C99.3124 152.545 99.5585 152.446 99.7828 152.326L100.447 153.541ZM106.509 141.093C106.87 141.093 107.16 141.203 107.378 141.422C107.603 141.64 107.715 141.914 107.715 142.242C107.715 142.57 107.603 142.846 107.378 143.071C107.16 143.295 106.87 143.407 106.509 143.407C106.159 143.407 105.871 143.295 105.647 143.071C105.423 142.846 105.311 142.57 105.311 142.242C105.311 141.914 105.423 141.64 105.647 141.422C105.871 141.203 106.159 141.093 106.509 141.093ZM107.789 145.335V152.654H110.143V154H103.358V152.654H105.951V146.681H103.44V145.335H107.789ZM120.488 145.335L117.435 154H115.286L112.233 145.335H114.203L116.402 152.474L118.609 145.335H120.488ZM124.268 150.258C124.323 151.15 124.572 151.796 125.015 152.195C125.463 152.594 126.002 152.794 126.631 152.794C127.052 152.794 127.443 152.728 127.804 152.597C128.171 152.466 128.537 152.28 128.904 152.039L129.7 153.138C129.295 153.467 128.822 153.729 128.28 153.926C127.739 154.123 127.159 154.222 126.541 154.222C125.638 154.222 124.875 154.03 124.252 153.647C123.633 153.264 123.163 152.731 122.84 152.047C122.523 151.363 122.364 150.573 122.364 149.676C122.364 148.806 122.523 148.029 122.84 147.346C123.157 146.656 123.612 146.112 124.202 145.713C124.793 145.308 125.499 145.106 126.319 145.106C127.468 145.106 128.376 145.491 129.043 146.263C129.716 147.034 130.053 148.092 130.053 149.438C130.053 149.586 130.047 149.733 130.036 149.881C130.031 150.023 130.022 150.149 130.012 150.258H124.268ZM126.336 146.468C125.761 146.468 125.285 146.673 124.908 147.083C124.53 147.493 124.314 148.133 124.26 149.003H128.272C128.256 148.188 128.081 147.562 127.747 147.124C127.419 146.686 126.948 146.468 126.336 146.468ZM133.299 155.748L131.839 155.091L138.813 140.675L140.257 141.356L133.299 155.748ZM176.186 145.106C176.952 145.106 177.565 145.294 178.024 145.672C178.484 146.044 178.817 146.572 179.025 147.255C179.233 147.934 179.337 148.732 179.337 149.651C179.337 150.532 179.211 151.317 178.959 152.006C178.708 152.695 178.333 153.237 177.835 153.631C177.343 154.025 176.73 154.222 175.997 154.222C175.089 154.222 174.356 153.902 173.798 153.262V157.331L171.961 157.536V145.335H173.561L173.675 146.451C174.004 146.008 174.384 145.675 174.816 145.45C175.248 145.221 175.705 145.106 176.186 145.106ZM175.677 146.525C175.267 146.525 174.903 146.648 174.586 146.894C174.274 147.141 174.012 147.43 173.798 147.764V151.817C174.231 152.463 174.802 152.786 175.513 152.786C176.131 152.786 176.602 152.537 176.925 152.039C177.247 151.541 177.409 150.748 177.409 149.659C177.409 148.549 177.264 147.75 176.974 147.264C176.689 146.771 176.257 146.525 175.677 146.525ZM183.642 141.676V146.394C183.992 145.967 184.4 145.647 184.865 145.434C185.335 145.215 185.822 145.106 186.325 145.106C187.14 145.106 187.748 145.333 188.147 145.787C188.546 146.241 188.746 146.872 188.746 147.682V154H186.908V147.969C186.908 147.45 186.809 147.078 186.612 146.853C186.416 146.624 186.098 146.509 185.661 146.509C185.25 146.509 184.87 146.643 184.52 146.911C184.17 147.173 183.877 147.471 183.642 147.805V154H181.804V141.873L183.642 141.676ZM195.119 145.106C196.388 145.106 197.356 145.519 198.023 146.345C198.691 147.171 199.024 148.273 199.024 149.651C199.024 150.57 198.871 151.372 198.565 152.055C198.264 152.739 197.821 153.272 197.236 153.655C196.656 154.033 195.947 154.222 195.111 154.222C193.847 154.222 192.879 153.814 192.206 152.999C191.533 152.178 191.197 151.068 191.197 149.668C191.197 148.771 191.347 147.98 191.648 147.296C191.954 146.607 192.4 146.071 192.985 145.688C193.571 145.3 194.282 145.106 195.119 145.106ZM195.119 146.533C194.457 146.533 193.959 146.788 193.625 147.296C193.292 147.8 193.125 148.59 193.125 149.668C193.125 150.745 193.289 151.538 193.617 152.047C193.951 152.55 194.449 152.802 195.111 152.802C195.772 152.802 196.267 152.548 196.596 152.039C196.929 151.53 197.096 150.734 197.096 149.651C197.096 148.585 196.932 147.8 196.604 147.296C196.276 146.788 195.781 146.533 195.119 146.533ZM208.729 153.541C208.411 153.743 208.031 153.907 207.588 154.033C207.145 154.159 206.683 154.222 206.202 154.222C205.195 154.222 204.429 153.962 203.904 153.442C203.384 152.917 203.125 152.228 203.125 151.374V146.673H201.196V145.335H203.125V143.399L204.963 143.177V145.335H207.884L207.678 146.673H204.963V151.358C204.963 151.823 205.077 152.17 205.307 152.4C205.542 152.624 205.925 152.736 206.456 152.736C206.773 152.736 207.063 152.698 207.326 152.622C207.594 152.545 207.84 152.446 208.064 152.326L208.729 153.541ZM214.806 145.106C216.075 145.106 217.044 145.519 217.711 146.345C218.378 147.171 218.712 148.273 218.712 149.651C218.712 150.57 218.559 151.372 218.252 152.055C217.952 152.739 217.509 153.272 216.923 153.655C216.343 154.033 215.635 154.222 214.798 154.222C213.534 154.222 212.566 153.814 211.893 152.999C211.221 152.178 210.884 151.068 210.884 149.668C210.884 148.771 211.035 147.98 211.336 147.296C211.642 146.607 212.088 146.071 212.673 145.688C213.258 145.3 213.969 145.106 214.806 145.106ZM214.806 146.533C214.144 146.533 213.647 146.788 213.313 147.296C212.979 147.8 212.812 148.59 212.812 149.668C212.812 150.745 212.977 151.538 213.305 152.047C213.638 152.55 214.136 152.802 214.798 152.802C215.46 152.802 215.955 152.548 216.283 152.039C216.617 151.53 216.784 150.734 216.784 149.651C216.784 148.585 216.62 147.8 216.291 147.296C215.963 146.788 215.468 146.533 214.806 146.533ZM224.33 152.81C224.904 152.81 225.361 152.709 225.7 152.507C226.039 152.299 226.209 152.014 226.209 151.653C226.209 151.418 226.16 151.218 226.061 151.054C225.963 150.89 225.766 150.737 225.471 150.595C225.175 150.453 224.727 150.305 224.125 150.152C223.556 150.004 223.056 149.829 222.623 149.627C222.197 149.424 221.866 149.162 221.631 148.839C221.395 148.516 221.278 148.101 221.278 147.592C221.278 146.848 221.587 146.249 222.205 145.795C222.828 145.335 223.674 145.106 224.74 145.106C225.468 145.106 226.102 145.201 226.644 145.393C227.185 145.584 227.648 145.822 228.031 146.107L227.259 147.264C226.92 147.039 226.548 146.856 226.143 146.714C225.744 146.572 225.293 146.501 224.79 146.501C224.204 146.501 223.783 146.588 223.526 146.763C223.274 146.938 223.148 147.171 223.148 147.461C223.148 147.679 223.211 147.86 223.337 148.002C223.468 148.144 223.693 148.278 224.01 148.404C224.327 148.53 224.776 148.672 225.356 148.831C225.919 148.984 226.409 149.164 226.824 149.372C227.246 149.58 227.571 149.856 227.801 150.201C228.036 150.54 228.154 150.983 228.154 151.53C228.154 152.154 227.973 152.665 227.612 153.065C227.251 153.458 226.781 153.751 226.201 153.943C225.621 154.129 224.997 154.222 224.33 154.222C223.526 154.222 222.831 154.107 222.246 153.877C221.661 153.642 221.168 153.349 220.769 152.999L221.745 151.883C222.085 152.157 222.473 152.381 222.911 152.556C223.348 152.725 223.821 152.81 224.33 152.81ZM232.861 141.676V146.394C233.211 145.967 233.619 145.647 234.084 145.434C234.554 145.215 235.041 145.106 235.544 145.106C236.359 145.106 236.966 145.333 237.366 145.787C237.765 146.241 237.965 146.872 237.965 147.682V154H236.127V147.969C236.127 147.45 236.028 147.078 235.831 146.853C235.634 146.624 235.317 146.509 234.879 146.509C234.469 146.509 234.089 146.643 233.739 146.911C233.389 147.173 233.096 147.471 232.861 147.805V154H231.023V141.873L232.861 141.676ZM244.338 145.106C245.607 145.106 246.575 145.519 247.242 146.345C247.909 147.171 248.243 148.273 248.243 149.651C248.243 150.57 248.09 151.372 247.784 152.055C247.483 152.739 247.04 153.272 246.454 153.655C245.875 154.033 245.166 154.222 244.329 154.222C243.066 154.222 242.098 153.814 241.425 152.999C240.752 152.178 240.415 151.068 240.415 149.668C240.415 148.771 240.566 147.98 240.867 147.296C241.173 146.607 241.619 146.071 242.204 145.688C242.789 145.3 243.501 145.106 244.338 145.106ZM244.338 146.533C243.676 146.533 243.178 146.788 242.844 147.296C242.511 147.8 242.344 148.59 242.344 149.668C242.344 150.745 242.508 151.538 242.836 152.047C243.17 152.55 243.667 152.802 244.329 152.802C244.991 152.802 245.486 152.548 245.814 152.039C246.148 151.53 246.315 150.734 246.315 149.651C246.315 148.585 246.151 147.8 245.823 147.296C245.494 146.788 244.999 146.533 244.338 146.533ZM254.936 145.106C255.702 145.106 256.315 145.294 256.774 145.672C257.234 146.044 257.567 146.572 257.775 147.255C257.983 147.934 258.087 148.732 258.087 149.651C258.087 150.532 257.961 151.317 257.709 152.006C257.458 152.695 257.083 153.237 256.585 153.631C256.093 154.025 255.48 154.222 254.747 154.222C253.839 154.222 253.106 153.902 252.548 153.262V157.331L250.711 157.536V145.335H252.311L252.425 146.451C252.754 146.008 253.134 145.675 253.566 145.45C253.998 145.221 254.455 145.106 254.936 145.106ZM254.427 146.525C254.017 146.525 253.653 146.648 253.336 146.894C253.024 147.141 252.762 147.43 252.548 147.764V151.817C252.981 152.463 253.552 152.786 254.263 152.786C254.881 152.786 255.352 152.537 255.675 152.039C255.997 151.541 256.159 150.748 256.159 149.659C256.159 148.549 256.014 147.75 255.724 147.264C255.439 146.771 255.007 146.525 254.427 146.525ZM261.268 155.748L259.808 155.091L266.782 140.675L268.226 141.356L261.268 155.748ZM19.7282 159.651C20.2588 159.651 20.732 159.698 21.1477 159.791C21.5689 159.878 21.9573 159.999 22.3128 160.152L21.7713 161.424C21.4814 161.303 21.1778 161.216 20.8605 161.161C20.5487 161.106 20.2315 161.079 19.9087 161.079C18.7928 161.079 18.2349 161.528 18.2349 162.425V163.959H21.1313L20.9344 165.313H18.2349V172H16.4051V165.313H14.4359V163.959H16.4051V162.408C16.4051 161.588 16.7087 160.923 17.3159 160.414C17.9231 159.906 18.7272 159.651 19.7282 159.651ZM27.7586 159.618C28.1196 159.618 28.4096 159.731 28.6284 159.955C28.8526 160.174 28.9648 160.444 28.9648 160.767C28.9648 161.101 28.8526 161.38 28.6284 161.604C28.4096 161.828 28.1196 161.941 27.7586 161.941C27.4085 161.941 27.1214 161.828 26.8971 161.604C26.6728 161.38 26.5607 161.101 26.5607 160.767C26.5607 160.444 26.6728 160.174 26.8971 159.955C27.1214 159.731 27.4085 159.618 27.7586 159.618ZM29.0386 163.959V170.654H31.3935V172H24.6079V170.654H27.2007V165.313H24.6899V163.959H29.0386ZM41.4424 162.236L41.9347 163.762C41.5901 163.877 41.2099 163.954 40.7942 163.992C40.3839 164.03 39.9244 164.049 39.4157 164.049C39.9354 164.279 40.3265 164.574 40.589 164.935C40.8516 165.291 40.9829 165.729 40.9829 166.248C40.9829 166.812 40.8461 167.315 40.5726 167.758C40.2991 168.201 39.9053 168.548 39.3911 168.8C38.8824 169.052 38.2752 169.177 37.5696 169.177C37.3179 169.177 37.0991 169.166 36.9131 169.145C36.7326 169.123 36.5549 169.087 36.3798 169.038C36.1227 169.208 35.9942 169.445 35.9942 169.752C35.9942 169.927 36.0653 170.08 36.2075 170.211C36.3552 170.337 36.6451 170.4 37.0772 170.4H38.587C39.2051 170.4 39.7494 170.507 40.2198 170.72C40.6957 170.928 41.0677 171.215 41.3357 171.582C41.6092 171.943 41.746 172.353 41.746 172.812C41.746 173.677 41.374 174.347 40.6301 174.823C39.8861 175.298 38.814 175.536 37.4137 175.536C36.4181 175.536 35.6386 175.435 35.0752 175.233C34.5172 175.03 34.1234 174.73 33.8937 174.33C33.6639 173.931 33.549 173.441 33.549 172.862H35.1983C35.1983 173.168 35.2557 173.419 35.3706 173.616C35.4909 173.813 35.7125 173.958 36.0352 174.051C36.3579 174.15 36.8229 174.199 37.4301 174.199C38.3326 174.199 38.9699 174.087 39.3419 173.863C39.7138 173.644 39.8998 173.335 39.8998 172.935C39.8998 172.58 39.7466 172.306 39.4403 172.115C39.134 171.929 38.7237 171.836 38.2096 171.836H36.7244C35.9039 171.836 35.3022 171.669 34.9193 171.335C34.5419 171.002 34.3531 170.613 34.3531 170.17C34.3531 169.547 34.6759 169.024 35.3213 168.603C34.8017 168.33 34.4215 167.999 34.1808 167.61C33.9456 167.216 33.828 166.741 33.828 166.183C33.828 165.57 33.9812 165.034 34.2875 164.574C34.5938 164.115 35.0178 163.757 35.5593 163.499C36.1063 163.242 36.7354 163.114 37.4465 163.114C38.1412 163.119 38.721 163.084 39.186 163.007C39.6509 162.931 40.0557 162.827 40.4003 162.695C40.7504 162.559 41.0978 162.405 41.4424 162.236ZM37.4629 164.377C36.8776 164.377 36.4372 164.544 36.1419 164.878C35.8465 165.206 35.6988 165.636 35.6988 166.166C35.6988 166.713 35.8492 167.154 36.1501 167.487C36.4509 167.815 36.8967 167.979 37.4875 167.979C38.029 167.979 38.442 167.821 38.7265 167.504C39.0164 167.186 39.1613 166.735 39.1613 166.15C39.1613 164.968 38.5952 164.377 37.4629 164.377ZM49.9651 163.106C50.2933 163.106 50.5887 163.177 50.8512 163.319C51.1138 163.461 51.3189 163.713 51.4666 164.074C51.6198 164.429 51.6964 164.924 51.6964 165.559V172H50.0636V165.813C50.0636 165.359 50.0307 165.034 49.9651 164.837C49.9049 164.64 49.7436 164.542 49.481 164.542C49.2731 164.542 49.0598 164.607 48.841 164.738C48.6277 164.864 48.4143 165.083 48.201 165.395V172H46.7159V165.813C46.7159 165.359 46.683 165.034 46.6174 164.837C46.5572 164.64 46.3959 164.542 46.1333 164.542C45.92 164.542 45.7066 164.607 45.4933 164.738C45.28 164.864 45.0666 165.083 44.8533 165.395V172H43.2123V163.335H44.5989L44.722 164.271C44.9682 163.926 45.2335 163.647 45.5179 163.434C45.8078 163.215 46.1607 163.106 46.5764 163.106C46.9046 163.106 47.2027 163.188 47.4707 163.352C47.7388 163.51 47.9357 163.798 48.0615 164.213C48.3077 163.885 48.5812 163.62 48.882 163.417C49.1829 163.21 49.5439 163.106 49.9651 163.106ZM60.4571 169.875C60.4571 170.219 60.509 170.468 60.6129 170.622C60.7169 170.775 60.8837 170.89 61.1135 170.966L60.7032 172.213C60.2765 172.164 59.9073 172.046 59.5955 171.861C59.2892 171.675 59.0594 171.393 58.9063 171.015C58.589 171.42 58.187 171.724 57.7001 171.926C57.2133 172.123 56.6936 172.222 56.1412 172.222C55.2605 172.222 54.5658 171.975 54.0571 171.483C53.5483 170.985 53.294 170.334 53.294 169.53C53.294 168.617 53.6495 167.914 54.3606 167.422C55.0718 166.929 56.0892 166.683 57.4129 166.683H58.6519V166.117C58.6519 165.554 58.4824 165.151 58.1432 164.911C57.8041 164.665 57.3309 164.542 56.7237 164.542C56.4393 164.542 56.0947 164.58 55.6899 164.656C55.2851 164.728 54.8612 164.84 54.4181 164.993L53.9668 163.696C54.5083 163.494 55.0389 163.346 55.5586 163.253C56.0782 163.155 56.5596 163.106 57.0027 163.106C58.1624 163.106 59.0266 163.363 59.5955 163.877C60.1699 164.391 60.4571 165.102 60.4571 166.01V169.875ZM56.6991 170.868C57.0711 170.868 57.4348 170.769 57.7904 170.572C58.1459 170.375 58.4331 170.099 58.6519 169.744V167.832H57.6345C56.7702 167.832 56.1521 167.977 55.7801 168.267C55.4082 168.551 55.2222 168.945 55.2222 169.448C55.2222 170.395 55.7145 170.868 56.6991 170.868ZM64.3931 173.748L62.9326 173.091L69.907 158.675L71.3511 159.356L64.3931 173.748ZM106.509 159.093C106.87 159.093 107.16 159.203 107.378 159.422C107.603 159.64 107.715 159.914 107.715 160.242C107.715 160.57 107.603 160.846 107.378 161.071C107.16 161.295 106.87 161.407 106.509 161.407C106.159 161.407 105.871 161.295 105.647 161.071C105.423 160.846 105.311 160.57 105.311 160.242C105.311 159.914 105.423 159.64 105.647 159.422C105.871 159.203 106.159 159.093 106.509 159.093ZM107.789 163.335V170.654H110.143V172H103.358V170.654H105.951V164.681H103.44V163.335H107.789ZM116.705 159.856V169.637C116.705 170.036 116.826 170.321 117.066 170.49C117.312 170.654 117.63 170.736 118.018 170.736C118.264 170.736 118.499 170.712 118.724 170.663C118.953 170.608 119.175 170.537 119.388 170.449L119.856 171.729C119.599 171.861 119.282 171.975 118.904 172.074C118.532 172.172 118.106 172.222 117.624 172.222C116.754 172.222 116.076 171.975 115.589 171.483C115.108 170.991 114.867 170.321 114.867 169.473V161.21H112.25V159.856H116.705ZM126.549 159.856V169.637C126.549 170.036 126.669 170.321 126.91 170.49C127.156 170.654 127.473 170.736 127.862 170.736C128.108 170.736 128.343 170.712 128.567 170.663C128.797 170.608 129.019 170.537 129.232 170.449L129.7 171.729C129.443 171.861 129.125 171.975 128.748 172.074C128.376 172.172 127.949 172.222 127.468 172.222C126.598 172.222 125.92 171.975 125.433 171.483C124.952 170.991 124.711 170.321 124.711 169.473V161.21H122.094V159.856H126.549ZM134.423 163.335V169.391C134.423 169.905 134.525 170.271 134.727 170.49C134.935 170.709 135.247 170.818 135.662 170.818C136.056 170.818 136.436 170.701 136.803 170.466C137.169 170.23 137.459 169.943 137.673 169.604V163.335H139.511V172H137.927L137.812 170.892C137.489 171.324 137.082 171.655 136.59 171.885C136.097 172.109 135.594 172.222 135.08 172.222C134.237 172.222 133.611 171.992 133.201 171.532C132.791 171.067 132.586 170.43 132.586 169.621V163.335H134.423ZM145.58 170.81C146.154 170.81 146.611 170.709 146.95 170.507C147.289 170.299 147.459 170.014 147.459 169.653C147.459 169.418 147.41 169.218 147.311 169.054C147.213 168.89 147.016 168.737 146.721 168.595C146.425 168.453 145.977 168.305 145.375 168.152C144.806 168.004 144.306 167.829 143.873 167.627C143.447 167.424 143.116 167.162 142.881 166.839C142.645 166.516 142.528 166.101 142.528 165.592C142.528 164.848 142.837 164.249 143.455 163.795C144.078 163.335 144.924 163.106 145.99 163.106C146.718 163.106 147.352 163.201 147.894 163.393C148.435 163.584 148.898 163.822 149.281 164.107L148.509 165.264C148.17 165.039 147.798 164.856 147.393 164.714C146.994 164.572 146.543 164.501 146.04 164.501C145.454 164.501 145.033 164.588 144.776 164.763C144.524 164.938 144.398 165.171 144.398 165.461C144.398 165.679 144.461 165.86 144.587 166.002C144.718 166.144 144.943 166.278 145.26 166.404C145.577 166.53 146.026 166.672 146.606 166.831C147.169 166.984 147.659 167.164 148.074 167.372C148.496 167.58 148.821 167.856 149.051 168.201C149.286 168.54 149.404 168.983 149.404 169.53C149.404 170.154 149.223 170.665 148.862 171.065C148.501 171.458 148.031 171.751 147.451 171.943C146.871 172.129 146.247 172.222 145.58 172.222C144.776 172.222 144.081 172.107 143.496 171.877C142.911 171.642 142.418 171.349 142.019 170.999L142.995 169.883C143.335 170.157 143.723 170.381 144.161 170.556C144.598 170.725 145.071 170.81 145.58 170.81ZM159.51 171.541C159.193 171.743 158.812 171.907 158.369 172.033C157.926 172.159 157.464 172.222 156.983 172.222C155.976 172.222 155.21 171.962 154.685 171.442C154.166 170.917 153.906 170.228 153.906 169.374V164.673H151.978V163.335H153.906V161.399L155.744 161.177V163.335H158.665L158.46 164.673H155.744V169.358C155.744 169.823 155.859 170.17 156.088 170.4C156.324 170.624 156.707 170.736 157.237 170.736C157.554 170.736 157.844 170.698 158.107 170.622C158.375 170.545 158.621 170.446 158.845 170.326L159.51 171.541ZM162.199 172V170.687H163.471V164.64H162.199V163.335H164.874L165.21 165.346C165.533 164.618 165.932 164.066 166.408 163.688C166.889 163.305 167.508 163.114 168.262 163.114C168.519 163.114 168.749 163.136 168.952 163.179C169.159 163.218 169.365 163.27 169.567 163.335L169.255 166.527H167.942V164.763C167.33 164.785 166.802 165.031 166.359 165.502C165.916 165.966 165.566 166.623 165.309 167.471V170.687H167.056V172H162.199ZM178.582 169.875C178.582 170.219 178.634 170.468 178.738 170.622C178.842 170.775 179.009 170.89 179.238 170.966L178.828 172.213C178.402 172.164 178.032 172.046 177.721 171.861C177.414 171.675 177.184 171.393 177.031 171.015C176.714 171.42 176.312 171.724 175.825 171.926C175.338 172.123 174.819 172.222 174.266 172.222C173.385 172.222 172.691 171.975 172.182 171.483C171.673 170.985 171.419 170.334 171.419 169.53C171.419 168.617 171.775 167.914 172.486 167.422C173.197 166.929 174.214 166.683 175.538 166.683H176.777V166.117C176.777 165.554 176.607 165.151 176.268 164.911C175.929 164.665 175.456 164.542 174.849 164.542C174.564 164.542 174.22 164.58 173.815 164.656C173.41 164.728 172.986 164.84 172.543 164.993L172.092 163.696C172.633 163.494 173.164 163.346 173.684 163.253C174.203 163.155 174.685 163.106 175.128 163.106C176.287 163.106 177.152 163.363 177.721 163.877C178.295 164.391 178.582 165.102 178.582 166.01V169.875ZM174.824 170.868C175.196 170.868 175.56 170.769 175.915 170.572C176.271 170.375 176.558 170.099 176.777 169.744V167.832H175.759C174.895 167.832 174.277 167.977 173.905 168.267C173.533 168.551 173.347 168.945 173.347 169.448C173.347 170.395 173.839 170.868 174.824 170.868ZM189.041 171.541C188.724 171.743 188.344 171.907 187.901 172.033C187.458 172.159 186.995 172.222 186.514 172.222C185.508 172.222 184.742 171.962 184.217 171.442C183.697 170.917 183.437 170.228 183.437 169.374V164.673H181.509V163.335H183.437V161.399L185.275 161.177V163.335H188.196L187.991 164.673H185.275V169.358C185.275 169.823 185.39 170.17 185.62 170.4C185.855 170.624 186.238 170.736 186.768 170.736C187.086 170.736 187.376 170.698 187.638 170.622C187.906 170.545 188.152 170.446 188.377 170.326L189.041 171.541ZM195.119 163.106C196.388 163.106 197.356 163.519 198.023 164.345C198.691 165.171 199.024 166.273 199.024 167.651C199.024 168.57 198.871 169.372 198.565 170.055C198.264 170.739 197.821 171.272 197.236 171.655C196.656 172.033 195.947 172.222 195.111 172.222C193.847 172.222 192.879 171.814 192.206 170.999C191.533 170.178 191.197 169.068 191.197 167.668C191.197 166.771 191.347 165.98 191.648 165.296C191.954 164.607 192.4 164.071 192.985 163.688C193.571 163.3 194.282 163.106 195.119 163.106ZM195.119 164.533C194.457 164.533 193.959 164.788 193.625 165.296C193.292 165.8 193.125 166.59 193.125 167.668C193.125 168.745 193.289 169.538 193.617 170.047C193.951 170.55 194.449 170.802 195.111 170.802C195.772 170.802 196.267 170.548 196.596 170.039C196.929 169.53 197.096 168.734 197.096 167.651C197.096 166.585 196.932 165.8 196.604 165.296C196.276 164.788 195.781 164.533 195.119 164.533ZM201.574 172V170.687H202.846V164.64H201.574V163.335H204.249L204.585 165.346C204.908 164.618 205.307 164.066 205.783 163.688C206.264 163.305 206.883 163.114 207.637 163.114C207.894 163.114 208.124 163.136 208.327 163.179C208.534 163.218 208.74 163.27 208.942 163.335L208.63 166.527H207.317V164.763C206.705 164.785 206.177 165.031 205.734 165.502C205.291 165.966 204.941 166.623 204.684 167.471V170.687H206.431V172H201.574ZM212.049 173.748L210.589 173.091L217.563 158.675L219.007 159.356L212.049 173.748ZM18.6862 181.106C19.452 181.106 20.0646 181.294 20.5241 181.672C20.9836 182.044 21.3173 182.572 21.5251 183.255C21.733 183.934 21.8369 184.732 21.8369 185.651C21.8369 186.532 21.7111 187.317 21.4595 188.006C21.2079 188.695 20.8332 189.237 20.3354 189.631C19.8431 190.025 19.2304 190.222 18.4974 190.222C17.5894 190.222 16.8564 189.902 16.2985 189.262V193.331L14.4605 193.536V181.335H16.0605L16.1754 182.451C16.5036 182.008 16.8838 181.675 17.3159 181.45C17.748 181.221 18.2048 181.106 18.6862 181.106ZM18.1774 182.525C17.7672 182.525 17.4034 182.648 17.0862 182.894C16.7744 183.141 16.5118 183.43 16.2985 183.764V187.817C16.7306 188.463 17.3022 188.786 18.0133 188.786C18.6315 188.786 19.1019 188.537 19.4246 188.039C19.7474 187.541 19.9087 186.748 19.9087 185.659C19.9087 184.549 19.7638 183.75 19.4738 183.264C19.1894 182.771 18.7573 182.525 18.1774 182.525ZM24.3863 190V188.687H25.6581V182.64H24.3863V181.335H27.0612L27.3976 183.346C27.7203 182.618 28.1196 182.066 28.5955 181.688C29.0769 181.305 29.695 181.114 30.4499 181.114C30.707 181.114 30.9367 181.136 31.1391 181.179C31.347 181.218 31.5521 181.27 31.7545 181.335L31.4427 184.527H30.1299V182.763C29.5173 182.785 28.9894 183.031 28.5463 183.502C28.1032 183.966 27.7532 184.623 27.4961 185.471V188.687H29.2437V190H24.3863ZM35.6742 186.258C35.7289 187.15 35.9778 187.796 36.4208 188.195C36.8694 188.594 37.4082 188.794 38.0372 188.794C38.4584 188.794 38.8496 188.728 39.2106 188.597C39.5771 188.466 39.9436 188.28 40.3101 188.039L41.106 189.138C40.7012 189.467 40.228 189.729 39.6865 189.926C39.1449 190.123 38.5651 190.222 37.947 190.222C37.0444 190.222 36.2813 190.03 35.6578 189.647C35.0396 189.264 34.5692 188.731 34.2465 188.047C33.9292 187.363 33.7706 186.573 33.7706 185.676C33.7706 184.806 33.9292 184.029 34.2465 183.346C34.5637 182.656 35.0178 182.112 35.6085 181.713C36.1993 181.308 36.9049 181.106 37.7254 181.106C38.8742 181.106 39.7822 181.491 40.4496 182.263C41.1224 183.034 41.4588 184.092 41.4588 185.438C41.4588 185.586 41.4533 185.733 41.4424 185.881C41.4369 186.023 41.4287 186.149 41.4178 186.258H35.6742ZM37.7419 182.468C37.1675 182.468 36.6916 182.673 36.3142 183.083C35.9367 183.493 35.7207 184.133 35.666 185.003H39.6783C39.6619 184.188 39.4868 183.562 39.1531 183.124C38.8249 182.686 38.3545 182.468 37.7419 182.468ZM49.9651 181.106C50.2933 181.106 50.5887 181.177 50.8512 181.319C51.1138 181.461 51.3189 181.713 51.4666 182.074C51.6198 182.429 51.6964 182.924 51.6964 183.559V190H50.0636V183.813C50.0636 183.359 50.0307 183.034 49.9651 182.837C49.9049 182.64 49.7436 182.542 49.481 182.542C49.2731 182.542 49.0598 182.607 48.841 182.738C48.6277 182.864 48.4143 183.083 48.201 183.395V190H46.7159V183.813C46.7159 183.359 46.683 183.034 46.6174 182.837C46.5572 182.64 46.3959 182.542 46.1333 182.542C45.92 182.542 45.7066 182.607 45.4933 182.738C45.28 182.864 45.0666 183.083 44.8533 183.395V190H43.2123V181.335H44.5989L44.722 182.271C44.9682 181.926 45.2335 181.647 45.5179 181.434C45.8078 181.215 46.1607 181.106 46.5764 181.106C46.9046 181.106 47.2027 181.188 47.4707 181.352C47.7388 181.51 47.9357 181.798 48.0615 182.213C48.3077 181.885 48.5812 181.62 48.882 181.417C49.1829 181.21 49.5439 181.106 49.9651 181.106ZM57.2899 177.093C57.6509 177.093 57.9408 177.203 58.1596 177.422C58.3839 177.64 58.496 177.914 58.496 178.242C58.496 178.57 58.3839 178.846 58.1596 179.071C57.9408 179.295 57.6509 179.407 57.2899 179.407C56.9398 179.407 56.6526 179.295 56.4283 179.071C56.2041 178.846 56.0919 178.57 56.0919 178.242C56.0919 177.914 56.2041 177.64 56.4283 177.422C56.6526 177.203 56.9398 177.093 57.2899 177.093ZM58.5699 181.335V188.654H60.9247V190H54.1391V188.654H56.7319V182.681H54.2212V181.335H58.5699ZM65.2054 186.258C65.2601 187.15 65.509 187.796 65.9521 188.195C66.4006 188.594 66.9394 188.794 67.5685 188.794C67.9897 188.794 68.3808 188.728 68.7418 188.597C69.1083 188.466 69.4748 188.28 69.8413 188.039L70.6372 189.138C70.2324 189.467 69.7593 189.729 69.2177 189.926C68.6762 190.123 68.0964 190.222 67.4782 190.222C66.5757 190.222 65.8126 190.03 65.189 189.647C64.5709 189.264 64.1005 188.731 63.7777 188.047C63.4605 187.363 63.3018 186.573 63.3018 185.676C63.3018 184.806 63.4605 184.029 63.7777 183.346C64.095 182.656 64.549 182.112 65.1398 181.713C65.7305 181.308 66.4362 181.106 67.2567 181.106C68.4054 181.106 69.3135 181.491 69.9808 182.263C70.6536 183.034 70.99 184.092 70.99 185.438C70.99 185.586 70.9846 185.733 70.9736 185.881C70.9682 186.023 70.9599 186.149 70.949 186.258H65.2054ZM67.2731 182.468C66.6988 182.468 66.2229 182.673 65.8454 183.083C65.468 183.493 65.2519 184.133 65.1972 185.003H69.2095C69.1931 184.188 69.0181 183.562 68.6844 183.124C68.3562 182.686 67.8858 182.468 67.2731 182.468ZM73.6051 190V188.687H74.8769V182.64H73.6051V181.335H76.2799L76.6163 183.346C76.9391 182.618 77.3384 182.066 77.8143 181.688C78.2957 181.305 78.9138 181.114 79.6687 181.114C79.9257 181.114 80.1555 181.136 80.3579 181.179C80.5657 181.218 80.7709 181.27 80.9733 181.335L80.6615 184.527H79.3487V182.763C78.736 182.785 78.2081 183.031 77.7651 183.502C77.322 183.966 76.9719 184.623 76.7148 185.471V188.687H78.4625V190H73.6051ZM84.8929 186.258C84.9476 187.15 85.1965 187.796 85.6396 188.195C86.0881 188.594 86.6269 188.794 87.256 188.794C87.6772 188.794 88.0683 188.728 88.4293 188.597C88.7958 188.466 89.1623 188.28 89.5288 188.039L90.3247 189.138C89.9199 189.467 89.4468 189.729 88.9052 189.926C88.3637 190.123 87.7839 190.222 87.1657 190.222C86.2632 190.222 85.5001 190.03 84.8765 189.647C84.2584 189.264 83.788 188.731 83.4652 188.047C83.148 187.363 82.9893 186.573 82.9893 185.676C82.9893 184.806 83.148 184.029 83.4652 183.346C83.7825 182.656 84.2365 182.112 84.8273 181.713C85.418 181.308 86.1237 181.106 86.9442 181.106C88.0929 181.106 89.001 181.491 89.6683 182.263C90.3411 183.034 90.6775 184.092 90.6775 185.438C90.6775 185.586 90.6721 185.733 90.6611 185.881C90.6557 186.023 90.6474 186.149 90.6365 186.258H84.8929ZM86.9606 182.468C86.3863 182.468 85.9104 182.673 85.5329 183.083C85.1555 183.493 84.9394 184.133 84.8847 185.003H88.897C88.8806 184.188 88.7056 183.562 88.3719 183.124C88.0437 182.686 87.5733 182.468 86.9606 182.468ZM93.9244 191.748L92.4638 191.091L99.4382 176.675L100.882 177.356L93.9244 191.748ZM139.207 187.875C139.207 188.219 139.259 188.468 139.363 188.622C139.467 188.775 139.634 188.89 139.863 188.966L139.453 190.213C139.027 190.164 138.657 190.046 138.346 189.861C138.039 189.675 137.809 189.393 137.656 189.015C137.339 189.42 136.937 189.724 136.45 189.926C135.963 190.123 135.444 190.222 134.891 190.222C134.01 190.222 133.316 189.975 132.807 189.483C132.298 188.985 132.044 188.334 132.044 187.53C132.044 186.617 132.4 185.914 133.111 185.422C133.822 184.929 134.839 184.683 136.163 184.683H137.402V184.117C137.402 183.554 137.232 183.151 136.893 182.911C136.554 182.665 136.081 182.542 135.474 182.542C135.189 182.542 134.845 182.58 134.44 182.656C134.035 182.728 133.611 182.84 133.168 182.993L132.717 181.696C133.258 181.494 133.789 181.346 134.309 181.253C134.828 181.155 135.31 181.106 135.753 181.106C136.912 181.106 137.777 181.363 138.346 181.877C138.92 182.391 139.207 183.102 139.207 184.01V187.875ZM135.449 188.868C135.821 188.868 136.185 188.769 136.54 188.572C136.896 188.375 137.183 188.099 137.402 187.744V185.832H136.384C135.52 185.832 134.902 185.977 134.53 186.267C134.158 186.551 133.972 186.945 133.972 187.448C133.972 188.395 134.464 188.868 135.449 188.868ZM147.697 177.651C148.228 177.651 148.701 177.698 149.116 177.791C149.538 177.878 149.926 177.999 150.282 178.152L149.74 179.424C149.45 179.303 149.147 179.216 148.829 179.161C148.517 179.106 148.2 179.079 147.877 179.079C146.762 179.079 146.204 179.528 146.204 180.425V181.959H149.1L148.903 183.313H146.204V190H144.374V183.313H142.405V181.959H144.374V180.408C144.374 179.588 144.677 178.923 145.285 178.414C145.892 177.906 146.696 177.651 147.697 177.651ZM159.51 189.541C159.193 189.743 158.812 189.907 158.369 190.033C157.926 190.159 157.464 190.222 156.983 190.222C155.976 190.222 155.21 189.962 154.685 189.442C154.166 188.917 153.906 188.228 153.906 187.374V182.673H151.978V181.335H153.906V179.399L155.744 179.177V181.335H158.665L158.46 182.673H155.744V187.358C155.744 187.823 155.859 188.17 156.088 188.4C156.324 188.624 156.707 188.736 157.237 188.736C157.554 188.736 157.844 188.698 158.107 188.622C158.375 188.545 158.621 188.446 158.845 188.326L159.51 189.541ZM163.643 186.258C163.698 187.15 163.947 187.796 164.39 188.195C164.838 188.594 165.377 188.794 166.006 188.794C166.427 188.794 166.818 188.728 167.179 188.597C167.546 188.466 167.912 188.28 168.279 188.039L169.075 189.138C168.67 189.467 168.197 189.729 167.655 189.926C167.114 190.123 166.534 190.222 165.916 190.222C165.013 190.222 164.25 190.03 163.627 189.647C163.008 189.264 162.538 188.731 162.215 188.047C161.898 187.363 161.739 186.573 161.739 185.676C161.739 184.806 161.898 184.029 162.215 183.346C162.532 182.656 162.987 182.112 163.577 181.713C164.168 181.308 164.874 181.106 165.694 181.106C166.843 181.106 167.751 181.491 168.418 182.263C169.091 183.034 169.428 184.092 169.428 185.438C169.428 185.586 169.422 185.733 169.411 185.881C169.406 186.023 169.397 186.149 169.387 186.258H163.643ZM165.711 182.468C165.136 182.468 164.66 182.673 164.283 183.083C163.905 183.493 163.689 184.133 163.635 185.003H167.647C167.631 184.188 167.456 183.562 167.122 183.124C166.794 182.686 166.323 182.468 165.711 182.468ZM172.043 190V188.687H173.314V182.64H172.043V181.335H174.717L175.054 183.346C175.377 182.618 175.776 182.066 176.252 181.688C176.733 181.305 177.351 181.114 178.106 181.114C178.363 181.114 178.593 181.136 178.795 181.179C179.003 181.218 179.208 181.27 179.411 181.335L179.099 184.527H177.786V182.763C177.174 182.785 176.646 183.031 176.203 183.502C175.759 183.966 175.409 184.623 175.152 185.471V188.687H176.9V190H172.043ZM181.878 186.275V184.765H188.656V186.275H181.878ZM193.174 186.258C193.229 187.15 193.478 187.796 193.921 188.195C194.369 188.594 194.908 188.794 195.537 188.794C195.958 188.794 196.35 188.728 196.711 188.597C197.077 188.466 197.444 188.28 197.81 188.039L198.606 189.138C198.201 189.467 197.728 189.729 197.186 189.926C196.645 190.123 196.065 190.222 195.447 190.222C194.544 190.222 193.781 190.03 193.158 189.647C192.54 189.264 192.069 188.731 191.746 188.047C191.429 187.363 191.271 186.573 191.271 185.676C191.271 184.806 191.429 184.029 191.746 183.346C192.064 182.656 192.518 182.112 193.109 181.713C193.699 181.308 194.405 181.106 195.225 181.106C196.374 181.106 197.282 181.491 197.95 182.263C198.622 183.034 198.959 184.092 198.959 185.438C198.959 185.586 198.953 185.733 198.942 185.881C198.937 186.023 198.929 186.149 198.918 186.258H193.174ZM195.242 182.468C194.668 182.468 194.192 182.673 193.814 183.083C193.437 183.493 193.221 184.133 193.166 185.003H197.178C197.162 184.188 196.987 183.562 196.653 183.124C196.325 182.686 195.855 182.468 195.242 182.468ZM206.759 177.651C207.29 177.651 207.763 177.698 208.179 177.791C208.6 177.878 208.989 177.999 209.344 178.152L208.803 179.424C208.513 179.303 208.209 179.216 207.892 179.161C207.58 179.106 207.263 179.079 206.94 179.079C205.824 179.079 205.266 179.528 205.266 180.425V181.959H208.163L207.966 183.313H205.266V190H203.436V183.313H201.467V181.959H203.436V180.408C203.436 179.588 203.74 178.923 204.347 178.414C204.954 177.906 205.758 177.651 206.759 177.651ZM216.603 177.651C217.134 177.651 217.607 177.698 218.023 177.791C218.444 177.878 218.832 177.999 219.188 178.152L218.646 179.424C218.356 179.303 218.053 179.216 217.736 179.161C217.424 179.106 217.106 179.079 216.784 179.079C215.668 179.079 215.11 179.528 215.11 180.425V181.959H218.006L217.809 183.313H215.11V190H213.28V183.313H211.311V181.959H213.28V180.408C213.28 179.588 213.584 178.923 214.191 178.414C214.798 177.906 215.602 177.651 216.603 177.651ZM222.705 186.258C222.76 187.15 223.009 187.796 223.452 188.195C223.901 188.594 224.439 188.794 225.068 188.794C225.49 188.794 225.881 188.728 226.242 188.597C226.608 188.466 226.975 188.28 227.341 188.039L228.137 189.138C227.732 189.467 227.259 189.729 226.718 189.926C226.176 190.123 225.596 190.222 224.978 190.222C224.076 190.222 223.313 190.03 222.689 189.647C222.071 189.264 221.6 188.731 221.278 188.047C220.96 187.363 220.802 186.573 220.802 185.676C220.802 184.806 220.96 184.029 221.278 183.346C221.595 182.656 222.049 182.112 222.64 181.713C223.231 181.308 223.936 181.106 224.757 181.106C225.905 181.106 226.813 181.491 227.481 182.263C228.154 183.034 228.49 184.092 228.49 185.438C228.49 185.586 228.485 185.733 228.474 185.881C228.468 186.023 228.46 186.149 228.449 186.258H222.705ZM224.773 182.468C224.199 182.468 223.723 182.673 223.345 183.083C222.968 183.493 222.752 184.133 222.697 185.003H226.71C226.693 184.188 226.518 183.562 226.184 183.124C225.856 182.686 225.386 182.468 224.773 182.468ZM235.199 188.712C235.604 188.712 235.982 188.641 236.332 188.498C236.682 188.356 237.015 188.176 237.333 187.957L238.186 189.138C237.809 189.461 237.349 189.724 236.808 189.926C236.272 190.123 235.716 190.222 235.142 190.222C234.256 190.222 233.495 190.036 232.861 189.664C232.232 189.286 231.751 188.761 231.417 188.088C231.089 187.41 230.925 186.617 230.925 185.709C230.925 184.828 231.091 184.043 231.425 183.354C231.764 182.659 232.251 182.112 232.886 181.713C233.52 181.308 234.283 181.106 235.175 181.106C236.334 181.106 237.335 181.453 238.178 182.148L237.333 183.305C236.994 183.069 236.646 182.892 236.291 182.771C235.935 182.645 235.574 182.583 235.208 182.583C234.518 182.583 233.958 182.834 233.526 183.337C233.093 183.841 232.877 184.631 232.877 185.709C232.877 186.792 233.096 187.563 233.534 188.023C233.971 188.482 234.527 188.712 235.199 188.712ZM248.104 189.541C247.786 189.743 247.406 189.907 246.963 190.033C246.52 190.159 246.058 190.222 245.577 190.222C244.57 190.222 243.804 189.962 243.279 189.442C242.759 188.917 242.5 188.228 242.5 187.374V182.673H240.571V181.335H242.5V179.399L244.338 179.177V181.335H247.259L247.053 182.673H244.338V187.358C244.338 187.823 244.452 188.17 244.682 188.4C244.917 188.624 245.3 188.736 245.831 188.736C246.148 188.736 246.438 188.698 246.701 188.622C246.969 188.545 247.215 188.446 247.439 188.326L248.104 189.541ZM253.861 188.81C254.436 188.81 254.892 188.709 255.232 188.507C255.571 188.299 255.74 188.014 255.74 187.653C255.74 187.418 255.691 187.218 255.593 187.054C255.494 186.89 255.297 186.737 255.002 186.595C254.706 186.453 254.258 186.305 253.656 186.152C253.087 186.004 252.587 185.829 252.155 185.627C251.728 185.424 251.397 185.162 251.162 184.839C250.927 184.516 250.809 184.101 250.809 183.592C250.809 182.848 251.118 182.249 251.736 181.795C252.36 181.335 253.205 181.106 254.272 181.106C254.999 181.106 255.634 181.201 256.175 181.393C256.717 181.584 257.179 181.822 257.562 182.107L256.791 183.264C256.451 183.039 256.079 182.856 255.675 182.714C255.275 182.572 254.824 182.501 254.321 182.501C253.735 182.501 253.314 182.588 253.057 182.763C252.806 182.938 252.68 183.171 252.68 183.461C252.68 183.679 252.743 183.86 252.868 184.002C253 184.144 253.224 184.278 253.541 184.404C253.859 184.53 254.307 184.672 254.887 184.831C255.45 184.984 255.94 185.164 256.356 185.372C256.777 185.58 257.102 185.856 257.332 186.201C257.567 186.54 257.685 186.983 257.685 187.53C257.685 188.154 257.504 188.665 257.143 189.065C256.782 189.458 256.312 189.751 255.732 189.943C255.152 190.129 254.529 190.222 253.861 190.222C253.057 190.222 252.362 190.107 251.777 189.877C251.192 189.642 250.7 189.349 250.3 188.999L251.277 187.883C251.616 188.157 252.004 188.381 252.442 188.556C252.879 188.725 253.353 188.81 253.861 188.81ZM261.268 191.748L259.808 191.091L266.782 176.675L268.226 177.356L261.268 191.748Z" fill="#B9B9B9"/>
</svg>
