<svg width="292" height="139" viewBox="0 0 292 139" fill="none" xmlns="http://www.w3.org/2000/svg">
<rect x="1.5" y="1.5" width="289" height="136" fill="black" stroke="#D8ECFF" stroke-width="3"/>
<rect width="292" height="34" fill="#D8ECFF"/>
<path d="M15.2062 21.4769C15.7785 21.4769 16.2369 21.3785 16.5815 21.1815C16.9323 20.9846 17.1077 20.7015 17.1077 20.3323C17.1077 20.0985 17.0492 19.8985 16.9323 19.7323C16.8215 19.56 16.6 19.4031 16.2677 19.2615C15.9354 19.1138 15.4369 18.9508 14.7723 18.7723C14.1446 18.6123 13.5938 18.4154 13.12 18.1815C12.6523 17.9415 12.2862 17.6338 12.0215 17.2585C11.7631 16.8831 11.6338 16.4092 11.6338 15.8369C11.6338 14.9877 11.9908 14.2954 12.7046 13.76C13.4185 13.2185 14.4154 12.9477 15.6954 12.9477C16.5323 12.9477 17.2646 13.0585 17.8923 13.28C18.52 13.4954 19.0585 13.7662 19.5077 14.0923L18.5108 15.5785C18.1169 15.3262 17.6892 15.1231 17.2277 14.9692C16.7723 14.8092 16.28 14.7292 15.7508 14.7292C15.1785 14.7292 14.76 14.8123 14.4954 14.9785C14.2369 15.1446 14.1077 15.3754 14.1077 15.6708C14.1077 15.88 14.1723 16.0585 14.3015 16.2062C14.4369 16.3477 14.6769 16.4862 15.0215 16.6215C15.3723 16.7508 15.8708 16.9077 16.5169 17.0923C17.1508 17.2708 17.7015 17.4769 18.1692 17.7108C18.6431 17.9446 19.0092 18.2554 19.2677 18.6431C19.5262 19.0246 19.6554 19.5292 19.6554 20.1569C19.6554 20.8646 19.4492 21.4492 19.0369 21.9108C18.6246 22.3723 18.08 22.7169 17.4031 22.9446C16.7262 23.1662 15.9969 23.2769 15.2154 23.2769C14.2923 23.2769 13.4862 23.1446 12.7969 22.88C12.1077 22.6154 11.5231 22.2738 11.0431 21.8554L12.3077 20.4338C12.6892 20.7354 13.1231 20.9846 13.6092 21.1815C14.1015 21.3785 14.6338 21.4769 15.2062 21.4769ZM31.4127 13.2246L28.0988 23.0185C27.6988 24.2123 27.105 25.1538 26.3173 25.8431C25.5296 26.5385 24.4281 26.9354 23.0127 27.0338L22.7081 25.2708C23.3604 25.1785 23.8834 25.04 24.2773 24.8554C24.6773 24.6708 24.9942 24.4277 25.2281 24.1262C25.4681 23.8246 25.6742 23.4492 25.8465 23H25.0158L21.8127 13.2246H24.3881L26.6034 21.3754L28.9111 13.2246H31.4127ZM37.3546 21.4769C37.9269 21.4769 38.3854 21.3785 38.73 21.1815C39.0807 20.9846 39.2561 20.7015 39.2561 20.3323C39.2561 20.0985 39.1977 19.8985 39.0807 19.7323C38.97 19.56 38.7484 19.4031 38.4161 19.2615C38.0838 19.1138 37.5854 18.9508 36.9207 18.7723C36.2931 18.6123 35.7423 18.4154 35.2684 18.1815C34.8007 17.9415 34.4346 17.6338 34.17 17.2585C33.9115 16.8831 33.7823 16.4092 33.7823 15.8369C33.7823 14.9877 34.1392 14.2954 34.8531 13.76C35.5669 13.2185 36.5638 12.9477 37.8438 12.9477C38.6807 12.9477 39.4131 13.0585 40.0407 13.28C40.6684 13.4954 41.2069 13.7662 41.6561 14.0923L40.6592 15.5785C40.2654 15.3262 39.8377 15.1231 39.3761 14.9692C38.9207 14.8092 38.4284 14.7292 37.8992 14.7292C37.3269 14.7292 36.9084 14.8123 36.6438 14.9785C36.3854 15.1446 36.2561 15.3754 36.2561 15.6708C36.2561 15.88 36.3207 16.0585 36.45 16.2062C36.5854 16.3477 36.8254 16.4862 37.17 16.6215C37.5207 16.7508 38.0192 16.9077 38.6654 17.0923C39.2992 17.2708 39.85 17.4769 40.3177 17.7108C40.7915 17.9446 41.1577 18.2554 41.4161 18.6431C41.6746 19.0246 41.8038 19.5292 41.8038 20.1569C41.8038 20.8646 41.5977 21.4492 41.1854 21.9108C40.7731 22.3723 40.2284 22.7169 39.5515 22.9446C38.8746 23.1662 38.1454 23.2769 37.3638 23.2769C36.4407 23.2769 35.6346 23.1446 34.9454 22.88C34.2561 22.6154 33.6715 22.2738 33.1915 21.8554L34.4561 20.4338C34.8377 20.7354 35.2715 20.9846 35.7577 21.1815C36.25 21.3785 36.7823 21.4769 37.3546 21.4769ZM53.1457 22.4554C52.7827 22.6954 52.3427 22.8923 51.8257 23.0462C51.3088 23.2 50.7488 23.2769 50.1457 23.2769C48.9519 23.2769 48.0534 22.9692 47.4503 22.3538C46.8473 21.7323 46.5457 20.9077 46.5457 19.88V14.9508H44.4227V13.2246H46.5457V11.0738L48.9827 10.7785V13.2246H52.2134L51.9642 14.9508H48.9827V19.8708C48.9827 20.3754 49.1057 20.7446 49.3519 20.9785C49.598 21.2123 49.995 21.3292 50.5427 21.3292C50.8934 21.3292 51.2134 21.2892 51.5027 21.2092C51.798 21.1231 52.0657 21.0154 52.3057 20.8862L53.1457 22.4554ZM57.86 18.8554C57.9338 19.7723 58.2046 20.4338 58.6723 20.84C59.14 21.2462 59.7092 21.4492 60.38 21.4492C60.8476 21.4492 61.2876 21.3754 61.7 21.2277C62.1123 21.08 62.5184 20.8738 62.9184 20.6092L63.9338 22.0031C63.4784 22.3846 62.9338 22.6923 62.3 22.9262C61.6723 23.16 60.98 23.2769 60.223 23.2769C59.1646 23.2769 58.2723 23.0585 57.5461 22.6215C56.8261 22.1846 56.2815 21.5785 55.9123 20.8031C55.543 20.0277 55.3584 19.1354 55.3584 18.1262C55.3584 17.1538 55.5369 16.2769 55.8938 15.4954C56.2569 14.7138 56.78 14.0954 57.463 13.64C58.1523 13.1785 58.98 12.9477 59.9461 12.9477C61.2876 12.9477 62.3523 13.3846 63.14 14.2585C63.9276 15.1323 64.3215 16.3415 64.3215 17.8862C64.3215 18.2431 64.3061 18.5662 64.2753 18.8554H57.86ZM59.9553 14.6646C59.3646 14.6646 58.8784 14.8769 58.4969 15.3015C58.1215 15.7262 57.9 16.3908 57.8323 17.2954H61.9492C61.9369 16.4708 61.7676 15.8277 61.4415 15.3662C61.1153 14.8985 60.62 14.6646 59.9553 14.6646ZM73.808 12.9477C74.4234 12.9477 74.9096 13.1538 75.2665 13.5662C75.6234 13.9723 75.8019 14.7015 75.8019 15.7538V23H73.6788V16.0585C73.6788 15.6215 73.6449 15.3108 73.5772 15.1262C73.5096 14.9354 73.3496 14.84 73.0972 14.84C72.8942 14.84 72.688 14.9015 72.4788 15.0246C72.2696 15.1415 72.0572 15.3538 71.8419 15.6615V23H70.0049V16.0585C70.0049 15.6215 69.9711 15.3108 69.9034 15.1262C69.8357 14.9354 69.6757 14.84 69.4234 14.84C69.2203 14.84 69.0142 14.9015 68.8049 15.0246C68.5957 15.1415 68.3834 15.3538 68.168 15.6615V23H66.0172V13.2246H67.8357L67.9926 14.24C68.2819 13.84 68.5865 13.5262 68.9065 13.2985C69.2265 13.0646 69.6111 12.9477 70.0603 12.9477C70.4296 12.9477 70.7557 13.04 71.0388 13.2246C71.328 13.4031 71.5342 13.7108 71.6572 14.1477C71.9403 13.7908 72.2542 13.5015 72.5988 13.28C72.9496 13.0585 73.3526 12.9477 73.808 12.9477ZM93.0488 8.29539C93.4918 8.29539 93.8549 8.43385 94.138 8.71077C94.4211 8.98769 94.5626 9.33231 94.5626 9.74462C94.5626 10.1569 94.4211 10.5046 94.138 10.7877C93.8549 11.0646 93.4918 11.2031 93.0488 11.2031C92.5995 11.2031 92.2334 11.0646 91.9503 10.7877C91.6672 10.5046 91.5257 10.1569 91.5257 9.74462C91.5257 9.33231 91.6672 8.98769 91.9503 8.71077C92.2334 8.43385 92.5995 8.29539 93.0488 8.29539ZM94.6272 13.2246V21.2738H97.2026V23H89.3288V21.2738H92.1903V14.9508H89.4211V13.2246H94.6272ZM100.08 23V13.2246H102.203L102.378 14.4338C103.221 13.4431 104.255 12.9477 105.48 12.9477C106.354 12.9477 107.021 13.2031 107.483 13.7138C107.951 14.2185 108.185 14.9292 108.185 15.8462V23H105.748V16.7969C105.748 16.0585 105.671 15.5354 105.517 15.2277C105.369 14.92 105.049 14.7662 104.557 14.7662C104.157 14.7662 103.785 14.8923 103.44 15.1446C103.095 15.3969 102.788 15.7046 102.517 16.0677V23H100.08ZM117.219 9.06154C117.871 9.06154 118.446 9.11385 118.945 9.21846C119.45 9.32308 119.911 9.46462 120.33 9.64308L119.628 11.2862C119.302 11.1508 118.96 11.0523 118.603 10.9908C118.246 10.9292 117.89 10.8985 117.533 10.8985C116.923 10.8985 116.477 11.0154 116.194 11.2492C115.911 11.4769 115.77 11.8431 115.77 12.3477V13.8892H119L118.733 15.6338H115.77V23H113.342V15.6338H111.191V13.8892H113.342V12.2923C113.342 11.3508 113.683 10.5785 114.366 9.97539C115.056 9.36615 116.006 9.06154 117.219 9.06154ZM126.29 12.9477C127.262 12.9477 128.087 13.16 128.764 13.5846C129.441 14.0092 129.954 14.6092 130.305 15.3846C130.662 16.1538 130.841 17.0554 130.841 18.0892C130.841 19.6769 130.444 20.9385 129.65 21.8738C128.856 22.8092 127.733 23.2769 126.281 23.2769C124.828 23.2769 123.705 22.8185 122.911 21.9015C122.118 20.9785 121.721 19.7138 121.721 18.1077C121.721 17.0862 121.899 16.1877 122.256 15.4123C122.613 14.6369 123.13 14.0338 123.807 13.6031C124.49 13.1662 125.318 12.9477 126.29 12.9477ZM126.29 14.7846C125.607 14.7846 125.096 15.0523 124.758 15.5877C124.425 16.1231 124.259 16.9631 124.259 18.1077C124.259 19.2646 124.425 20.1108 124.758 20.6462C125.09 21.1754 125.598 21.44 126.281 21.44C126.964 21.44 127.471 21.1754 127.804 20.6462C128.136 20.1108 128.302 19.2585 128.302 18.0892C128.302 16.9508 128.136 16.1169 127.804 15.5877C127.471 15.0523 126.967 14.7846 126.29 14.7846Z" fill="black"/>
<path d="M18.6944 45.0349V47.4882C19.3562 47.5538 19.947 47.7097 20.4667 47.9559C20.9863 48.1966 21.4267 48.4756 21.7877 48.7928L20.7867 49.8349C20.1685 49.2879 19.4711 48.9706 18.6944 48.8831V52.2882C19.3125 52.4961 19.8677 52.745 20.36 53.0349C20.8523 53.3248 21.2407 53.694 21.5251 54.1426C21.8096 54.5856 21.9518 55.1381 21.9518 55.8C21.9518 56.3579 21.8287 56.8749 21.5826 57.3508C21.3364 57.8212 20.9699 58.2178 20.4831 58.5405C20.0017 58.8578 19.4055 59.0629 18.6944 59.1559V61.5682H17.5046V59.2051C16.7115 59.1559 16.0168 58.9781 15.4205 58.6718C14.8297 58.3655 14.3429 58.0263 13.96 57.6544L14.9446 56.5467C15.3002 56.8858 15.6858 57.1648 16.1015 57.3836C16.5173 57.5969 16.985 57.7227 17.5046 57.761V53.6503C16.4598 53.3002 15.6776 52.8708 15.1579 52.3621C14.6438 51.8479 14.3867 51.2079 14.3867 50.4421C14.3867 49.6981 14.652 49.0444 15.1826 48.481C15.7186 47.9176 16.4926 47.5867 17.5046 47.4882V45.0349H18.6944ZM17.5046 48.9077C17.0998 48.9788 16.7771 49.1347 16.5364 49.3754C16.2957 49.6161 16.1754 49.9279 16.1754 50.3108C16.1754 50.6554 16.2602 50.9453 16.4297 51.1805C16.6048 51.4157 16.9631 51.6482 17.5046 51.8779V48.9077ZM18.6944 54.0851V57.6954C19.6407 57.4985 20.1138 56.9104 20.1138 55.9313C20.1138 55.5265 20.0126 55.1764 19.8103 54.881C19.6079 54.5856 19.2359 54.3203 18.6944 54.0851ZM93.2844 55.2749V53.7651H100.062V55.2749H93.2844ZM109.676 56.8749C109.676 57.2195 109.728 57.4684 109.832 57.6215C109.936 57.7747 110.102 57.8896 110.332 57.9662L109.922 59.2133C109.495 59.1641 109.126 59.0465 108.814 58.8605C108.508 58.6745 108.278 58.3928 108.125 58.0154C107.808 58.4202 107.406 58.7238 106.919 58.9262C106.432 59.1231 105.912 59.2215 105.36 59.2215C104.479 59.2215 103.785 58.9754 103.276 58.4831C102.767 57.9853 102.513 57.3344 102.513 56.5303C102.513 55.6168 102.868 54.9138 103.579 54.4215C104.291 53.9292 105.308 53.6831 106.632 53.6831H107.871V53.1169C107.871 52.5535 107.701 52.1515 107.362 51.9108C107.023 51.6646 106.55 51.5415 105.942 51.5415C105.658 51.5415 105.313 51.5798 104.909 51.6564C104.504 51.7275 104.08 51.8397 103.637 51.9928L103.186 50.6964C103.727 50.494 104.258 50.3463 104.777 50.2533C105.297 50.1549 105.778 50.1056 106.221 50.1056C107.381 50.1056 108.245 50.3627 108.814 50.8769C109.389 51.3911 109.676 52.1022 109.676 53.0103V56.8749ZM105.918 57.8677C106.29 57.8677 106.654 57.7692 107.009 57.5723C107.365 57.3754 107.652 57.0991 107.871 56.7436V54.8318H106.853C105.989 54.8318 105.371 54.9768 104.999 55.2667C104.627 55.5511 104.441 55.945 104.441 56.4482C104.441 57.3945 104.933 57.8677 105.918 57.8677Z" fill="white"/>
<path d="M35.986 50.3354V56.3908C35.986 56.905 36.0872 57.2715 36.2896 57.4903C36.4974 57.7091 36.8092 57.8185 37.2249 57.8185C37.6188 57.8185 37.999 57.7009 38.3654 57.4656C38.7319 57.2304 39.0219 56.9432 39.2352 56.6041V50.3354H41.0731V59H39.4896L39.3747 57.8923C39.0519 58.3244 38.6444 58.6554 38.1521 58.8851C37.6598 59.1094 37.1566 59.2215 36.6424 59.2215C35.8 59.2215 35.1737 58.9918 34.7634 58.5323C34.3531 58.0674 34.148 57.4301 34.148 56.6205V50.3354H35.986ZM43.9918 59V50.3354H45.5754L45.7148 51.4595C46.0759 51.0219 46.5025 50.6882 46.9948 50.4585C47.4871 50.2232 47.9931 50.1056 48.5128 50.1056C49.3224 50.1056 49.9268 50.3326 50.3261 50.7867C50.7309 51.2407 50.9333 51.8725 50.9333 52.6821V59H49.0954V53.5928C49.0954 52.8434 49.0188 52.3101 48.8656 51.9928C48.7179 51.6701 48.3815 51.5087 47.8564 51.5087C47.4352 51.5087 47.0495 51.64 46.6995 51.9026C46.3548 52.1597 46.0649 52.4523 45.8297 52.7805V59H43.9918ZM60.4571 56.8749C60.4571 57.2195 60.509 57.4684 60.6129 57.6215C60.7169 57.7747 60.8837 57.8896 61.1135 57.9662L60.7032 59.2133C60.2765 59.1641 59.9073 59.0465 59.5955 58.8605C59.2892 58.6745 59.0594 58.3928 58.9063 58.0154C58.589 58.4202 58.187 58.7238 57.7001 58.9262C57.2133 59.1231 56.6936 59.2215 56.1412 59.2215C55.2605 59.2215 54.5658 58.9754 54.0571 58.4831C53.5483 57.9853 53.294 57.3344 53.294 56.5303C53.294 55.6168 53.6495 54.9138 54.3606 54.4215C55.0718 53.9292 56.0892 53.6831 57.4129 53.6831H58.6519V53.1169C58.6519 52.5535 58.4824 52.1515 58.1432 51.9108C57.8041 51.6646 57.3309 51.5415 56.7237 51.5415C56.4393 51.5415 56.0947 51.5798 55.6899 51.6564C55.2851 51.7275 54.8612 51.8397 54.4181 51.9928L53.9668 50.6964C54.5083 50.494 55.0389 50.3463 55.5586 50.2533C56.0782 50.1549 56.5596 50.1056 57.0027 50.1056C58.1624 50.1056 59.0266 50.3627 59.5955 50.8769C60.1699 51.3911 60.4571 52.1022 60.4571 53.0103V56.8749ZM56.6991 57.8677C57.0711 57.8677 57.4348 57.7692 57.7904 57.5723C58.1459 57.3754 58.4331 57.0991 58.6519 56.7436V54.8318H57.6345C56.7702 54.8318 56.1521 54.9768 55.7801 55.2667C55.4082 55.5511 55.2222 55.945 55.2222 56.4482C55.2222 57.3945 55.7145 57.8677 56.6991 57.8677ZM69.6526 50.1056C69.9808 50.1056 70.2762 50.1768 70.5387 50.319C70.8013 50.4612 71.0064 50.7128 71.1541 51.0738C71.3073 51.4294 71.3839 51.9244 71.3839 52.559V59H69.7511V52.8133C69.7511 52.3593 69.7182 52.0338 69.6526 51.8369C69.5924 51.64 69.4311 51.5415 69.1685 51.5415C68.9606 51.5415 68.7473 51.6072 68.5285 51.7385C68.3152 51.8643 68.1018 52.0831 67.8885 52.3949V59H66.4034V52.8133C66.4034 52.3593 66.3705 52.0338 66.3049 51.8369C66.2447 51.64 66.0834 51.5415 65.8208 51.5415C65.6075 51.5415 65.3941 51.6072 65.1808 51.7385C64.9675 51.8643 64.7541 52.0831 64.5408 52.3949V59H62.8998V50.3354H64.2864L64.4095 51.2708C64.6557 50.9262 64.921 50.6472 65.2054 50.4338C65.4953 50.215 65.8482 50.1056 66.2639 50.1056C66.5921 50.1056 66.8902 50.1877 67.1582 50.3518C67.4263 50.5104 67.6232 50.7976 67.749 51.2133C67.9952 50.8851 68.2687 50.6198 68.5695 50.4174C68.8704 50.2096 69.2314 50.1056 69.6526 50.1056ZM75.0492 55.2585C75.1039 56.1501 75.3528 56.7956 75.7958 57.1949C76.2444 57.5942 76.7832 57.7938 77.4122 57.7938C77.8334 57.7938 78.2246 57.7282 78.5856 57.5969C78.9521 57.4656 79.3186 57.2797 79.6851 57.039L80.481 58.1385C80.0762 58.4667 79.603 58.7292 79.0615 58.9262C78.5199 59.1231 77.9401 59.2215 77.322 59.2215C76.4194 59.2215 75.6563 59.0301 75.0328 58.6472C74.4146 58.2643 73.9442 57.7309 73.6215 57.0472C73.3042 56.3634 73.1456 55.573 73.1456 54.6759C73.1456 53.8062 73.3042 53.0294 73.6215 52.3456C73.9387 51.6564 74.3928 51.1121 74.9835 50.7128C75.5743 50.308 76.2799 50.1056 77.1004 50.1056C78.2492 50.1056 79.1572 50.4913 79.8246 51.2626C80.4974 52.0338 80.8338 53.0923 80.8338 54.4379C80.8338 54.5856 80.8283 54.7333 80.8174 54.881C80.8119 55.0232 80.8037 55.1491 80.7928 55.2585H75.0492ZM77.1169 51.4677C76.5425 51.4677 76.0666 51.6728 75.6892 52.0831C75.3117 52.4933 75.0957 53.1333 75.041 54.0031H79.0533C79.0369 53.188 78.8618 52.5617 78.5281 52.1241C78.1999 51.6865 77.7295 51.4677 77.1169 51.4677Z" fill="#FFAD2A"/>
<path d="M16.2985 76.3354V82.3908C16.2985 82.905 16.3997 83.2715 16.6021 83.4903C16.8099 83.7091 17.1217 83.8185 17.5374 83.8185C17.9313 83.8185 18.3115 83.7009 18.6779 83.4656C19.0444 83.2304 19.3344 82.9432 19.5477 82.6041V76.3354H21.3856V85H19.8021L19.6872 83.8923C19.3644 84.3244 18.9569 84.6554 18.4646 84.8851C17.9723 85.1094 17.4691 85.2215 16.9549 85.2215C16.1125 85.2215 15.4862 84.9918 15.0759 84.5323C14.6656 84.0674 14.4605 83.4301 14.4605 82.6205V76.3354H16.2985ZM27.455 83.8103C28.0294 83.8103 28.4861 83.7091 28.8253 83.5067C29.1644 83.2988 29.334 83.0144 29.334 82.6533C29.334 82.4181 29.2848 82.2185 29.1863 82.0544C29.0879 81.8903 28.8909 81.7371 28.5955 81.5949C28.3002 81.4526 27.8516 81.305 27.2499 81.1518C26.681 81.0041 26.1805 80.8291 25.7484 80.6267C25.3217 80.4243 24.9908 80.1617 24.7555 79.839C24.5203 79.5162 24.4027 79.1005 24.4027 78.5918C24.4027 77.8479 24.7118 77.2489 25.3299 76.7949C25.9535 76.3354 26.7986 76.1056 27.8653 76.1056C28.5928 76.1056 29.2273 76.2014 29.7689 76.3928C30.3104 76.5843 30.7726 76.8222 31.1555 77.1067L30.3843 78.2636C30.0451 78.0393 29.6732 77.8561 29.2684 77.7138C28.869 77.5716 28.4178 77.5005 27.9145 77.5005C27.3292 77.5005 26.908 77.588 26.6509 77.7631C26.3993 77.9381 26.2735 78.1706 26.2735 78.4605C26.2735 78.6793 26.3364 78.8598 26.4622 79.0021C26.5935 79.1443 26.8178 79.2783 27.135 79.4041C27.4523 79.5299 27.9008 79.6721 28.4807 79.8308C29.0441 79.9839 29.5337 80.1644 29.9494 80.3723C30.3706 80.5802 30.6961 80.8564 30.9258 81.201C31.161 81.5402 31.2786 81.9832 31.2786 82.5303C31.2786 83.1538 31.0981 83.6653 30.7371 84.0646C30.3761 84.4585 29.9056 84.7511 29.3258 84.9426C28.746 85.1285 28.1224 85.2215 27.455 85.2215C26.6509 85.2215 25.9562 85.1067 25.3709 84.8769C24.7856 84.6417 24.2933 84.3491 23.894 83.999L24.8704 82.8831C25.2096 83.1566 25.5979 83.3809 26.0355 83.5559C26.4732 83.7255 26.9463 83.8103 27.455 83.8103ZM35.6742 81.2585C35.7289 82.1501 35.9778 82.7956 36.4208 83.1949C36.8694 83.5942 37.4082 83.7938 38.0372 83.7938C38.4584 83.7938 38.8496 83.7282 39.2106 83.5969C39.5771 83.4656 39.9436 83.2797 40.3101 83.039L41.106 84.1385C40.7012 84.4667 40.228 84.7292 39.6865 84.9262C39.1449 85.1231 38.5651 85.2215 37.947 85.2215C37.0444 85.2215 36.2813 85.0301 35.6578 84.6472C35.0396 84.2643 34.5692 83.7309 34.2465 83.0472C33.9292 82.3634 33.7706 81.573 33.7706 80.6759C33.7706 79.8062 33.9292 79.0294 34.2465 78.3456C34.5637 77.6564 35.0178 77.1121 35.6085 76.7128C36.1993 76.308 36.9049 76.1056 37.7254 76.1056C38.8742 76.1056 39.7822 76.4913 40.4496 77.2626C41.1224 78.0338 41.4588 79.0923 41.4588 80.4379C41.4588 80.5856 41.4533 80.7333 41.4424 80.881C41.4369 81.0232 41.4287 81.1491 41.4178 81.2585H35.6742ZM37.7419 77.4677C37.1675 77.4677 36.6916 77.6728 36.3142 78.0831C35.9367 78.4933 35.7207 79.1333 35.666 80.0031H39.6783C39.6619 79.188 39.4868 78.5617 39.1531 78.1241C38.8249 77.6865 38.3545 77.4677 37.7419 77.4677ZM44.0738 85V83.6872H45.3456V77.64H44.0738V76.3354H46.7487L47.0851 78.3456C47.4078 77.6181 47.8071 77.0656 48.283 76.6882C48.7644 76.3053 49.3825 76.1138 50.1374 76.1138C50.3945 76.1138 50.6242 76.1357 50.8266 76.1795C51.0345 76.2178 51.2396 76.2697 51.442 76.3354L51.1302 79.5272H49.8174V77.7631C49.2048 77.785 48.6769 78.0311 48.2338 78.5015C47.7907 78.9665 47.4407 79.6229 47.1836 80.4708V83.6872H48.9312V85H44.0738ZM55.8129 77.9108C55.8129 77.506 55.9552 77.1614 56.2396 76.8769C56.5241 76.587 56.8741 76.4421 57.2899 76.4421C57.7056 76.4421 58.0557 76.587 58.3401 76.8769C58.6246 77.1614 58.7668 77.506 58.7668 77.9108C58.7668 78.3156 58.6246 78.6656 58.3401 78.961C58.0557 79.2509 57.7056 79.3959 57.2899 79.3959C56.8741 79.3959 56.5241 79.2509 56.2396 78.961C55.9552 78.6656 55.8129 78.3156 55.8129 77.9108ZM55.8129 83.7364C55.8129 83.3371 55.9552 82.9952 56.2396 82.7108C56.5241 82.4209 56.8741 82.2759 57.2899 82.2759C57.7056 82.2759 58.0557 82.4209 58.3401 82.7108C58.6246 82.9952 58.7668 83.3371 58.7668 83.7364C58.7668 84.1467 58.6246 84.4968 58.3401 84.7867C58.0557 85.0766 57.7056 85.2215 57.2899 85.2215C56.8741 85.2215 56.5241 85.0766 56.2396 84.7867C55.9552 84.4968 55.8129 84.1467 55.8129 83.7364ZM73.6051 85V83.6872H74.8769V77.64H73.6051V76.3354H76.2799L76.6163 78.3456C76.9391 77.6181 77.3384 77.0656 77.8143 76.6882C78.2957 76.3053 78.9138 76.1138 79.6687 76.1138C79.9257 76.1138 80.1555 76.1357 80.3579 76.1795C80.5657 76.2178 80.7709 76.2697 80.9733 76.3354L80.6615 79.5272H79.3487V77.7631C78.736 77.785 78.2081 78.0311 77.7651 78.5015C77.322 78.9665 76.9719 79.6229 76.7148 80.4708V83.6872H78.4625V85H73.6051ZM84.8929 81.2585C84.9476 82.1501 85.1965 82.7956 85.6396 83.1949C86.0881 83.5942 86.6269 83.7938 87.256 83.7938C87.6772 83.7938 88.0683 83.7282 88.4293 83.5969C88.7958 83.4656 89.1623 83.2797 89.5288 83.039L90.3247 84.1385C89.9199 84.4667 89.4468 84.7292 88.9052 84.9262C88.3637 85.1231 87.7839 85.2215 87.1657 85.2215C86.2632 85.2215 85.5001 85.0301 84.8765 84.6472C84.2584 84.2643 83.788 83.7309 83.4652 83.0472C83.148 82.3634 82.9893 81.573 82.9893 80.6759C82.9893 79.8062 83.148 79.0294 83.4652 78.3456C83.7825 77.6564 84.2365 77.1121 84.8273 76.7128C85.418 76.308 86.1237 76.1056 86.9442 76.1056C88.0929 76.1056 89.001 76.4913 89.6683 77.2626C90.3411 78.0338 90.6775 79.0923 90.6775 80.4379C90.6775 80.5856 90.6721 80.7333 90.6611 80.881C90.6557 81.0232 90.6474 81.1491 90.6365 81.2585H84.8929ZM86.9606 77.4677C86.3863 77.4677 85.9104 77.6728 85.5329 78.0831C85.1555 78.4933 84.9394 79.1333 84.8847 80.0031H88.897C88.8806 79.188 88.7056 78.5617 88.3719 78.1241C88.0437 77.6865 87.5733 77.4677 86.9606 77.4677ZM100.8 76.3354L97.7479 85H95.5982L92.5459 76.3354H94.5151L96.7141 83.4738L98.9213 76.3354H100.8ZM103.136 85V83.6872H104.408V77.64H103.136V76.3354H105.811L106.148 78.3456C106.47 77.6181 106.87 77.0656 107.346 76.6882C107.827 76.3053 108.445 76.1138 109.2 76.1138C109.457 76.1138 109.687 76.1357 109.889 76.1795C110.097 76.2178 110.302 76.2697 110.505 76.3354L110.193 79.5272H108.88V77.7631C108.267 77.785 107.739 78.0311 107.296 78.5015C106.853 78.9665 106.503 79.6229 106.246 80.4708V83.6872H107.994V85H103.136ZM116.049 83.8103C116.623 83.8103 117.08 83.7091 117.419 83.5067C117.758 83.2988 117.928 83.0144 117.928 82.6533C117.928 82.4181 117.879 82.2185 117.78 82.0544C117.682 81.8903 117.485 81.7371 117.189 81.5949C116.894 81.4526 116.445 81.305 115.844 81.1518C115.275 81.0041 114.774 80.8291 114.342 80.6267C113.915 80.4243 113.585 80.1617 113.349 79.839C113.114 79.5162 112.996 79.1005 112.996 78.5918C112.996 77.8479 113.306 77.2489 113.924 76.7949C114.547 76.3354 115.392 76.1056 116.459 76.1056C117.187 76.1056 117.821 76.2014 118.363 76.3928C118.904 76.5843 119.366 76.8222 119.749 77.1067L118.978 78.2636C118.639 78.0393 118.267 77.8561 117.862 77.7138C117.463 77.5716 117.012 77.5005 116.508 77.5005C115.923 77.5005 115.502 77.588 115.245 77.7631C114.993 77.9381 114.867 78.1706 114.867 78.4605C114.867 78.6793 114.93 78.8598 115.056 79.0021C115.187 79.1443 115.412 79.2783 115.729 79.4041C116.046 79.5299 116.495 79.6721 117.074 79.8308C117.638 79.9839 118.127 80.1644 118.543 80.3723C118.964 80.5802 119.29 80.8564 119.52 81.201C119.755 81.5402 119.872 81.9832 119.872 82.5303C119.872 83.1538 119.692 83.6653 119.331 84.0646C118.97 84.4585 118.499 84.7511 117.92 84.9426C117.34 85.1285 116.716 85.2215 116.049 85.2215C115.245 85.2215 114.55 85.1067 113.965 84.8769C113.379 84.6417 112.887 84.3491 112.488 83.999L113.464 82.8831C113.803 83.1566 114.192 83.3809 114.629 83.5559C115.067 83.7255 115.54 83.8103 116.049 83.8103ZM124.58 72.6759V77.3938C124.93 76.9672 125.337 76.6472 125.802 76.4338C126.273 76.215 126.76 76.1056 127.263 76.1056C128.078 76.1056 128.685 76.3326 129.084 76.7867C129.484 77.2407 129.683 77.8725 129.683 78.6821V85H127.845V78.9692C127.845 78.4496 127.747 78.0776 127.55 77.8533C127.353 77.6236 127.036 77.5087 126.598 77.5087C126.188 77.5087 125.808 77.6427 125.458 77.9108C125.108 78.1733 124.815 78.4715 124.58 78.8051V85H122.742V72.8728L124.58 72.6759ZM21.0821 100.875C21.0821 101.219 21.134 101.468 21.2379 101.622C21.3419 101.775 21.5087 101.89 21.7385 101.966L21.3282 103.213C20.9015 103.164 20.5323 103.046 20.2205 102.861C19.9142 102.675 19.6844 102.393 19.5313 102.015C19.214 102.42 18.812 102.724 18.3251 102.926C17.8383 103.123 17.3186 103.222 16.7662 103.222C15.8855 103.222 15.1908 102.975 14.6821 102.483C14.1733 101.985 13.919 101.334 13.919 100.53C13.919 99.6168 14.2745 98.9138 14.9856 98.4215C15.6968 97.9292 16.7142 97.6831 18.0379 97.6831H19.2769V97.1169C19.2769 96.5535 19.1074 96.1515 18.7682 95.9108C18.4291 95.6646 17.9559 95.5415 17.3487 95.5415C17.0643 95.5415 16.7197 95.5798 16.3149 95.6564C15.9101 95.7275 15.4862 95.8397 15.0431 95.9928L14.5918 94.6964C15.1333 94.494 15.6639 94.3463 16.1836 94.2533C16.7032 94.1549 17.1846 94.1056 17.6277 94.1056C18.7874 94.1056 19.6516 94.3627 20.2205 94.8769C20.7949 95.3911 21.0821 96.1022 21.0821 97.0103V100.875ZM17.3241 101.868C17.6961 101.868 18.0598 101.769 18.4154 101.572C18.7709 101.375 19.0581 101.099 19.2769 100.744V98.8318H18.2595C17.3952 98.8318 16.7771 98.9768 16.4051 99.2667C16.0332 99.5511 15.8472 99.945 15.8472 100.448C15.8472 101.395 16.3395 101.868 17.3241 101.868ZM31.5986 93.2359L32.0909 94.7621C31.7463 94.8769 31.3661 94.9535 30.9504 94.9918C30.5402 95.0301 30.0807 95.0492 29.572 95.0492C30.0916 95.279 30.4827 95.5744 30.7453 95.9354C31.0079 96.2909 31.1391 96.7285 31.1391 97.2482C31.1391 97.8116 31.0024 98.3149 30.7289 98.7579C30.4554 99.201 30.0615 99.5484 29.5473 99.8C29.0386 100.052 28.4314 100.177 27.7258 100.177C27.4742 100.177 27.2554 100.166 27.0694 100.145C26.8889 100.123 26.7111 100.087 26.5361 100.038C26.279 100.208 26.1504 100.445 26.1504 100.752C26.1504 100.927 26.2215 101.08 26.3637 101.211C26.5114 101.337 26.8014 101.4 27.2335 101.4H28.7432C29.3614 101.4 29.9056 101.507 30.3761 101.72C30.852 101.928 31.2239 102.215 31.492 102.582C31.7655 102.943 31.9022 103.353 31.9022 103.812C31.9022 104.677 31.5302 105.347 30.7863 105.823C30.0424 106.298 28.9702 106.536 27.5699 106.536C26.5743 106.536 25.7949 106.435 25.2314 106.233C24.6735 106.03 24.2796 105.73 24.0499 105.33C23.8202 104.931 23.7053 104.441 23.7053 103.862H25.3545C25.3545 104.168 25.412 104.419 25.5268 104.616C25.6472 104.813 25.8687 104.958 26.1914 105.051C26.5142 105.15 26.9791 105.199 27.5863 105.199C28.4889 105.199 29.1261 105.087 29.4981 104.863C29.8701 104.644 30.0561 104.335 30.0561 103.935C30.0561 103.58 29.9029 103.306 29.5966 103.115C29.2902 102.929 28.88 102.836 28.3658 102.836H26.8807C26.0602 102.836 25.4585 102.669 25.0755 102.335C24.6981 102.002 24.5094 101.613 24.5094 101.17C24.5094 100.547 24.8321 100.024 25.4776 99.6031C24.9579 99.3296 24.5778 98.9986 24.3371 98.6103C24.1019 98.2164 23.9843 97.7405 23.9843 97.1826C23.9843 96.5699 24.1374 96.0338 24.4437 95.5744C24.7501 95.1149 25.174 94.7566 25.7155 94.4995C26.2626 94.2424 26.8916 94.1138 27.6027 94.1138C28.2974 94.1193 28.8773 94.0838 29.3422 94.0072C29.8072 93.9306 30.212 93.8267 30.5566 93.6954C30.9067 93.5586 31.254 93.4055 31.5986 93.2359ZM27.6191 95.3774C27.0338 95.3774 26.5935 95.5443 26.2981 95.8779C26.0027 96.2062 25.855 96.6356 25.855 97.1662C25.855 97.7132 26.0055 98.1535 26.3063 98.4872C26.6072 98.8154 27.053 98.9795 27.6437 98.9795C28.1853 98.9795 28.5983 98.8209 28.8827 98.5036C29.1726 98.1863 29.3176 97.735 29.3176 97.1497C29.3176 95.9682 28.7514 95.3774 27.6191 95.3774ZM35.6742 99.2585C35.7289 100.15 35.9778 100.796 36.4208 101.195C36.8694 101.594 37.4082 101.794 38.0372 101.794C38.4584 101.794 38.8496 101.728 39.2106 101.597C39.5771 101.466 39.9436 101.28 40.3101 101.039L41.106 102.138C40.7012 102.467 40.228 102.729 39.6865 102.926C39.1449 103.123 38.5651 103.222 37.947 103.222C37.0444 103.222 36.2813 103.03 35.6578 102.647C35.0396 102.264 34.5692 101.731 34.2465 101.047C33.9292 100.363 33.7706 99.573 33.7706 98.6759C33.7706 97.8062 33.9292 97.0294 34.2465 96.3456C34.5637 95.6564 35.0178 95.1121 35.6085 94.7128C36.1993 94.308 36.9049 94.1056 37.7254 94.1056C38.8742 94.1056 39.7822 94.4913 40.4496 95.2626C41.1224 96.0338 41.4588 97.0923 41.4588 98.4379C41.4588 98.5856 41.4533 98.7333 41.4424 98.881C41.4369 99.0232 41.4287 99.1491 41.4178 99.2585H35.6742ZM37.7419 95.4677C37.1675 95.4677 36.6916 95.6728 36.3142 96.0831C35.9367 96.4933 35.7207 97.1333 35.666 98.0031H39.6783C39.6619 97.188 39.4868 96.5617 39.1531 96.1241C38.8249 95.6865 38.3545 95.4677 37.7419 95.4677ZM45.9692 95.9108C45.9692 95.506 46.1114 95.1614 46.3959 94.8769C46.6803 94.587 47.0304 94.4421 47.4461 94.4421C47.8618 94.4421 48.2119 94.587 48.4964 94.8769C48.7808 95.1614 48.923 95.506 48.923 95.9108C48.923 96.3156 48.7808 96.6656 48.4964 96.961C48.2119 97.2509 47.8618 97.3959 47.4461 97.3959C47.0304 97.3959 46.6803 97.2509 46.3959 96.961C46.1114 96.6656 45.9692 96.3156 45.9692 95.9108ZM45.9692 101.736C45.9692 101.337 46.1114 100.995 46.3959 100.711C46.6803 100.421 47.0304 100.276 47.4461 100.276C47.8618 100.276 48.2119 100.421 48.4964 100.711C48.7808 100.995 48.923 101.337 48.923 101.736C48.923 102.147 48.7808 102.497 48.4964 102.787C48.2119 103.077 47.8618 103.222 47.4461 103.222C47.0304 103.222 46.6803 103.077 46.3959 102.787C46.1114 102.497 45.9692 102.147 45.9692 101.736ZM66.6823 91.4472C67.4482 91.4472 68.0991 91.5921 68.6352 91.8821C69.1712 92.1665 69.5787 92.5521 69.8577 93.039C70.1422 93.5203 70.2844 94.0564 70.2844 94.6472C70.2844 95.145 70.1969 95.6318 70.0218 96.1077C69.8523 96.5781 69.576 97.0759 69.1931 97.601C68.8157 98.1207 68.3152 98.7005 67.6916 99.3405C67.068 99.975 66.3049 100.703 65.4023 101.523H70.547L70.3336 103H63.2936V101.605C64.3111 100.626 65.148 99.7945 65.8044 99.1108C66.4663 98.427 66.9832 97.8362 67.3552 97.3385C67.7326 96.8407 67.9979 96.3921 68.1511 95.9928C68.3042 95.588 68.3808 95.1778 68.3808 94.7621C68.3808 94.1932 68.2194 93.7446 67.8967 93.4164C67.574 93.0882 67.1254 92.9241 66.5511 92.9241C66.0423 92.9241 65.6157 93.0171 65.2711 93.2031C64.9319 93.3891 64.5955 93.6899 64.2618 94.1056L63.0639 93.1949C63.507 92.6315 64.0157 92.1993 64.59 91.8985C65.1644 91.5976 65.8618 91.4472 66.6823 91.4472ZM18.2677 108.856V118.637C18.2677 119.036 18.388 119.321 18.6287 119.49C18.8749 119.654 19.1921 119.736 19.5805 119.736C19.8267 119.736 20.0619 119.712 20.2862 119.663C20.5159 119.608 20.7374 119.537 20.9508 119.449L21.4185 120.729C21.1614 120.861 20.8441 120.975 20.4667 121.074C20.0947 121.172 19.668 121.222 19.1867 121.222C18.3169 121.222 17.6386 120.975 17.1518 120.483C16.6704 119.991 16.4297 119.321 16.4297 118.473V110.21H13.8123V108.856H18.2677ZM27.775 112.106C29.0441 112.106 30.0123 112.519 30.6796 113.345C31.347 114.171 31.6807 115.273 31.6807 116.651C31.6807 117.57 31.5275 118.372 31.2212 119.055C30.9203 119.739 30.4773 120.272 29.892 120.655C29.3121 121.033 28.6037 121.222 27.7668 121.222C26.5032 121.222 25.535 120.814 24.8622 119.999C24.1894 119.178 23.853 118.068 23.853 116.668C23.853 115.771 24.0034 114.98 24.3043 114.296C24.6106 113.607 25.0564 113.071 25.6417 112.688C26.227 112.3 26.9381 112.106 27.775 112.106ZM27.775 113.533C27.1132 113.533 26.6154 113.788 26.2817 114.296C25.948 114.8 25.7812 115.59 25.7812 116.668C25.7812 117.745 25.9453 118.538 26.2735 119.047C26.6072 119.55 27.1049 119.802 27.7668 119.802C28.4287 119.802 28.9237 119.548 29.252 119.039C29.5856 118.53 29.7525 117.734 29.7525 116.651C29.7525 115.585 29.5884 114.8 29.2602 114.296C28.932 113.788 28.4369 113.533 27.775 113.533ZM38.3244 119.712C38.7292 119.712 39.1066 119.641 39.4567 119.498C39.8068 119.356 40.1405 119.176 40.4578 118.957L41.3111 120.138C40.9337 120.461 40.4742 120.724 39.9326 120.926C39.3966 121.123 38.8413 121.222 38.267 121.222C37.3808 121.222 36.6205 121.036 35.986 120.664C35.3569 120.286 34.8755 119.761 34.5419 119.088C34.2137 118.41 34.0496 117.617 34.0496 116.709C34.0496 115.828 34.2164 115.043 34.5501 114.354C34.8892 113.659 35.376 113.112 36.0106 112.713C36.6451 112.308 37.4082 112.106 38.2998 112.106C39.4595 112.106 40.4605 112.453 41.3029 113.148L40.4578 114.305C40.1186 114.069 39.7713 113.892 39.4157 113.771C39.0601 113.645 38.6991 113.583 38.3326 113.583C37.6434 113.583 37.0827 113.834 36.6506 114.337C36.2184 114.841 36.0024 115.631 36.0024 116.709C36.0024 117.792 36.2212 118.563 36.6588 119.023C37.0964 119.482 37.6516 119.712 38.3244 119.712ZM50.6133 118.875C50.6133 119.219 50.6653 119.468 50.7692 119.622C50.8731 119.775 51.04 119.89 51.2697 119.966L50.8595 121.213C50.4328 121.164 50.0636 121.046 49.7518 120.861C49.4454 120.675 49.2157 120.393 49.0625 120.015C48.7453 120.42 48.3432 120.724 47.8564 120.926C47.3695 121.123 46.8499 121.222 46.2974 121.222C45.4167 121.222 44.722 120.975 44.2133 120.483C43.7046 119.985 43.4502 119.334 43.4502 118.53C43.4502 117.617 43.8058 116.914 44.5169 116.422C45.228 115.929 46.2454 115.683 47.5692 115.683H48.8082V115.117C48.8082 114.554 48.6386 114.151 48.2995 113.911C47.9603 113.665 47.4871 113.542 46.88 113.542C46.5955 113.542 46.2509 113.58 45.8461 113.656C45.4413 113.728 45.0174 113.84 44.5743 113.993L44.123 112.696C44.6646 112.494 45.1952 112.346 45.7148 112.253C46.2345 112.155 46.7159 112.106 47.1589 112.106C48.3186 112.106 49.1829 112.363 49.7518 112.877C50.3261 113.391 50.6133 114.102 50.6133 115.01V118.875ZM46.8554 119.868C47.2273 119.868 47.5911 119.769 47.9466 119.572C48.3022 119.375 48.5894 119.099 48.8082 118.744V116.832H47.7907C46.9265 116.832 46.3083 116.977 45.9364 117.267C45.5644 117.551 45.3784 117.945 45.3784 118.448C45.3784 119.395 45.8707 119.868 46.8554 119.868ZM61.0724 120.541C60.7552 120.743 60.375 120.907 59.9319 121.033C59.4888 121.159 59.0266 121.222 58.5453 121.222C57.5388 121.222 56.7729 120.962 56.2478 120.442C55.7282 119.917 55.4683 119.228 55.4683 118.374V113.673H53.5401V112.335H55.4683V110.399L57.3063 110.177V112.335H60.2273L60.0222 113.673H57.3063V118.358C57.3063 118.823 57.4212 119.17 57.6509 119.4C57.8861 119.624 58.269 119.736 58.7996 119.736C59.1169 119.736 59.4068 119.698 59.6694 119.622C59.9374 119.545 60.1835 119.446 60.4078 119.326L61.0724 120.541ZM67.1336 108.093C67.4946 108.093 67.7846 108.203 68.0034 108.422C68.2276 108.64 68.3398 108.914 68.3398 109.242C68.3398 109.57 68.2276 109.846 68.0034 110.071C67.7846 110.295 67.4946 110.407 67.1336 110.407C66.7835 110.407 66.4964 110.295 66.2721 110.071C66.0478 109.846 65.9357 109.57 65.9357 109.242C65.9357 108.914 66.0478 108.64 66.2721 108.422C66.4964 108.203 66.7835 108.093 67.1336 108.093ZM68.4136 112.335V119.654H70.7685V121H63.9829V119.654H66.5757V113.681H64.0649V112.335H68.4136ZM76.9938 112.106C78.2628 112.106 79.231 112.519 79.8984 113.345C80.5657 114.171 80.8994 115.273 80.8994 116.651C80.8994 117.57 80.7463 118.372 80.4399 119.055C80.1391 119.739 79.696 120.272 79.1107 120.655C78.5309 121.033 77.8225 121.222 76.9856 121.222C75.722 121.222 74.7538 120.814 74.081 119.999C73.4081 119.178 73.0717 118.068 73.0717 116.668C73.0717 115.771 73.2222 114.98 73.523 114.296C73.8293 113.607 74.2751 113.071 74.8604 112.688C75.4457 112.3 76.1569 112.106 76.9938 112.106ZM76.9938 113.533C76.3319 113.533 75.8341 113.788 75.5004 114.296C75.1668 114.8 74.9999 115.59 74.9999 116.668C74.9999 117.745 75.164 118.538 75.4922 119.047C75.8259 119.55 76.3237 119.802 76.9856 119.802C77.6475 119.802 78.1425 119.548 78.4707 119.039C78.8044 118.53 78.9712 117.734 78.9712 116.651C78.9712 115.585 78.8071 114.8 78.4789 114.296C78.1507 113.788 77.6557 113.533 76.9938 113.533ZM83.3668 121V112.335H84.9504L85.0898 113.459C85.4509 113.022 85.8775 112.688 86.3698 112.458C86.8621 112.223 87.3681 112.106 87.8878 112.106C88.6974 112.106 89.3018 112.333 89.7011 112.787C90.1059 113.241 90.3083 113.872 90.3083 114.682V121H88.4704V115.593C88.4704 114.843 88.3938 114.31 88.2406 113.993C88.0929 113.67 87.7565 113.509 87.2314 113.509C86.8102 113.509 86.4245 113.64 86.0745 113.903C85.7298 114.16 85.4399 114.452 85.2047 114.781V121H83.3668ZM95.1879 113.911C95.1879 113.506 95.3302 113.161 95.6146 112.877C95.8991 112.587 96.2491 112.442 96.6649 112.442C97.0806 112.442 97.4307 112.587 97.7151 112.877C97.9996 113.161 98.1418 113.506 98.1418 113.911C98.1418 114.316 97.9996 114.666 97.7151 114.961C97.4307 115.251 97.0806 115.396 96.6649 115.396C96.2491 115.396 95.8991 115.251 95.6146 114.961C95.3302 114.666 95.1879 114.316 95.1879 113.911ZM95.1879 119.736C95.1879 119.337 95.3302 118.995 95.6146 118.711C95.8991 118.421 96.2491 118.276 96.6649 118.276C97.0806 118.276 97.4307 118.421 97.7151 118.711C97.9996 118.995 98.1418 119.337 98.1418 119.736C98.1418 120.147 97.9996 120.497 97.7151 120.787C97.4307 121.077 97.0806 121.222 96.6649 121.222C96.2491 121.222 95.8991 121.077 95.6146 120.787C95.3302 120.497 95.1879 120.147 95.1879 119.736ZM117.632 121L114.03 111.367C114.052 111.591 114.085 111.942 114.129 112.417C114.173 112.888 114.211 113.427 114.244 114.034C114.282 114.636 114.301 115.243 114.301 115.855V121H112.611V109.677H115.081L118.691 119.318C118.663 119.088 118.628 118.752 118.584 118.309C118.546 117.866 118.508 117.346 118.469 116.75C118.436 116.154 118.42 115.516 118.42 114.838V109.677H120.11V121H117.632ZM129.363 118.875C129.363 119.219 129.415 119.468 129.519 119.622C129.623 119.775 129.79 119.89 130.02 119.966L129.609 121.213C129.183 121.164 128.814 121.046 128.502 120.861C128.195 120.675 127.966 120.393 127.813 120.015C127.495 120.42 127.093 120.724 126.606 120.926C126.12 121.123 125.6 121.222 125.047 121.222C124.167 121.222 123.472 120.975 122.963 120.483C122.455 119.985 122.2 119.334 122.2 118.53C122.2 117.617 122.556 116.914 123.267 116.422C123.978 115.929 124.995 115.683 126.319 115.683H127.558V115.117C127.558 114.554 127.389 114.151 127.049 113.911C126.71 113.665 126.237 113.542 125.63 113.542C125.346 113.542 125.001 113.58 124.596 113.656C124.191 113.728 123.767 113.84 123.324 113.993L122.873 112.696C123.415 112.494 123.945 112.346 124.465 112.253C124.984 112.155 125.466 112.106 125.909 112.106C127.069 112.106 127.933 112.363 128.502 112.877C129.076 113.391 129.363 114.102 129.363 115.01V118.875ZM125.605 119.868C125.977 119.868 126.341 119.769 126.697 119.572C127.052 119.375 127.339 119.099 127.558 118.744V116.832H126.541C125.676 116.832 125.058 116.977 124.686 117.267C124.314 117.551 124.128 117.945 124.128 118.448C124.128 119.395 124.621 119.868 125.605 119.868ZM136.811 112.106C137.577 112.106 138.19 112.294 138.649 112.672C139.109 113.044 139.442 113.572 139.65 114.255C139.858 114.934 139.962 115.732 139.962 116.651C139.962 117.532 139.836 118.317 139.584 119.006C139.333 119.695 138.958 120.237 138.46 120.631C137.968 121.025 137.355 121.222 136.622 121.222C135.714 121.222 134.981 120.902 134.423 120.262V124.331L132.586 124.536V112.335H134.186L134.3 113.451C134.629 113.008 135.009 112.675 135.441 112.45C135.873 112.221 136.33 112.106 136.811 112.106ZM136.302 113.525C135.892 113.525 135.528 113.648 135.211 113.894C134.899 114.141 134.637 114.43 134.423 114.764V118.817C134.856 119.463 135.427 119.786 136.138 119.786C136.756 119.786 137.227 119.537 137.55 119.039C137.872 118.541 138.034 117.748 138.034 116.659C138.034 115.549 137.889 114.75 137.599 114.264C137.314 113.771 136.882 113.525 136.302 113.525ZM146.236 108.856V118.637C146.236 119.036 146.357 119.321 146.597 119.49C146.844 119.654 147.161 119.736 147.549 119.736C147.795 119.736 148.031 119.712 148.255 119.663C148.485 119.608 148.706 119.537 148.92 119.449L149.387 120.729C149.13 120.861 148.813 120.975 148.435 121.074C148.063 121.172 147.637 121.222 147.155 121.222C146.286 121.222 145.607 120.975 145.121 120.483C144.639 119.991 144.398 119.321 144.398 118.473V110.21H141.781V108.856H146.236ZM153.799 117.258C153.854 118.15 154.103 118.796 154.546 119.195C154.994 119.594 155.533 119.794 156.162 119.794C156.583 119.794 156.975 119.728 157.336 119.597C157.702 119.466 158.069 119.28 158.435 119.039L159.231 120.138C158.826 120.467 158.353 120.729 157.811 120.926C157.27 121.123 156.69 121.222 156.072 121.222C155.169 121.222 154.406 121.03 153.783 120.647C153.165 120.264 152.694 119.731 152.371 119.047C152.054 118.363 151.896 117.573 151.896 116.676C151.896 115.806 152.054 115.029 152.371 114.346C152.689 113.656 153.143 113.112 153.734 112.713C154.324 112.308 155.03 112.106 155.85 112.106C156.999 112.106 157.907 112.491 158.575 113.263C159.247 114.034 159.584 115.092 159.584 116.438C159.584 116.586 159.578 116.733 159.567 116.881C159.562 117.023 159.554 117.149 159.543 117.258H153.799ZM155.867 113.468C155.293 113.468 154.817 113.673 154.439 114.083C154.062 114.493 153.846 115.133 153.791 116.003H157.803C157.787 115.188 157.612 114.562 157.278 114.124C156.95 113.686 156.48 113.468 155.867 113.468ZM165.268 119.81C165.842 119.81 166.299 119.709 166.638 119.507C166.977 119.299 167.147 119.014 167.147 118.653C167.147 118.418 167.097 118.218 166.999 118.054C166.9 117.89 166.703 117.737 166.408 117.595C166.113 117.453 165.664 117.305 165.062 117.152C164.494 117.004 163.993 116.829 163.561 116.627C163.134 116.424 162.803 116.162 162.568 115.839C162.333 115.516 162.215 115.101 162.215 114.592C162.215 113.848 162.524 113.249 163.142 112.795C163.766 112.335 164.611 112.106 165.678 112.106C166.405 112.106 167.04 112.201 167.581 112.393C168.123 112.584 168.585 112.822 168.968 113.107L168.197 114.264C167.858 114.039 167.486 113.856 167.081 113.714C166.682 113.572 166.23 113.501 165.727 113.501C165.142 113.501 164.721 113.588 164.463 113.763C164.212 113.938 164.086 114.171 164.086 114.461C164.086 114.679 164.149 114.86 164.275 115.002C164.406 115.144 164.63 115.278 164.948 115.404C165.265 115.53 165.713 115.672 166.293 115.831C166.857 115.984 167.346 116.164 167.762 116.372C168.183 116.58 168.509 116.856 168.738 117.201C168.974 117.54 169.091 117.983 169.091 118.53C169.091 119.154 168.911 119.665 168.55 120.065C168.189 120.458 167.718 120.751 167.138 120.943C166.558 121.129 165.935 121.222 165.268 121.222C164.463 121.222 163.769 121.107 163.183 120.877C162.598 120.642 162.106 120.349 161.707 119.999L162.683 118.883C163.022 119.157 163.41 119.381 163.848 119.556C164.286 119.725 164.759 119.81 165.268 119.81Z" fill="#B9B9B9"/>
</svg>
