<svg width="292" height="154" viewBox="0 0 292 154" fill="none" xmlns="http://www.w3.org/2000/svg">
<rect x="1.5" y="16.5" width="289" height="136" fill="black" stroke="#D8ECFF" stroke-width="3"/>
<rect y="15" width="292" height="34" fill="#D8ECFF"/>
<path d="M15.2062 36.4769C15.7785 36.4769 16.2369 36.3785 16.5815 36.1815C16.9323 35.9846 17.1077 35.7015 17.1077 35.3323C17.1077 35.0985 17.0492 34.8985 16.9323 34.7323C16.8215 34.56 16.6 34.4031 16.2677 34.2615C15.9354 34.1138 15.4369 33.9508 14.7723 33.7723C14.1446 33.6123 13.5938 33.4154 13.12 33.1815C12.6523 32.9415 12.2862 32.6338 12.0215 32.2585C11.7631 31.8831 11.6338 31.4092 11.6338 30.8369C11.6338 29.9877 11.9908 29.2954 12.7046 28.76C13.4185 28.2185 14.4154 27.9477 15.6954 27.9477C16.5323 27.9477 17.2646 28.0585 17.8923 28.28C18.52 28.4954 19.0585 28.7662 19.5077 29.0923L18.5108 30.5785C18.1169 30.3262 17.6892 30.1231 17.2277 29.9692C16.7723 29.8092 16.28 29.7292 15.7508 29.7292C15.1785 29.7292 14.76 29.8123 14.4954 29.9785C14.2369 30.1446 14.1077 30.3754 14.1077 30.6708C14.1077 30.88 14.1723 31.0585 14.3015 31.2062C14.4369 31.3477 14.6769 31.4862 15.0215 31.6215C15.3723 31.7508 15.8708 31.9077 16.5169 32.0923C17.1508 32.2708 17.7015 32.4769 18.1692 32.7108C18.6431 32.9446 19.0092 33.2554 19.2677 33.6431C19.5262 34.0246 19.6554 34.5292 19.6554 35.1569C19.6554 35.8646 19.4492 36.4492 19.0369 36.9108C18.6246 37.3723 18.08 37.7169 17.4031 37.9446C16.7262 38.1662 15.9969 38.2769 15.2154 38.2769C14.2923 38.2769 13.4862 38.1446 12.7969 37.88C12.1077 37.6154 11.5231 37.2738 11.0431 36.8554L12.3077 35.4338C12.6892 35.7354 13.1231 35.9846 13.6092 36.1815C14.1015 36.3785 14.6338 36.4769 15.2062 36.4769ZM31.4127 28.2246L28.0988 38.0185C27.6988 39.2123 27.105 40.1538 26.3173 40.8431C25.5296 41.5385 24.4281 41.9354 23.0127 42.0338L22.7081 40.2708C23.3604 40.1785 23.8834 40.04 24.2773 39.8554C24.6773 39.6708 24.9942 39.4277 25.2281 39.1262C25.4681 38.8246 25.6742 38.4492 25.8465 38H25.0158L21.8127 28.2246H24.3881L26.6034 36.3754L28.9111 28.2246H31.4127ZM37.3546 36.4769C37.9269 36.4769 38.3854 36.3785 38.73 36.1815C39.0807 35.9846 39.2561 35.7015 39.2561 35.3323C39.2561 35.0985 39.1977 34.8985 39.0807 34.7323C38.97 34.56 38.7484 34.4031 38.4161 34.2615C38.0838 34.1138 37.5854 33.9508 36.9207 33.7723C36.2931 33.6123 35.7423 33.4154 35.2684 33.1815C34.8007 32.9415 34.4346 32.6338 34.17 32.2585C33.9115 31.8831 33.7823 31.4092 33.7823 30.8369C33.7823 29.9877 34.1392 29.2954 34.8531 28.76C35.5669 28.2185 36.5638 27.9477 37.8438 27.9477C38.6807 27.9477 39.4131 28.0585 40.0407 28.28C40.6684 28.4954 41.2069 28.7662 41.6561 29.0923L40.6592 30.5785C40.2654 30.3262 39.8377 30.1231 39.3761 29.9692C38.9207 29.8092 38.4284 29.7292 37.8992 29.7292C37.3269 29.7292 36.9084 29.8123 36.6438 29.9785C36.3854 30.1446 36.2561 30.3754 36.2561 30.6708C36.2561 30.88 36.3207 31.0585 36.45 31.2062C36.5854 31.3477 36.8254 31.4862 37.17 31.6215C37.5207 31.7508 38.0192 31.9077 38.6654 32.0923C39.2992 32.2708 39.85 32.4769 40.3177 32.7108C40.7915 32.9446 41.1577 33.2554 41.4161 33.6431C41.6746 34.0246 41.8038 34.5292 41.8038 35.1569C41.8038 35.8646 41.5977 36.4492 41.1854 36.9108C40.7731 37.3723 40.2284 37.7169 39.5515 37.9446C38.8746 38.1662 38.1454 38.2769 37.3638 38.2769C36.4407 38.2769 35.6346 38.1446 34.9454 37.88C34.2561 37.6154 33.6715 37.2738 33.1915 36.8554L34.4561 35.4338C34.8377 35.7354 35.2715 35.9846 35.7577 36.1815C36.25 36.3785 36.7823 36.4769 37.3546 36.4769ZM53.1457 37.4554C52.7827 37.6954 52.3427 37.8923 51.8257 38.0462C51.3088 38.2 50.7488 38.2769 50.1457 38.2769C48.9519 38.2769 48.0534 37.9692 47.4503 37.3538C46.8473 36.7323 46.5457 35.9077 46.5457 34.88V29.9508H44.4227V28.2246H46.5457V26.0738L48.9827 25.7785V28.2246H52.2134L51.9642 29.9508H48.9827V34.8708C48.9827 35.3754 49.1057 35.7446 49.3519 35.9785C49.598 36.2123 49.995 36.3292 50.5427 36.3292C50.8934 36.3292 51.2134 36.2892 51.5027 36.2092C51.798 36.1231 52.0657 36.0154 52.3057 35.8862L53.1457 37.4554ZM57.86 33.8554C57.9338 34.7723 58.2046 35.4338 58.6723 35.84C59.14 36.2462 59.7092 36.4492 60.38 36.4492C60.8476 36.4492 61.2876 36.3754 61.7 36.2277C62.1123 36.08 62.5184 35.8738 62.9184 35.6092L63.9338 37.0031C63.4784 37.3846 62.9338 37.6923 62.3 37.9262C61.6723 38.16 60.98 38.2769 60.223 38.2769C59.1646 38.2769 58.2723 38.0585 57.5461 37.6215C56.8261 37.1846 56.2815 36.5785 55.9123 35.8031C55.543 35.0277 55.3584 34.1354 55.3584 33.1262C55.3584 32.1538 55.5369 31.2769 55.8938 30.4954C56.2569 29.7138 56.78 29.0954 57.463 28.64C58.1523 28.1785 58.98 27.9477 59.9461 27.9477C61.2876 27.9477 62.3523 28.3846 63.14 29.2585C63.9276 30.1323 64.3215 31.3415 64.3215 32.8862C64.3215 33.2431 64.3061 33.5662 64.2753 33.8554H57.86ZM59.9553 29.6646C59.3646 29.6646 58.8784 29.8769 58.4969 30.3015C58.1215 30.7262 57.9 31.3908 57.8323 32.2954H61.9492C61.9369 31.4708 61.7676 30.8277 61.4415 30.3662C61.1153 29.8985 60.62 29.6646 59.9553 29.6646ZM73.808 27.9477C74.4234 27.9477 74.9096 28.1538 75.2665 28.5662C75.6234 28.9723 75.8019 29.7015 75.8019 30.7538V38H73.6788V31.0585C73.6788 30.6215 73.6449 30.3108 73.5772 30.1262C73.5096 29.9354 73.3496 29.84 73.0972 29.84C72.8942 29.84 72.688 29.9015 72.4788 30.0246C72.2696 30.1415 72.0572 30.3538 71.8419 30.6615V38H70.0049V31.0585C70.0049 30.6215 69.9711 30.3108 69.9034 30.1262C69.8357 29.9354 69.6757 29.84 69.4234 29.84C69.2203 29.84 69.0142 29.9015 68.8049 30.0246C68.5957 30.1415 68.3834 30.3538 68.168 30.6615V38H66.0172V28.2246H67.8357L67.9926 29.24C68.2819 28.84 68.5865 28.5262 68.9065 28.2985C69.2265 28.0646 69.6111 27.9477 70.0603 27.9477C70.4296 27.9477 70.7557 28.04 71.0388 28.2246C71.328 28.4031 71.5342 28.7108 71.6572 29.1477C71.9403 28.7908 72.2542 28.5015 72.5988 28.28C72.9496 28.0585 73.3526 27.9477 73.808 27.9477ZM93.0488 23.2954C93.4918 23.2954 93.8549 23.4338 94.138 23.7108C94.4211 23.9877 94.5626 24.3323 94.5626 24.7446C94.5626 25.1569 94.4211 25.5046 94.138 25.7877C93.8549 26.0646 93.4918 26.2031 93.0488 26.2031C92.5995 26.2031 92.2334 26.0646 91.9503 25.7877C91.6672 25.5046 91.5257 25.1569 91.5257 24.7446C91.5257 24.3323 91.6672 23.9877 91.9503 23.7108C92.2334 23.4338 92.5995 23.2954 93.0488 23.2954ZM94.6272 28.2246V36.2738H97.2026V38H89.3288V36.2738H92.1903V29.9508H89.4211V28.2246H94.6272ZM100.08 38V28.2246H102.203L102.378 29.4338C103.221 28.4431 104.255 27.9477 105.48 27.9477C106.354 27.9477 107.021 28.2031 107.483 28.7138C107.951 29.2185 108.185 29.9292 108.185 30.8462V38H105.748V31.7969C105.748 31.0585 105.671 30.5354 105.517 30.2277C105.369 29.92 105.049 29.7662 104.557 29.7662C104.157 29.7662 103.785 29.8923 103.44 30.1446C103.095 30.3969 102.788 30.7046 102.517 31.0677V38H100.08ZM117.219 24.0615C117.871 24.0615 118.446 24.1138 118.945 24.2185C119.45 24.3231 119.911 24.4646 120.33 24.6431L119.628 26.2862C119.302 26.1508 118.96 26.0523 118.603 25.9908C118.246 25.9292 117.89 25.8985 117.533 25.8985C116.923 25.8985 116.477 26.0154 116.194 26.2492C115.911 26.4769 115.77 26.8431 115.77 27.3477V28.8892H119L118.733 30.6338H115.77V38H113.342V30.6338H111.191V28.8892H113.342V27.2923C113.342 26.3508 113.683 25.5785 114.366 24.9754C115.056 24.3662 116.006 24.0615 117.219 24.0615ZM126.29 27.9477C127.262 27.9477 128.087 28.16 128.764 28.5846C129.441 29.0092 129.954 29.6092 130.305 30.3846C130.662 31.1538 130.841 32.0554 130.841 33.0892C130.841 34.6769 130.444 35.9385 129.65 36.8738C128.856 37.8092 127.733 38.2769 126.281 38.2769C124.828 38.2769 123.705 37.8185 122.911 36.9015C122.118 35.9785 121.721 34.7138 121.721 33.1077C121.721 32.0862 121.899 31.1877 122.256 30.4123C122.613 29.6369 123.13 29.0338 123.807 28.6031C124.49 28.1662 125.318 27.9477 126.29 27.9477ZM126.29 29.7846C125.607 29.7846 125.096 30.0523 124.758 30.5877C124.425 31.1231 124.259 31.9631 124.259 33.1077C124.259 34.2646 124.425 35.1108 124.758 35.6462C125.09 36.1754 125.598 36.44 126.281 36.44C126.964 36.44 127.471 36.1754 127.804 35.6462C128.136 35.1108 128.302 34.2585 128.302 33.0892C128.302 31.9508 128.136 31.1169 127.804 30.5877C127.471 30.0523 126.967 29.7846 126.29 29.7846Z" fill="black"/>
<path d="M18.6944 60.0349V62.4882C19.3562 62.5538 19.947 62.7097 20.4667 62.9559C20.9863 63.1966 21.4267 63.4756 21.7877 63.7928L20.7867 64.8349C20.1685 64.2879 19.4711 63.9706 18.6944 63.8831V67.2882C19.3125 67.4961 19.8677 67.745 20.36 68.0349C20.8523 68.3248 21.2407 68.694 21.5251 69.1426C21.8096 69.5856 21.9518 70.1381 21.9518 70.8C21.9518 71.3579 21.8287 71.8749 21.5826 72.3508C21.3364 72.8212 20.9699 73.2178 20.4831 73.5405C20.0017 73.8578 19.4055 74.0629 18.6944 74.1559V76.5682H17.5046V74.2051C16.7115 74.1559 16.0168 73.9781 15.4205 73.6718C14.8297 73.3655 14.3429 73.0263 13.96 72.6544L14.9446 71.5467C15.3002 71.8858 15.6858 72.1648 16.1015 72.3836C16.5173 72.5969 16.985 72.7227 17.5046 72.761V68.6503C16.4598 68.3002 15.6776 67.8708 15.1579 67.3621C14.6438 66.8479 14.3867 66.2079 14.3867 65.4421C14.3867 64.6981 14.652 64.0444 15.1826 63.481C15.7186 62.9176 16.4926 62.5867 17.5046 62.4882V60.0349H18.6944ZM17.5046 63.9077C17.0998 63.9788 16.7771 64.1347 16.5364 64.3754C16.2957 64.6161 16.1754 64.9279 16.1754 65.3108C16.1754 65.6554 16.2602 65.9453 16.4297 66.1805C16.6048 66.4157 16.9631 66.6482 17.5046 66.8779V63.9077ZM18.6944 69.0851V72.6954C19.6407 72.4985 20.1138 71.9104 20.1138 70.9313C20.1138 70.5265 20.0126 70.1764 19.8103 69.881C19.6079 69.5856 19.2359 69.3203 18.6944 69.0851ZM93.2844 70.2749V68.7651H100.062V70.2749H93.2844ZM109.676 71.8749C109.676 72.2195 109.728 72.4684 109.832 72.6215C109.936 72.7747 110.102 72.8896 110.332 72.9662L109.922 74.2133C109.495 74.1641 109.126 74.0465 108.814 73.8605C108.508 73.6745 108.278 73.3928 108.125 73.0154C107.808 73.4202 107.406 73.7238 106.919 73.9262C106.432 74.1231 105.912 74.2215 105.36 74.2215C104.479 74.2215 103.785 73.9754 103.276 73.4831C102.767 72.9853 102.513 72.3344 102.513 71.5303C102.513 70.6168 102.868 69.9138 103.579 69.4215C104.291 68.9292 105.308 68.6831 106.632 68.6831H107.871V68.1169C107.871 67.5535 107.701 67.1515 107.362 66.9108C107.023 66.6646 106.55 66.5415 105.942 66.5415C105.658 66.5415 105.313 66.5798 104.909 66.6564C104.504 66.7275 104.08 66.8397 103.637 66.9928L103.186 65.6964C103.727 65.494 104.258 65.3463 104.777 65.2533C105.297 65.1549 105.778 65.1056 106.221 65.1056C107.381 65.1056 108.245 65.3627 108.814 65.8769C109.389 66.3911 109.676 67.1022 109.676 68.0103V71.8749ZM105.918 72.8677C106.29 72.8677 106.654 72.7692 107.009 72.5723C107.365 72.3754 107.652 72.0991 107.871 71.7436V69.8318H106.853C105.989 69.8318 105.371 69.9768 104.999 70.2667C104.627 70.5511 104.441 70.945 104.441 71.4482C104.441 72.3945 104.933 72.8677 105.918 72.8677Z" fill="white"/>
<path d="M35.986 65.3354V71.3908C35.986 71.905 36.0872 72.2715 36.2896 72.4903C36.4974 72.7091 36.8092 72.8185 37.2249 72.8185C37.6188 72.8185 37.999 72.7009 38.3654 72.4656C38.7319 72.2304 39.0219 71.9432 39.2352 71.6041V65.3354H41.0731V74H39.4896L39.3747 72.8923C39.0519 73.3244 38.6444 73.6554 38.1521 73.8851C37.6598 74.1094 37.1566 74.2215 36.6424 74.2215C35.8 74.2215 35.1737 73.9918 34.7634 73.5323C34.3531 73.0674 34.148 72.4301 34.148 71.6205V65.3354H35.986ZM43.9918 74V65.3354H45.5754L45.7148 66.4595C46.0759 66.0219 46.5025 65.6882 46.9948 65.4585C47.4871 65.2232 47.9931 65.1056 48.5128 65.1056C49.3224 65.1056 49.9268 65.3326 50.3261 65.7867C50.7309 66.2407 50.9333 66.8725 50.9333 67.6821V74H49.0954V68.5928C49.0954 67.8434 49.0188 67.3101 48.8656 66.9928C48.7179 66.6701 48.3815 66.5087 47.8564 66.5087C47.4352 66.5087 47.0495 66.64 46.6995 66.9026C46.3548 67.1597 46.0649 67.4523 45.8297 67.7805V74H43.9918ZM60.4571 71.8749C60.4571 72.2195 60.509 72.4684 60.6129 72.6215C60.7169 72.7747 60.8837 72.8896 61.1135 72.9662L60.7032 74.2133C60.2765 74.1641 59.9073 74.0465 59.5955 73.8605C59.2892 73.6745 59.0594 73.3928 58.9063 73.0154C58.589 73.4202 58.187 73.7238 57.7001 73.9262C57.2133 74.1231 56.6936 74.2215 56.1412 74.2215C55.2605 74.2215 54.5658 73.9754 54.0571 73.4831C53.5483 72.9853 53.294 72.3344 53.294 71.5303C53.294 70.6168 53.6495 69.9138 54.3606 69.4215C55.0718 68.9292 56.0892 68.6831 57.4129 68.6831H58.6519V68.1169C58.6519 67.5535 58.4824 67.1515 58.1432 66.9108C57.8041 66.6646 57.3309 66.5415 56.7237 66.5415C56.4393 66.5415 56.0947 66.5798 55.6899 66.6564C55.2851 66.7275 54.8612 66.8397 54.4181 66.9928L53.9668 65.6964C54.5083 65.494 55.0389 65.3463 55.5586 65.2533C56.0782 65.1549 56.5596 65.1056 57.0027 65.1056C58.1624 65.1056 59.0266 65.3627 59.5955 65.8769C60.1699 66.3911 60.4571 67.1022 60.4571 68.0103V71.8749ZM56.6991 72.8677C57.0711 72.8677 57.4348 72.7692 57.7904 72.5723C58.1459 72.3754 58.4331 72.0991 58.6519 71.7436V69.8318H57.6345C56.7702 69.8318 56.1521 69.9768 55.7801 70.2667C55.4082 70.5511 55.2222 70.945 55.2222 71.4482C55.2222 72.3945 55.7145 72.8677 56.6991 72.8677ZM69.6526 65.1056C69.9808 65.1056 70.2762 65.1768 70.5387 65.319C70.8013 65.4612 71.0064 65.7128 71.1541 66.0738C71.3073 66.4294 71.3839 66.9244 71.3839 67.559V74H69.7511V67.8133C69.7511 67.3593 69.7182 67.0338 69.6526 66.8369C69.5924 66.64 69.4311 66.5415 69.1685 66.5415C68.9606 66.5415 68.7473 66.6072 68.5285 66.7385C68.3152 66.8643 68.1018 67.0831 67.8885 67.3949V74H66.4034V67.8133C66.4034 67.3593 66.3705 67.0338 66.3049 66.8369C66.2447 66.64 66.0834 66.5415 65.8208 66.5415C65.6075 66.5415 65.3941 66.6072 65.1808 66.7385C64.9675 66.8643 64.7541 67.0831 64.5408 67.3949V74H62.8998V65.3354H64.2864L64.4095 66.2708C64.6557 65.9262 64.921 65.6472 65.2054 65.4338C65.4953 65.215 65.8482 65.1056 66.2639 65.1056C66.5921 65.1056 66.8902 65.1877 67.1582 65.3518C67.4263 65.5104 67.6232 65.7976 67.749 66.2133C67.9952 65.8851 68.2687 65.6198 68.5695 65.4174C68.8704 65.2096 69.2314 65.1056 69.6526 65.1056ZM75.0492 70.2585C75.1039 71.1501 75.3528 71.7956 75.7958 72.1949C76.2444 72.5942 76.7832 72.7938 77.4122 72.7938C77.8334 72.7938 78.2246 72.7282 78.5856 72.5969C78.9521 72.4656 79.3186 72.2797 79.6851 72.039L80.481 73.1385C80.0762 73.4667 79.603 73.7292 79.0615 73.9262C78.5199 74.1231 77.9401 74.2215 77.322 74.2215C76.4194 74.2215 75.6563 74.0301 75.0328 73.6472C74.4146 73.2643 73.9442 72.7309 73.6215 72.0472C73.3042 71.3634 73.1456 70.573 73.1456 69.6759C73.1456 68.8062 73.3042 68.0294 73.6215 67.3456C73.9387 66.6564 74.3928 66.1121 74.9835 65.7128C75.5743 65.308 76.2799 65.1056 77.1004 65.1056C78.2492 65.1056 79.1572 65.4913 79.8246 66.2626C80.4974 67.0338 80.8338 68.0923 80.8338 69.4379C80.8338 69.5856 80.8283 69.7333 80.8174 69.881C80.8119 70.0232 80.8037 70.1491 80.7928 70.2585H75.0492ZM77.1169 66.4677C76.5425 66.4677 76.0666 66.6728 75.6892 67.0831C75.3117 67.4933 75.0957 68.1333 75.041 69.0031H79.0533C79.0369 68.188 78.8618 67.5617 78.5281 67.1241C78.1999 66.6865 77.7295 66.4677 77.1169 66.4677Z" fill="#FFAD2A"/>
<path d="M16.2985 91.3354V97.3908C16.2985 97.905 16.3997 98.2715 16.6021 98.4903C16.8099 98.7091 17.1217 98.8185 17.5374 98.8185C17.9313 98.8185 18.3115 98.7009 18.6779 98.4656C19.0444 98.2304 19.3344 97.9432 19.5477 97.6041V91.3354H21.3856V100H19.8021L19.6872 98.8923C19.3644 99.3244 18.9569 99.6554 18.4646 99.8851C17.9723 100.109 17.4691 100.222 16.9549 100.222C16.1125 100.222 15.4862 99.9918 15.0759 99.5323C14.6656 99.0674 14.4605 98.4301 14.4605 97.6205V91.3354H16.2985ZM27.455 98.8103C28.0294 98.8103 28.4861 98.7091 28.8253 98.5067C29.1644 98.2988 29.334 98.0144 29.334 97.6533C29.334 97.4181 29.2848 97.2185 29.1863 97.0544C29.0879 96.8903 28.8909 96.7371 28.5955 96.5949C28.3002 96.4526 27.8516 96.305 27.2499 96.1518C26.681 96.0041 26.1805 95.8291 25.7484 95.6267C25.3217 95.4243 24.9908 95.1617 24.7555 94.839C24.5203 94.5162 24.4027 94.1005 24.4027 93.5918C24.4027 92.8479 24.7118 92.2489 25.3299 91.7949C25.9535 91.3354 26.7986 91.1056 27.8653 91.1056C28.5928 91.1056 29.2273 91.2014 29.7689 91.3928C30.3104 91.5843 30.7726 91.8222 31.1555 92.1067L30.3843 93.2636C30.0451 93.0393 29.6732 92.8561 29.2684 92.7138C28.869 92.5716 28.4178 92.5005 27.9145 92.5005C27.3292 92.5005 26.908 92.588 26.6509 92.7631C26.3993 92.9381 26.2735 93.1706 26.2735 93.4605C26.2735 93.6793 26.3364 93.8598 26.4622 94.0021C26.5935 94.1443 26.8178 94.2783 27.135 94.4041C27.4523 94.5299 27.9008 94.6721 28.4807 94.8308C29.0441 94.9839 29.5337 95.1644 29.9494 95.3723C30.3706 95.5802 30.6961 95.8564 30.9258 96.201C31.161 96.5402 31.2786 96.9832 31.2786 97.5303C31.2786 98.1538 31.0981 98.6653 30.7371 99.0646C30.3761 99.4585 29.9056 99.7511 29.3258 99.9426C28.746 100.129 28.1224 100.222 27.455 100.222C26.6509 100.222 25.9562 100.107 25.3709 99.8769C24.7856 99.6417 24.2933 99.3491 23.894 98.999L24.8704 97.8831C25.2096 98.1566 25.5979 98.3809 26.0355 98.5559C26.4732 98.7255 26.9463 98.8103 27.455 98.8103ZM35.6742 96.2585C35.7289 97.1501 35.9778 97.7956 36.4208 98.1949C36.8694 98.5942 37.4082 98.7938 38.0372 98.7938C38.4584 98.7938 38.8496 98.7282 39.2106 98.5969C39.5771 98.4656 39.9436 98.2797 40.3101 98.039L41.106 99.1385C40.7012 99.4667 40.228 99.7292 39.6865 99.9262C39.1449 100.123 38.5651 100.222 37.947 100.222C37.0444 100.222 36.2813 100.03 35.6578 99.6472C35.0396 99.2643 34.5692 98.7309 34.2465 98.0472C33.9292 97.3634 33.7706 96.573 33.7706 95.6759C33.7706 94.8062 33.9292 94.0294 34.2465 93.3456C34.5637 92.6564 35.0178 92.1121 35.6085 91.7128C36.1993 91.308 36.9049 91.1056 37.7254 91.1056C38.8742 91.1056 39.7822 91.4913 40.4496 92.2626C41.1224 93.0338 41.4588 94.0923 41.4588 95.4379C41.4588 95.5856 41.4533 95.7333 41.4424 95.881C41.4369 96.0232 41.4287 96.1491 41.4178 96.2585H35.6742ZM37.7419 92.4677C37.1675 92.4677 36.6916 92.6728 36.3142 93.0831C35.9367 93.4933 35.7207 94.1333 35.666 95.0031H39.6783C39.6619 94.188 39.4868 93.5617 39.1531 93.1241C38.8249 92.6865 38.3545 92.4677 37.7419 92.4677ZM44.0738 100V98.6872H45.3456V92.64H44.0738V91.3354H46.7487L47.0851 93.3456C47.4078 92.6181 47.8071 92.0656 48.283 91.6882C48.7644 91.3053 49.3825 91.1138 50.1374 91.1138C50.3945 91.1138 50.6242 91.1357 50.8266 91.1795C51.0345 91.2178 51.2396 91.2697 51.442 91.3354L51.1302 94.5272H49.8174V92.7631C49.2048 92.785 48.6769 93.0311 48.2338 93.5015C47.7907 93.9665 47.4407 94.6229 47.1836 95.4708V98.6872H48.9312V100H44.0738ZM55.8129 92.9108C55.8129 92.506 55.9552 92.1614 56.2396 91.8769C56.5241 91.587 56.8741 91.4421 57.2899 91.4421C57.7056 91.4421 58.0557 91.587 58.3401 91.8769C58.6246 92.1614 58.7668 92.506 58.7668 92.9108C58.7668 93.3156 58.6246 93.6656 58.3401 93.961C58.0557 94.2509 57.7056 94.3959 57.2899 94.3959C56.8741 94.3959 56.5241 94.2509 56.2396 93.961C55.9552 93.6656 55.8129 93.3156 55.8129 92.9108ZM55.8129 98.7364C55.8129 98.3371 55.9552 97.9952 56.2396 97.7108C56.5241 97.4209 56.8741 97.2759 57.2899 97.2759C57.7056 97.2759 58.0557 97.4209 58.3401 97.7108C58.6246 97.9952 58.7668 98.3371 58.7668 98.7364C58.7668 99.1467 58.6246 99.4968 58.3401 99.7867C58.0557 100.077 57.7056 100.222 57.2899 100.222C56.8741 100.222 56.5241 100.077 56.2396 99.7867C55.9552 99.4968 55.8129 99.1467 55.8129 98.7364ZM73.6051 100V98.6872H74.8769V92.64H73.6051V91.3354H76.2799L76.6163 93.3456C76.9391 92.6181 77.3384 92.0656 77.8143 91.6882C78.2957 91.3053 78.9138 91.1138 79.6687 91.1138C79.9257 91.1138 80.1555 91.1357 80.3579 91.1795C80.5657 91.2178 80.7709 91.2697 80.9733 91.3354L80.6615 94.5272H79.3487V92.7631C78.736 92.785 78.2081 93.0311 77.7651 93.5015C77.322 93.9665 76.9719 94.6229 76.7148 95.4708V98.6872H78.4625V100H73.6051ZM84.8929 96.2585C84.9476 97.1501 85.1965 97.7956 85.6396 98.1949C86.0881 98.5942 86.6269 98.7938 87.256 98.7938C87.6772 98.7938 88.0683 98.7282 88.4293 98.5969C88.7958 98.4656 89.1623 98.2797 89.5288 98.039L90.3247 99.1385C89.9199 99.4667 89.4468 99.7292 88.9052 99.9262C88.3637 100.123 87.7839 100.222 87.1657 100.222C86.2632 100.222 85.5001 100.03 84.8765 99.6472C84.2584 99.2643 83.788 98.7309 83.4652 98.0472C83.148 97.3634 82.9893 96.573 82.9893 95.6759C82.9893 94.8062 83.148 94.0294 83.4652 93.3456C83.7825 92.6564 84.2365 92.1121 84.8273 91.7128C85.418 91.308 86.1237 91.1056 86.9442 91.1056C88.0929 91.1056 89.001 91.4913 89.6683 92.2626C90.3411 93.0338 90.6775 94.0923 90.6775 95.4379C90.6775 95.5856 90.6721 95.7333 90.6611 95.881C90.6557 96.0232 90.6474 96.1491 90.6365 96.2585H84.8929ZM86.9606 92.4677C86.3863 92.4677 85.9104 92.6728 85.5329 93.0831C85.1555 93.4933 84.9394 94.1333 84.8847 95.0031H88.897C88.8806 94.188 88.7056 93.5617 88.3719 93.1241C88.0437 92.6865 87.5733 92.4677 86.9606 92.4677ZM100.8 91.3354L97.7479 100H95.5982L92.5459 91.3354H94.5151L96.7141 98.4738L98.9213 91.3354H100.8ZM103.136 100V98.6872H104.408V92.64H103.136V91.3354H105.811L106.148 93.3456C106.47 92.6181 106.87 92.0656 107.346 91.6882C107.827 91.3053 108.445 91.1138 109.2 91.1138C109.457 91.1138 109.687 91.1357 109.889 91.1795C110.097 91.2178 110.302 91.2697 110.505 91.3354L110.193 94.5272H108.88V92.7631C108.267 92.785 107.739 93.0311 107.296 93.5015C106.853 93.9665 106.503 94.6229 106.246 95.4708V98.6872H107.994V100H103.136ZM116.049 98.8103C116.623 98.8103 117.08 98.7091 117.419 98.5067C117.758 98.2988 117.928 98.0144 117.928 97.6533C117.928 97.4181 117.879 97.2185 117.78 97.0544C117.682 96.8903 117.485 96.7371 117.189 96.5949C116.894 96.4526 116.445 96.305 115.844 96.1518C115.275 96.0041 114.774 95.8291 114.342 95.6267C113.915 95.4243 113.585 95.1617 113.349 94.839C113.114 94.5162 112.996 94.1005 112.996 93.5918C112.996 92.8479 113.306 92.2489 113.924 91.7949C114.547 91.3354 115.392 91.1056 116.459 91.1056C117.187 91.1056 117.821 91.2014 118.363 91.3928C118.904 91.5843 119.366 91.8222 119.749 92.1067L118.978 93.2636C118.639 93.0393 118.267 92.8561 117.862 92.7138C117.463 92.5716 117.012 92.5005 116.508 92.5005C115.923 92.5005 115.502 92.588 115.245 92.7631C114.993 92.9381 114.867 93.1706 114.867 93.4605C114.867 93.6793 114.93 93.8598 115.056 94.0021C115.187 94.1443 115.412 94.2783 115.729 94.4041C116.046 94.5299 116.495 94.6721 117.074 94.8308C117.638 94.9839 118.127 95.1644 118.543 95.3723C118.964 95.5802 119.29 95.8564 119.52 96.201C119.755 96.5402 119.872 96.9832 119.872 97.5303C119.872 98.1538 119.692 98.6653 119.331 99.0646C118.97 99.4585 118.499 99.7511 117.92 99.9426C117.34 100.129 116.716 100.222 116.049 100.222C115.245 100.222 114.55 100.107 113.965 99.8769C113.379 99.6417 112.887 99.3491 112.488 98.999L113.464 97.8831C113.803 98.1566 114.192 98.3809 114.629 98.5559C115.067 98.7255 115.54 98.8103 116.049 98.8103ZM124.58 87.6759V92.3938C124.93 91.9672 125.337 91.6472 125.802 91.4338C126.273 91.215 126.76 91.1056 127.263 91.1056C128.078 91.1056 128.685 91.3326 129.084 91.7867C129.484 92.2407 129.683 92.8725 129.683 93.6821V100H127.845V93.9692C127.845 93.4496 127.747 93.0776 127.55 92.8533C127.353 92.6236 127.036 92.5087 126.598 92.5087C126.188 92.5087 125.808 92.6427 125.458 92.9108C125.108 93.1733 124.815 93.4715 124.58 93.8051V100H122.742V87.8728L124.58 87.6759ZM21.0821 115.875C21.0821 116.219 21.134 116.468 21.2379 116.622C21.3419 116.775 21.5087 116.89 21.7385 116.966L21.3282 118.213C20.9015 118.164 20.5323 118.046 20.2205 117.861C19.9142 117.675 19.6844 117.393 19.5313 117.015C19.214 117.42 18.812 117.724 18.3251 117.926C17.8383 118.123 17.3186 118.222 16.7662 118.222C15.8855 118.222 15.1908 117.975 14.6821 117.483C14.1733 116.985 13.919 116.334 13.919 115.53C13.919 114.617 14.2745 113.914 14.9856 113.422C15.6968 112.929 16.7142 112.683 18.0379 112.683H19.2769V112.117C19.2769 111.554 19.1074 111.151 18.7682 110.911C18.4291 110.665 17.9559 110.542 17.3487 110.542C17.0643 110.542 16.7197 110.58 16.3149 110.656C15.9101 110.728 15.4862 110.84 15.0431 110.993L14.5918 109.696C15.1333 109.494 15.6639 109.346 16.1836 109.253C16.7032 109.155 17.1846 109.106 17.6277 109.106C18.7874 109.106 19.6516 109.363 20.2205 109.877C20.7949 110.391 21.0821 111.102 21.0821 112.01V115.875ZM17.3241 116.868C17.6961 116.868 18.0598 116.769 18.4154 116.572C18.7709 116.375 19.0581 116.099 19.2769 115.744V113.832H18.2595C17.3952 113.832 16.7771 113.977 16.4051 114.267C16.0332 114.551 15.8472 114.945 15.8472 115.448C15.8472 116.395 16.3395 116.868 17.3241 116.868ZM31.5986 108.236L32.0909 109.762C31.7463 109.877 31.3661 109.954 30.9504 109.992C30.5402 110.03 30.0807 110.049 29.572 110.049C30.0916 110.279 30.4827 110.574 30.7453 110.935C31.0079 111.291 31.1391 111.729 31.1391 112.248C31.1391 112.812 31.0024 113.315 30.7289 113.758C30.4554 114.201 30.0615 114.548 29.5473 114.8C29.0386 115.052 28.4314 115.177 27.7258 115.177C27.4742 115.177 27.2554 115.166 27.0694 115.145C26.8889 115.123 26.7111 115.087 26.5361 115.038C26.279 115.208 26.1504 115.445 26.1504 115.752C26.1504 115.927 26.2215 116.08 26.3637 116.211C26.5114 116.337 26.8014 116.4 27.2335 116.4H28.7432C29.3614 116.4 29.9056 116.507 30.3761 116.72C30.852 116.928 31.2239 117.215 31.492 117.582C31.7655 117.943 31.9022 118.353 31.9022 118.812C31.9022 119.677 31.5302 120.347 30.7863 120.823C30.0424 121.298 28.9702 121.536 27.5699 121.536C26.5743 121.536 25.7949 121.435 25.2314 121.233C24.6735 121.03 24.2796 120.73 24.0499 120.33C23.8202 119.931 23.7053 119.441 23.7053 118.862H25.3545C25.3545 119.168 25.412 119.419 25.5268 119.616C25.6472 119.813 25.8687 119.958 26.1914 120.051C26.5142 120.15 26.9791 120.199 27.5863 120.199C28.4889 120.199 29.1261 120.087 29.4981 119.863C29.8701 119.644 30.0561 119.335 30.0561 118.935C30.0561 118.58 29.9029 118.306 29.5966 118.115C29.2902 117.929 28.88 117.836 28.3658 117.836H26.8807C26.0602 117.836 25.4585 117.669 25.0755 117.335C24.6981 117.002 24.5094 116.613 24.5094 116.17C24.5094 115.547 24.8321 115.024 25.4776 114.603C24.9579 114.33 24.5778 113.999 24.3371 113.61C24.1019 113.216 23.9843 112.741 23.9843 112.183C23.9843 111.57 24.1374 111.034 24.4437 110.574C24.7501 110.115 25.174 109.757 25.7155 109.499C26.2626 109.242 26.8916 109.114 27.6027 109.114C28.2974 109.119 28.8773 109.084 29.3422 109.007C29.8072 108.931 30.212 108.827 30.5566 108.695C30.9067 108.559 31.254 108.405 31.5986 108.236ZM27.6191 110.377C27.0338 110.377 26.5935 110.544 26.2981 110.878C26.0027 111.206 25.855 111.636 25.855 112.166C25.855 112.713 26.0055 113.154 26.3063 113.487C26.6072 113.815 27.053 113.979 27.6437 113.979C28.1853 113.979 28.5983 113.821 28.8827 113.504C29.1726 113.186 29.3176 112.735 29.3176 112.15C29.3176 110.968 28.7514 110.377 27.6191 110.377ZM35.6742 114.258C35.7289 115.15 35.9778 115.796 36.4208 116.195C36.8694 116.594 37.4082 116.794 38.0372 116.794C38.4584 116.794 38.8496 116.728 39.2106 116.597C39.5771 116.466 39.9436 116.28 40.3101 116.039L41.106 117.138C40.7012 117.467 40.228 117.729 39.6865 117.926C39.1449 118.123 38.5651 118.222 37.947 118.222C37.0444 118.222 36.2813 118.03 35.6578 117.647C35.0396 117.264 34.5692 116.731 34.2465 116.047C33.9292 115.363 33.7706 114.573 33.7706 113.676C33.7706 112.806 33.9292 112.029 34.2465 111.346C34.5637 110.656 35.0178 110.112 35.6085 109.713C36.1993 109.308 36.9049 109.106 37.7254 109.106C38.8742 109.106 39.7822 109.491 40.4496 110.263C41.1224 111.034 41.4588 112.092 41.4588 113.438C41.4588 113.586 41.4533 113.733 41.4424 113.881C41.4369 114.023 41.4287 114.149 41.4178 114.258H35.6742ZM37.7419 110.468C37.1675 110.468 36.6916 110.673 36.3142 111.083C35.9367 111.493 35.7207 112.133 35.666 113.003H39.6783C39.6619 112.188 39.4868 111.562 39.1531 111.124C38.8249 110.686 38.3545 110.468 37.7419 110.468ZM45.9692 110.911C45.9692 110.506 46.1114 110.161 46.3959 109.877C46.6803 109.587 47.0304 109.442 47.4461 109.442C47.8618 109.442 48.2119 109.587 48.4964 109.877C48.7808 110.161 48.923 110.506 48.923 110.911C48.923 111.316 48.7808 111.666 48.4964 111.961C48.2119 112.251 47.8618 112.396 47.4461 112.396C47.0304 112.396 46.6803 112.251 46.3959 111.961C46.1114 111.666 45.9692 111.316 45.9692 110.911ZM45.9692 116.736C45.9692 116.337 46.1114 115.995 46.3959 115.711C46.6803 115.421 47.0304 115.276 47.4461 115.276C47.8618 115.276 48.2119 115.421 48.4964 115.711C48.7808 115.995 48.923 116.337 48.923 116.736C48.923 117.147 48.7808 117.497 48.4964 117.787C48.2119 118.077 47.8618 118.222 47.4461 118.222C47.0304 118.222 46.6803 118.077 46.3959 117.787C46.1114 117.497 45.9692 117.147 45.9692 116.736ZM66.6823 106.447C67.4482 106.447 68.0991 106.592 68.6352 106.882C69.1712 107.166 69.5787 107.552 69.8577 108.039C70.1422 108.52 70.2844 109.056 70.2844 109.647C70.2844 110.145 70.1969 110.632 70.0218 111.108C69.8523 111.578 69.576 112.076 69.1931 112.601C68.8157 113.121 68.3152 113.701 67.6916 114.341C67.068 114.975 66.3049 115.703 65.4023 116.523H70.547L70.3336 118H63.2936V116.605C64.3111 115.626 65.148 114.795 65.8044 114.111C66.4663 113.427 66.9832 112.836 67.3552 112.338C67.7326 111.841 67.9979 111.392 68.1511 110.993C68.3042 110.588 68.3808 110.178 68.3808 109.762C68.3808 109.193 68.2194 108.745 67.8967 108.416C67.574 108.088 67.1254 107.924 66.5511 107.924C66.0423 107.924 65.6157 108.017 65.2711 108.203C64.9319 108.389 64.5955 108.69 64.2618 109.106L63.0639 108.195C63.507 107.631 64.0157 107.199 64.59 106.898C65.1644 106.598 65.8618 106.447 66.6823 106.447ZM80.7599 116.556V118H73.9087V116.556H76.6738V108.564L74.1794 110.098L73.3917 108.81L76.8707 106.677H78.4953V116.556H80.7599ZM18.2677 123.856V133.637C18.2677 134.036 18.388 134.321 18.6287 134.49C18.8749 134.654 19.1921 134.736 19.5805 134.736C19.8267 134.736 20.0619 134.712 20.2862 134.663C20.5159 134.608 20.7374 134.537 20.9508 134.449L21.4185 135.729C21.1614 135.861 20.8441 135.975 20.4667 136.074C20.0947 136.172 19.668 136.222 19.1867 136.222C18.3169 136.222 17.6386 135.975 17.1518 135.483C16.6704 134.991 16.4297 134.321 16.4297 133.473V125.21H13.8123V123.856H18.2677ZM27.775 127.106C29.0441 127.106 30.0123 127.519 30.6796 128.345C31.347 129.171 31.6807 130.273 31.6807 131.651C31.6807 132.57 31.5275 133.372 31.2212 134.055C30.9203 134.739 30.4773 135.272 29.892 135.655C29.3121 136.033 28.6037 136.222 27.7668 136.222C26.5032 136.222 25.535 135.814 24.8622 134.999C24.1894 134.178 23.853 133.068 23.853 131.668C23.853 130.771 24.0034 129.98 24.3043 129.296C24.6106 128.607 25.0564 128.071 25.6417 127.688C26.227 127.3 26.9381 127.106 27.775 127.106ZM27.775 128.533C27.1132 128.533 26.6154 128.788 26.2817 129.296C25.948 129.8 25.7812 130.59 25.7812 131.668C25.7812 132.745 25.9453 133.538 26.2735 134.047C26.6072 134.55 27.1049 134.802 27.7668 134.802C28.4287 134.802 28.9237 134.548 29.252 134.039C29.5856 133.53 29.7525 132.734 29.7525 131.651C29.7525 130.585 29.5884 129.8 29.2602 129.296C28.932 128.788 28.4369 128.533 27.775 128.533ZM38.3244 134.712C38.7292 134.712 39.1066 134.641 39.4567 134.498C39.8068 134.356 40.1405 134.176 40.4578 133.957L41.3111 135.138C40.9337 135.461 40.4742 135.724 39.9326 135.926C39.3966 136.123 38.8413 136.222 38.267 136.222C37.3808 136.222 36.6205 136.036 35.986 135.664C35.3569 135.286 34.8755 134.761 34.5419 134.088C34.2137 133.41 34.0496 132.617 34.0496 131.709C34.0496 130.828 34.2164 130.043 34.5501 129.354C34.8892 128.659 35.376 128.112 36.0106 127.713C36.6451 127.308 37.4082 127.106 38.2998 127.106C39.4595 127.106 40.4605 127.453 41.3029 128.148L40.4578 129.305C40.1186 129.069 39.7713 128.892 39.4157 128.771C39.0601 128.645 38.6991 128.583 38.3326 128.583C37.6434 128.583 37.0827 128.834 36.6506 129.337C36.2184 129.841 36.0024 130.631 36.0024 131.709C36.0024 132.792 36.2212 133.563 36.6588 134.023C37.0964 134.482 37.6516 134.712 38.3244 134.712ZM50.6133 133.875C50.6133 134.219 50.6653 134.468 50.7692 134.622C50.8731 134.775 51.04 134.89 51.2697 134.966L50.8595 136.213C50.4328 136.164 50.0636 136.046 49.7518 135.861C49.4454 135.675 49.2157 135.393 49.0625 135.015C48.7453 135.42 48.3432 135.724 47.8564 135.926C47.3695 136.123 46.8499 136.222 46.2974 136.222C45.4167 136.222 44.722 135.975 44.2133 135.483C43.7046 134.985 43.4502 134.334 43.4502 133.53C43.4502 132.617 43.8058 131.914 44.5169 131.422C45.228 130.929 46.2454 130.683 47.5692 130.683H48.8082V130.117C48.8082 129.554 48.6386 129.151 48.2995 128.911C47.9603 128.665 47.4871 128.542 46.88 128.542C46.5955 128.542 46.2509 128.58 45.8461 128.656C45.4413 128.728 45.0174 128.84 44.5743 128.993L44.123 127.696C44.6646 127.494 45.1952 127.346 45.7148 127.253C46.2345 127.155 46.7159 127.106 47.1589 127.106C48.3186 127.106 49.1829 127.363 49.7518 127.877C50.3261 128.391 50.6133 129.102 50.6133 130.01V133.875ZM46.8554 134.868C47.2273 134.868 47.5911 134.769 47.9466 134.572C48.3022 134.375 48.5894 134.099 48.8082 133.744V131.832H47.7907C46.9265 131.832 46.3083 131.977 45.9364 132.267C45.5644 132.551 45.3784 132.945 45.3784 133.448C45.3784 134.395 45.8707 134.868 46.8554 134.868ZM61.0724 135.541C60.7552 135.743 60.375 135.907 59.9319 136.033C59.4888 136.159 59.0266 136.222 58.5453 136.222C57.5388 136.222 56.7729 135.962 56.2478 135.442C55.7282 134.917 55.4683 134.228 55.4683 133.374V128.673H53.5401V127.335H55.4683V125.399L57.3063 125.177V127.335H60.2273L60.0222 128.673H57.3063V133.358C57.3063 133.823 57.4212 134.17 57.6509 134.4C57.8861 134.624 58.269 134.736 58.7996 134.736C59.1169 134.736 59.4068 134.698 59.6694 134.622C59.9374 134.545 60.1835 134.446 60.4078 134.326L61.0724 135.541ZM67.1336 123.093C67.4946 123.093 67.7846 123.203 68.0034 123.422C68.2276 123.64 68.3398 123.914 68.3398 124.242C68.3398 124.57 68.2276 124.846 68.0034 125.071C67.7846 125.295 67.4946 125.407 67.1336 125.407C66.7835 125.407 66.4964 125.295 66.2721 125.071C66.0478 124.846 65.9357 124.57 65.9357 124.242C65.9357 123.914 66.0478 123.64 66.2721 123.422C66.4964 123.203 66.7835 123.093 67.1336 123.093ZM68.4136 127.335V134.654H70.7685V136H63.9829V134.654H66.5757V128.681H64.0649V127.335H68.4136ZM76.9938 127.106C78.2628 127.106 79.231 127.519 79.8984 128.345C80.5657 129.171 80.8994 130.273 80.8994 131.651C80.8994 132.57 80.7463 133.372 80.4399 134.055C80.1391 134.739 79.696 135.272 79.1107 135.655C78.5309 136.033 77.8225 136.222 76.9856 136.222C75.722 136.222 74.7538 135.814 74.081 134.999C73.4081 134.178 73.0717 133.068 73.0717 131.668C73.0717 130.771 73.2222 129.98 73.523 129.296C73.8293 128.607 74.2751 128.071 74.8604 127.688C75.4457 127.3 76.1569 127.106 76.9938 127.106ZM76.9938 128.533C76.3319 128.533 75.8341 128.788 75.5004 129.296C75.1668 129.8 74.9999 130.59 74.9999 131.668C74.9999 132.745 75.164 133.538 75.4922 134.047C75.8259 134.55 76.3237 134.802 76.9856 134.802C77.6475 134.802 78.1425 134.548 78.4707 134.039C78.8044 133.53 78.9712 132.734 78.9712 131.651C78.9712 130.585 78.8071 129.8 78.4789 129.296C78.1507 128.788 77.6557 128.533 76.9938 128.533ZM83.3668 136V127.335H84.9504L85.0898 128.459C85.4509 128.022 85.8775 127.688 86.3698 127.458C86.8621 127.223 87.3681 127.106 87.8878 127.106C88.6974 127.106 89.3018 127.333 89.7011 127.787C90.1059 128.241 90.3083 128.872 90.3083 129.682V136H88.4704V130.593C88.4704 129.843 88.3938 129.31 88.2406 128.993C88.0929 128.67 87.7565 128.509 87.2314 128.509C86.8102 128.509 86.4245 128.64 86.0745 128.903C85.7298 129.16 85.4399 129.452 85.2047 129.781V136H83.3668ZM95.1879 128.911C95.1879 128.506 95.3302 128.161 95.6146 127.877C95.8991 127.587 96.2491 127.442 96.6649 127.442C97.0806 127.442 97.4307 127.587 97.7151 127.877C97.9996 128.161 98.1418 128.506 98.1418 128.911C98.1418 129.316 97.9996 129.666 97.7151 129.961C97.4307 130.251 97.0806 130.396 96.6649 130.396C96.2491 130.396 95.8991 130.251 95.6146 129.961C95.3302 129.666 95.1879 129.316 95.1879 128.911ZM95.1879 134.736C95.1879 134.337 95.3302 133.995 95.6146 133.711C95.8991 133.421 96.2491 133.276 96.6649 133.276C97.0806 133.276 97.4307 133.421 97.7151 133.711C97.9996 133.995 98.1418 134.337 98.1418 134.736C98.1418 135.147 97.9996 135.497 97.7151 135.787C97.4307 136.077 97.0806 136.222 96.6649 136.222C96.2491 136.222 95.8991 136.077 95.6146 135.787C95.3302 135.497 95.1879 135.147 95.1879 134.736ZM117.632 136L114.03 126.367C114.052 126.591 114.085 126.942 114.129 127.417C114.173 127.888 114.211 128.427 114.244 129.034C114.282 129.636 114.301 130.243 114.301 130.855V136H112.611V124.677H115.081L118.691 134.318C118.663 134.088 118.628 133.752 118.584 133.309C118.546 132.866 118.508 132.346 118.469 131.75C118.436 131.154 118.42 130.516 118.42 129.838V124.677H120.11V136H117.632ZM129.363 133.875C129.363 134.219 129.415 134.468 129.519 134.622C129.623 134.775 129.79 134.89 130.02 134.966L129.609 136.213C129.183 136.164 128.814 136.046 128.502 135.861C128.195 135.675 127.966 135.393 127.813 135.015C127.495 135.42 127.093 135.724 126.606 135.926C126.12 136.123 125.6 136.222 125.047 136.222C124.167 136.222 123.472 135.975 122.963 135.483C122.455 134.985 122.2 134.334 122.2 133.53C122.2 132.617 122.556 131.914 123.267 131.422C123.978 130.929 124.995 130.683 126.319 130.683H127.558V130.117C127.558 129.554 127.389 129.151 127.049 128.911C126.71 128.665 126.237 128.542 125.63 128.542C125.346 128.542 125.001 128.58 124.596 128.656C124.191 128.728 123.767 128.84 123.324 128.993L122.873 127.696C123.415 127.494 123.945 127.346 124.465 127.253C124.984 127.155 125.466 127.106 125.909 127.106C127.069 127.106 127.933 127.363 128.502 127.877C129.076 128.391 129.363 129.102 129.363 130.01V133.875ZM125.605 134.868C125.977 134.868 126.341 134.769 126.697 134.572C127.052 134.375 127.339 134.099 127.558 133.744V131.832H126.541C125.676 131.832 125.058 131.977 124.686 132.267C124.314 132.551 124.128 132.945 124.128 133.448C124.128 134.395 124.621 134.868 125.605 134.868ZM136.811 127.106C137.577 127.106 138.19 127.294 138.649 127.672C139.109 128.044 139.442 128.572 139.65 129.255C139.858 129.934 139.962 130.732 139.962 131.651C139.962 132.532 139.836 133.317 139.584 134.006C139.333 134.695 138.958 135.237 138.46 135.631C137.968 136.025 137.355 136.222 136.622 136.222C135.714 136.222 134.981 135.902 134.423 135.262V139.331L132.586 139.536V127.335H134.186L134.3 128.451C134.629 128.008 135.009 127.675 135.441 127.45C135.873 127.221 136.33 127.106 136.811 127.106ZM136.302 128.525C135.892 128.525 135.528 128.648 135.211 128.894C134.899 129.141 134.637 129.43 134.423 129.764V133.817C134.856 134.463 135.427 134.786 136.138 134.786C136.756 134.786 137.227 134.537 137.55 134.039C137.872 133.541 138.034 132.748 138.034 131.659C138.034 130.549 137.889 129.75 137.599 129.264C137.314 128.771 136.882 128.525 136.302 128.525ZM146.236 123.856V133.637C146.236 134.036 146.357 134.321 146.597 134.49C146.844 134.654 147.161 134.736 147.549 134.736C147.795 134.736 148.031 134.712 148.255 134.663C148.485 134.608 148.706 134.537 148.92 134.449L149.387 135.729C149.13 135.861 148.813 135.975 148.435 136.074C148.063 136.172 147.637 136.222 147.155 136.222C146.286 136.222 145.607 135.975 145.121 135.483C144.639 134.991 144.398 134.321 144.398 133.473V125.21H141.781V123.856H146.236ZM153.799 132.258C153.854 133.15 154.103 133.796 154.546 134.195C154.994 134.594 155.533 134.794 156.162 134.794C156.583 134.794 156.975 134.728 157.336 134.597C157.702 134.466 158.069 134.28 158.435 134.039L159.231 135.138C158.826 135.467 158.353 135.729 157.811 135.926C157.27 136.123 156.69 136.222 156.072 136.222C155.169 136.222 154.406 136.03 153.783 135.647C153.165 135.264 152.694 134.731 152.371 134.047C152.054 133.363 151.896 132.573 151.896 131.676C151.896 130.806 152.054 130.029 152.371 129.346C152.689 128.656 153.143 128.112 153.734 127.713C154.324 127.308 155.03 127.106 155.85 127.106C156.999 127.106 157.907 127.491 158.575 128.263C159.247 129.034 159.584 130.092 159.584 131.438C159.584 131.586 159.578 131.733 159.567 131.881C159.562 132.023 159.554 132.149 159.543 132.258H153.799ZM155.867 128.468C155.293 128.468 154.817 128.673 154.439 129.083C154.062 129.493 153.846 130.133 153.791 131.003H157.803C157.787 130.188 157.612 129.562 157.278 129.124C156.95 128.686 156.48 128.468 155.867 128.468ZM165.268 134.81C165.842 134.81 166.299 134.709 166.638 134.507C166.977 134.299 167.147 134.014 167.147 133.653C167.147 133.418 167.097 133.218 166.999 133.054C166.9 132.89 166.703 132.737 166.408 132.595C166.113 132.453 165.664 132.305 165.062 132.152C164.494 132.004 163.993 131.829 163.561 131.627C163.134 131.424 162.803 131.162 162.568 130.839C162.333 130.516 162.215 130.101 162.215 129.592C162.215 128.848 162.524 128.249 163.142 127.795C163.766 127.335 164.611 127.106 165.678 127.106C166.405 127.106 167.04 127.201 167.581 127.393C168.123 127.584 168.585 127.822 168.968 128.107L168.197 129.264C167.858 129.039 167.486 128.856 167.081 128.714C166.682 128.572 166.23 128.501 165.727 128.501C165.142 128.501 164.721 128.588 164.463 128.763C164.212 128.938 164.086 129.171 164.086 129.461C164.086 129.679 164.149 129.86 164.275 130.002C164.406 130.144 164.63 130.278 164.948 130.404C165.265 130.53 165.713 130.672 166.293 130.831C166.857 130.984 167.346 131.164 167.762 131.372C168.183 131.58 168.509 131.856 168.738 132.201C168.974 132.54 169.091 132.983 169.091 133.53C169.091 134.154 168.911 134.665 168.55 135.065C168.189 135.458 167.718 135.751 167.138 135.943C166.558 136.129 165.935 136.222 165.268 136.222C164.463 136.222 163.769 136.107 163.183 135.877C162.598 135.642 162.106 135.349 161.707 134.999L162.683 133.883C163.022 134.157 163.41 134.381 163.848 134.556C164.286 134.725 164.759 134.81 165.268 134.81Z" fill="#B9B9B9"/>
</svg>
