<svg width="258" height="80" viewBox="0 0 258 80" fill="none" xmlns="http://www.w3.org/2000/svg">
<path d="M5.08615 53V47.5569H9.51795V26.9149H5.08615V21.5015H15.4964L16.9538 28.7292C18.1039 26.0721 19.5515 24.0595 21.2964 22.6913C23.0414 21.3231 25.2325 20.639 27.8697 20.639C28.881 20.639 29.7733 20.7183 30.5467 20.8769C31.32 21.0356 32.0735 21.2438 32.8072 21.5015L31.4092 33.7856H26.1744V27.6287C24.132 27.8072 22.3672 28.7391 20.88 30.4246C19.3928 32.0903 18.2229 34.2913 17.3703 37.0277V47.5569H23.6462V53H5.08615ZM47.1646 39.6451C47.4026 42.5997 48.275 44.7313 49.7821 46.04C51.2891 47.3487 53.1233 48.0031 55.2846 48.0031C56.7916 48.0031 58.2094 47.7651 59.538 47.2892C60.8665 46.8133 62.1752 46.1491 63.4641 45.2964L66.7359 49.7877C65.2685 51.0171 63.5137 52.0085 61.4713 52.7621C59.4487 53.5156 57.218 53.8923 54.779 53.8923C51.3684 53.8923 48.4932 53.1884 46.1533 51.7805C43.8333 50.3726 42.0785 48.4195 40.8887 45.921C39.699 43.4226 39.1041 40.5474 39.1041 37.2954C39.1041 34.1624 39.6791 31.3368 40.8292 28.8185C41.9991 26.3002 43.6846 24.3074 45.8856 22.84C48.1065 21.3528 50.7735 20.6092 53.8867 20.6092C58.2094 20.6092 61.6398 22.0171 64.178 24.8328C66.7161 27.6485 67.9851 31.545 67.9851 36.5221C67.9851 37.6721 67.9356 38.7132 67.8364 39.6451H47.1646ZM53.9164 26.1415C52.0128 26.1415 50.4463 26.8256 49.2169 28.1938C48.0074 29.5621 47.2935 31.7036 47.0754 34.6185H60.341C60.3014 31.9614 59.7561 29.8892 58.7051 28.4021C57.6542 26.895 56.058 26.1415 53.9164 26.1415ZM104.68 21.5015L93.8533 53H84.6328L73.7467 21.5015H82.1939L89.3621 46.7241L96.679 21.5015H104.68ZM112.137 53V47.5569H116.569V26.9149H112.137V21.5015H122.547L124.005 28.7292C125.155 26.0721 126.602 24.0595 128.347 22.6913C130.092 21.3231 132.283 20.639 134.921 20.639C135.932 20.639 136.824 20.7183 137.597 20.8769C138.371 21.0356 139.124 21.2438 139.858 21.5015L138.46 33.7856H133.225V27.6287C131.183 27.8072 129.418 28.7391 127.931 30.4246C126.444 32.0903 125.274 34.2913 124.421 37.0277V47.5569H130.697V53H112.137Z" fill="#D8ECFF"/>
<path d="M159.51 48.0923C161.354 48.0923 162.831 47.775 163.942 47.1405C165.072 46.506 165.637 45.5938 165.637 44.4041C165.637 43.6506 165.449 43.0062 165.072 42.4708C164.715 41.9156 164.001 41.4099 162.93 40.9538C161.86 40.4779 160.253 39.9525 158.112 39.3774C156.089 38.8619 154.315 38.2274 152.788 37.4738C151.281 36.7005 150.101 35.7091 149.248 34.4995C148.415 33.2899 147.999 31.7631 147.999 29.919C147.999 27.1826 149.149 24.9518 151.449 23.2267C153.749 21.4817 156.962 20.6092 161.086 20.6092C163.783 20.6092 166.143 20.9662 168.165 21.68C170.188 22.374 171.923 23.2465 173.37 24.2974L170.158 29.0862C168.889 28.2732 167.511 27.6188 166.024 27.1231C164.556 26.6075 162.97 26.3497 161.265 26.3497C159.421 26.3497 158.072 26.6174 157.22 27.1528C156.387 27.6882 155.97 28.4318 155.97 29.3836C155.97 30.0578 156.178 30.6328 156.595 31.1087C157.031 31.5648 157.804 32.0109 158.915 32.4472C160.045 32.8636 161.651 33.3692 163.733 33.9641C165.776 34.5391 167.55 35.2034 169.057 35.9569C170.584 36.7104 171.764 37.7118 172.597 38.961C173.43 40.1904 173.846 41.8164 173.846 43.839C173.846 46.1193 173.182 48.0031 171.853 49.4903C170.525 50.9774 168.77 52.0879 166.589 52.8215C164.408 53.5354 162.058 53.8923 159.54 53.8923C156.565 53.8923 153.968 53.466 151.747 52.6133C149.526 51.7607 147.642 50.6602 146.095 49.3118L150.17 44.7313C151.4 45.7029 152.798 46.506 154.364 47.1405C155.95 47.775 157.666 48.0923 159.51 48.0923ZM191.059 8.17641V25.041C192.368 23.5538 193.835 22.4434 195.461 21.7097C197.107 20.9761 198.822 20.6092 200.607 20.6092C203.502 20.6092 205.673 21.4321 207.121 23.078C208.588 24.7039 209.322 26.9942 209.322 29.9487V53H201.469V31.7036C201.469 29.8 201.172 28.4516 200.577 27.6585C200.002 26.8653 199.01 26.4687 197.603 26.4687C196.334 26.4687 195.144 26.895 194.033 27.7477C192.923 28.5805 191.931 29.6017 191.059 30.8113V53H183.207V8.94975L191.059 8.17641Z" fill="#FFAD2A"/>
<path d="M27.4236 73.8031C27.4236 74.0903 27.4619 74.2985 27.5385 74.4277C27.6198 74.5569 27.7491 74.655 27.9262 74.7221L27.4595 76.2154C27.0096 76.1723 26.6291 76.0742 26.3179 75.921C26.0116 75.7631 25.7699 75.5262 25.5928 75.2103C25.3009 75.5597 24.9275 75.8205 24.4728 75.9928C24.0181 76.1603 23.5538 76.2441 23.08 76.2441C22.295 76.2441 21.668 76.0215 21.199 75.5764C20.7347 75.1265 20.5026 74.5497 20.5026 73.8462C20.5026 73.0181 20.8256 72.3791 21.4718 71.9292C22.1227 71.4793 23.0369 71.2544 24.2144 71.2544H25.241V70.9672C25.241 70.187 24.7385 69.7969 23.7333 69.7969C23.4892 69.7969 23.1757 69.8328 22.7928 69.9046C22.4099 69.9716 22.027 70.0697 21.6441 70.199L21.12 68.6913C21.613 68.5046 22.1251 68.3634 22.6564 68.2677C23.1925 68.172 23.6711 68.1241 24.0923 68.1241C25.2267 68.1241 26.0643 68.3562 26.6051 68.8205C27.1508 69.28 27.4236 69.9453 27.4236 70.8164V73.8031ZM23.8626 74.6215C24.1067 74.6215 24.3627 74.5497 24.6308 74.4062C24.8988 74.2578 25.1022 74.0496 25.241 73.7815V72.5467H24.681C24.0492 72.5467 23.585 72.6448 23.2882 72.841C22.9915 73.0325 22.8431 73.3149 22.8431 73.6882C22.8431 73.9802 22.9316 74.2099 23.1087 74.3774C23.2906 74.5402 23.5419 74.6215 23.8626 74.6215ZM36.8123 68.3754L34.2707 76H31.5999L29.0297 68.3754H31.4779L32.9641 74.2626L34.5148 68.3754H36.8123ZM44.6502 73.8031C44.6502 74.0903 44.6884 74.2985 44.765 74.4277C44.8464 74.5569 44.9756 74.655 45.1527 74.7221L44.686 76.2154C44.2361 76.1723 43.8556 76.0742 43.5445 75.921C43.2382 75.7631 42.9965 75.5262 42.8194 75.2103C42.5274 75.5597 42.1541 75.8205 41.6994 75.9928C41.2447 76.1603 40.7804 76.2441 40.3066 76.2441C39.5216 76.2441 38.8946 76.0215 38.4255 75.5764C37.9613 75.1265 37.7291 74.5497 37.7291 73.8462C37.7291 73.0181 38.0522 72.3791 38.6984 71.9292C39.3493 71.4793 40.2635 71.2544 41.4409 71.2544H42.4676V70.9672C42.4676 70.187 41.965 69.7969 40.9599 69.7969C40.7158 69.7969 40.4023 69.8328 40.0194 69.9046C39.6365 69.9716 39.2536 70.0697 38.8707 70.199L38.3466 68.6913C38.8396 68.5046 39.3517 68.3634 39.883 68.2677C40.419 68.172 40.8977 68.1241 41.3189 68.1241C42.4532 68.1241 43.2908 68.3562 43.8317 68.8205C44.3773 69.28 44.6502 69.9453 44.6502 70.8164V73.8031ZM41.0891 74.6215C41.3332 74.6215 41.5893 74.5497 41.8573 74.4062C42.1254 74.2578 42.3288 74.0496 42.4676 73.7815V72.5467H41.9076C41.2758 72.5467 40.8115 72.6448 40.5148 72.841C40.218 73.0325 40.0696 73.3149 40.0696 73.6882C40.0696 73.9802 40.1582 74.2099 40.3353 74.3774C40.5172 74.5402 40.7684 74.6215 41.0891 74.6215ZM50.1332 64.3836C50.5257 64.3836 50.8463 64.5056 51.0952 64.7497C51.3441 64.9938 51.4686 65.2978 51.4686 65.6615C51.4686 66.0253 51.3441 66.3316 51.0952 66.5805C50.8463 66.8246 50.5257 66.9467 50.1332 66.9467C49.7359 66.9467 49.4104 66.8246 49.1568 66.5805C48.9079 66.3316 48.7834 66.0253 48.7834 65.6615C48.7834 65.2978 48.9079 64.9938 49.1568 64.7497C49.4104 64.5056 49.7359 64.3836 50.1332 64.3836ZM51.5045 68.3754V74.4492H53.4429V76H47.0747V74.4492H49.2357V69.9262H47.1465V68.3754H51.5045ZM59.4357 65.3456V73.6021C59.4357 73.9084 59.5218 74.1285 59.6942 74.2626C59.8712 74.3918 60.113 74.4564 60.4193 74.4564C60.6155 74.4564 60.8046 74.4349 60.9865 74.3918C61.1683 74.3439 61.3383 74.2889 61.4962 74.2267L62.0418 75.7415C61.7834 75.8756 61.4723 75.9928 61.1085 76.0933C60.7447 76.1938 60.3212 76.2441 59.8377 76.2441C58.9188 76.2441 58.2439 75.9809 57.8131 75.4544C57.3824 74.9231 57.167 74.2123 57.167 73.3221V66.8964H54.9198V65.3456H59.4357ZM70.49 73.8031C70.49 74.0903 70.5283 74.2985 70.6049 74.4277C70.6862 74.5569 70.8155 74.655 70.9926 74.7221L70.5259 76.2154C70.076 76.1723 69.6955 76.0742 69.3844 75.921C69.078 75.7631 68.8363 75.5262 68.6592 75.2103C68.3673 75.5597 67.9939 75.8205 67.5392 75.9928C67.0845 76.1603 66.6203 76.2441 66.1464 76.2441C65.3614 76.2441 64.7344 76.0215 64.2654 75.5764C63.8011 75.1265 63.569 74.5497 63.569 73.8462C63.569 73.0181 63.892 72.3791 64.5382 71.9292C65.1891 71.4793 66.1033 71.2544 67.2808 71.2544H68.3074V70.9672C68.3074 70.187 67.8049 69.7969 66.7997 69.7969C66.5556 69.7969 66.2421 69.8328 65.8592 69.9046C65.4763 69.9716 65.0934 70.0697 64.7105 70.199L64.1864 68.6913C64.6794 68.5046 65.1915 68.3634 65.7228 68.2677C66.2589 68.172 66.7375 68.1241 67.1587 68.1241C68.2931 68.1241 69.1307 68.3562 69.6715 68.8205C70.2172 69.28 70.49 69.9453 70.49 70.8164V73.8031ZM66.929 74.6215C67.1731 74.6215 67.4291 74.5497 67.6972 74.4062C67.9652 74.2578 68.1686 74.0496 68.3074 73.7815V72.5467H67.7474C67.1156 72.5467 66.6514 72.6448 66.3546 72.841C66.0579 73.0325 65.9095 73.3149 65.9095 73.6882C65.9095 73.9802 65.998 74.2099 66.1751 74.3774C66.357 74.5402 66.6083 74.6215 66.929 74.6215ZM74.9535 69.1579C75.1928 68.8421 75.48 68.5908 75.8151 68.4041C76.1549 68.2174 76.5187 68.1241 76.9064 68.1241C77.8876 68.1241 78.6007 68.4879 79.0458 69.2154C79.4958 69.9429 79.7207 70.9265 79.7207 72.1662C79.7207 72.9511 79.6034 73.6523 79.3689 74.2697C79.1392 74.8824 78.797 75.3658 78.3423 75.72C77.8876 76.0694 77.3299 76.2441 76.6694 76.2441C75.8701 76.2441 75.2407 75.933 74.7812 75.3108L74.6951 76H72.6848V65.3456L74.9535 65.1087V69.1579ZM76.0735 74.5928C76.4756 74.5928 76.7939 74.4085 77.0284 74.04C77.2629 73.6667 77.3802 73.0516 77.3802 72.1949C77.3802 71.5631 77.3299 71.0749 77.2294 70.7303C77.1337 70.3809 76.9949 70.1391 76.813 70.0051C76.6359 69.8663 76.4277 69.7969 76.1884 69.7969C75.9347 69.7969 75.7074 69.8759 75.5064 70.0338C75.3053 70.1918 75.1211 70.4072 74.9535 70.68V73.8964C75.0971 74.1214 75.2575 74.2937 75.4346 74.4133C75.6117 74.533 75.8246 74.5928 76.0735 74.5928ZM85.2755 65.3456V73.6021C85.2755 73.9084 85.3617 74.1285 85.534 74.2626C85.7111 74.3918 85.9528 74.4564 86.2591 74.4564C86.4554 74.4564 86.6444 74.4349 86.8263 74.3918C87.0082 74.3439 87.1781 74.2889 87.336 74.2267L87.8817 75.7415C87.6232 75.8756 87.3121 75.9928 86.9484 76.0933C86.5846 76.1938 86.161 76.2441 85.6776 76.2441C84.7586 76.2441 84.0837 75.9809 83.653 75.4544C83.2222 74.9231 83.0068 74.2123 83.0068 73.3221V66.8964H80.7596V65.3456H85.2755ZM91.8786 72.8482C91.9551 73.4704 92.1586 73.9179 92.4888 74.1908C92.8191 74.4588 93.2259 74.5928 93.7093 74.5928C94.0587 74.5928 94.3962 74.5354 94.7216 74.4205C95.0471 74.3056 95.3606 74.1525 95.6621 73.961L96.5739 75.1959C96.215 75.5022 95.7794 75.7535 95.2673 75.9497C94.7599 76.146 94.1808 76.2441 93.5298 76.2441C92.6587 76.2441 91.9288 76.0718 91.3401 75.7272C90.7514 75.3778 90.3086 74.8991 90.0119 74.2913C89.7151 73.6834 89.5668 72.9846 89.5668 72.1949C89.5668 71.4434 89.7104 70.7614 89.9975 70.1487C90.2847 69.5313 90.7035 69.0407 91.2539 68.6769C91.8092 68.3084 92.4864 68.1241 93.2857 68.1241C94.0133 68.1241 94.6427 68.2797 95.1739 68.5908C95.71 68.9019 96.124 69.3494 96.416 69.9333C96.7127 70.5173 96.8611 71.2185 96.8611 72.0369C96.8611 72.1662 96.8563 72.305 96.8468 72.4533C96.842 72.6017 96.8324 72.7333 96.818 72.8482H91.8786ZM93.2857 69.6462C92.8789 69.6462 92.551 69.7921 92.3021 70.0841C92.0533 70.3761 91.9025 70.8427 91.8498 71.4841H94.6498C94.6451 70.9289 94.5374 70.4838 94.3268 70.1487C94.1162 69.8137 93.7692 69.6462 93.2857 69.6462ZM111.991 65.1087C112.546 65.1087 113.037 65.1542 113.463 65.2451C113.889 65.3313 114.27 65.4462 114.605 65.5897L113.98 67.0687C113.717 66.9682 113.446 66.8964 113.169 66.8533C112.891 66.8055 112.616 66.7815 112.343 66.7815C111.893 66.7815 111.57 66.8629 111.374 67.0256C111.182 67.1884 111.087 67.4588 111.087 67.8369V68.8564H113.571L113.319 70.4287H111.087V76H108.832V70.4287H107.231V68.8564H108.832V67.7508C108.832 67.2482 108.952 66.7983 109.191 66.401C109.431 66.0038 109.785 65.6903 110.254 65.4605C110.723 65.226 111.302 65.1087 111.991 65.1087ZM119.054 68.1241C119.839 68.1241 120.506 68.2916 121.057 68.6267C121.607 68.9617 122.028 69.4332 122.32 70.041C122.612 70.6441 122.758 71.3525 122.758 72.1662C122.758 73.4393 122.433 74.4373 121.782 75.16C121.131 75.8827 120.222 76.2441 119.054 76.2441C117.886 76.2441 116.977 75.8875 116.326 75.1744C115.675 74.4612 115.349 73.4632 115.349 72.1805C115.349 71.3716 115.495 70.6632 115.787 70.0554C116.084 69.4475 116.507 68.9737 117.058 68.6338C117.613 68.294 118.278 68.1241 119.054 68.1241ZM119.054 69.7969C118.59 69.7969 118.245 69.9884 118.02 70.3713C117.8 70.7494 117.69 71.3525 117.69 72.1805C117.69 73.0229 117.8 73.6332 118.02 74.0113C118.245 74.3894 118.59 74.5785 119.054 74.5785C119.518 74.5785 119.86 74.3894 120.08 74.0113C120.305 73.6332 120.418 73.0181 120.418 72.1662C120.418 71.3429 120.305 70.7422 120.08 70.3641C119.86 69.986 119.518 69.7969 119.054 69.7969ZM124.436 76V74.4779H125.441V69.8831H124.436V68.3754H127.172L127.588 70.0913C127.861 69.4356 128.208 68.9474 128.629 68.6267C129.055 68.306 129.574 68.1456 130.187 68.1456C130.446 68.1456 130.675 68.1672 130.876 68.2103C131.077 68.2485 131.266 68.3036 131.443 68.3754L131.02 71.5631H129.598V70.1559C129.168 70.2325 128.789 70.467 128.464 70.8595C128.139 71.2472 127.887 71.7258 127.71 72.2954V74.4779H129.218V76H124.436ZM148.067 76H145.561L144.908 70.8738L144.226 76H141.763L140.636 68.3754H142.711L143.206 74.5856L144.011 69.3374H145.92L146.638 74.5856L147.148 68.3754H149.151L148.067 76ZM153.507 68.1241C154.292 68.1241 154.96 68.2916 155.51 68.6267C156.06 68.9617 156.482 69.4332 156.774 70.041C157.066 70.6441 157.212 71.3525 157.212 72.1662C157.212 73.4393 156.886 74.4373 156.235 75.16C155.584 75.8827 154.675 76.2441 153.507 76.2441C152.339 76.2441 151.43 75.8875 150.779 75.1744C150.128 74.4612 149.802 73.4632 149.802 72.1805C149.802 71.3716 149.948 70.6632 150.24 70.0554C150.537 69.4475 150.961 68.9737 151.511 68.6338C152.066 68.294 152.732 68.1241 153.507 68.1241ZM153.507 69.7969C153.043 69.7969 152.698 69.9884 152.473 70.3713C152.253 70.7494 152.143 71.3525 152.143 72.1805C152.143 73.0229 152.253 73.6332 152.473 74.0113C152.698 74.3894 153.043 74.5785 153.507 74.5785C153.971 74.5785 154.313 74.3894 154.534 74.0113C154.759 73.6332 154.871 73.0181 154.871 72.1662C154.871 71.3429 154.759 70.7422 154.534 70.3641C154.313 69.986 153.971 69.7969 153.507 69.7969ZM158.889 76V74.4779H159.895V69.8831H158.889V68.3754H161.625L162.041 70.0913C162.314 69.4356 162.661 68.9474 163.082 68.6267C163.508 68.306 164.028 68.1456 164.64 68.1456C164.899 68.1456 165.128 68.1672 165.329 68.2103C165.53 68.2485 165.72 68.3036 165.897 68.3754L165.473 71.5631H164.051V70.1559C163.621 70.2325 163.243 70.467 162.917 70.8595C162.592 71.2472 162.34 71.7258 162.163 72.2954V74.4779H163.671V76H158.889ZM169.7 65.1087V76H167.431V65.3456L169.7 65.1087ZM174.668 68.3754L172.162 71.7497L174.876 76H172.291L169.786 71.8215L172.291 68.3754H174.668Z" fill="#D8ECFF"/>
<circle cx="9" cy="72" r="4" fill="#FFAD2A"/>
</svg>
